<?xml version="1.0" encoding="UTF-8" standalone="no"?>
<!-- Created with Inkscape (http://www.inkscape.org/) -->

<svg
   xmlns:dc="http://purl.org/dc/elements/1.1/"
   xmlns:cc="http://creativecommons.org/ns#"
   xmlns:rdf="http://www.w3.org/1999/02/22-rdf-syntax-ns#"
   xmlns:svg="http://www.w3.org/2000/svg"
   xmlns="http://www.w3.org/2000/svg"
   xmlns:xlink="http://www.w3.org/1999/xlink"
   xmlns:sodipodi="http://sodipodi.sourceforge.net/DTD/sodipodi-0.dtd"
   xmlns:inkscape="http://www.inkscape.org/namespaces/inkscape"
   width="50.088943mm"
   height="54.877216mm"
   viewBox="0 0 50.088943 54.877216"
   version="1.1"
   id="svg10747"
   inkscape:version="0.92.4 (5da689c313, 2019-01-14)"
   sodipodi:docname="amibition_mu.svg">
  <defs
     id="defs10741">
    <filter
       inkscape:collect="always"
       style="color-interpolation-filters:sRGB"
       id="filter1926-2"
       x="-0.037462775"
       width="1.0749255"
       y="-0.065928675"
       height="1.1318573">
      <feGaussianBlur
         inkscape:collect="always"
         stdDeviation="5.738566"
         id="feGaussianBlur1928-0" />
    </filter>
    <linearGradient
       inkscape:collect="always"
       xlink:href="#linearGradient1417"
       id="linearGradient7236"
       gradientUnits="userSpaceOnUse"
       gradientTransform="translate(-1729.619,-42.333333)"
       x1="-300.40637"
       y1="365.6933"
       x2="-138.85858"
       y2="365.6933" />
    <linearGradient
       inkscape:collect="always"
       id="linearGradient1417">
      <stop
         style="stop-color:#0b280b;stop-opacity:1;"
         offset="0"
         id="stop1413" />
      <stop
         style="stop-color:#0b280b;stop-opacity:0;"
         offset="1"
         id="stop1415" />
    </linearGradient>
    <filter
       inkscape:collect="always"
       style="color-interpolation-filters:sRGB"
       id="filter1717-7"
       x="-0.03594967"
       width="1.0718993"
       y="-0.036050472"
       height="1.0721009">
      <feGaussianBlur
         inkscape:collect="always"
         stdDeviation="2.4263546"
         id="feGaussianBlur1719-1" />
    </filter>
    <filter
       inkscape:collect="always"
       style="color-interpolation-filters:sRGB"
       id="filter1653-0"
       x="-0.073200002"
       width="1.1464"
       y="-0.073200002"
       height="1.1464">
      <feGaussianBlur
         inkscape:collect="always"
         stdDeviation="3.5276518"
         id="feGaussianBlur1655-7" />
    </filter>
    <filter
       inkscape:collect="always"
       style="color-interpolation-filters:sRGB"
       id="filter1677-9"
       x="-0.048911065"
       width="1.0978221"
       y="-0.13637902"
       height="1.272758">
      <feGaussianBlur
         inkscape:collect="always"
         stdDeviation="3.675746"
         id="feGaussianBlur1679-9" />
    </filter>
    <filter
       inkscape:collect="always"
       style="color-interpolation-filters:sRGB"
       id="filter1705-3"
       x="-0.032389998"
       width="1.06478"
       y="-0.092653185"
       height="1.1853064">
      <feGaussianBlur
         inkscape:collect="always"
         stdDeviation="2.3829172"
         id="feGaussianBlur1707-7" />
    </filter>
    <linearGradient
       inkscape:collect="always"
       xlink:href="#linearGradient2641"
       id="linearGradient7234"
       gradientUnits="userSpaceOnUse"
       gradientTransform="matrix(0.00368774,0,0,0.00266801,14.72223,236.12741)"
       x1="321.875"
       y1="3903.7698"
       x2="325"
       y2="3385.0198" />
    <linearGradient
       inkscape:collect="always"
       id="linearGradient2641">
      <stop
         style="stop-color:#ff8080;stop-opacity:1"
         offset="0"
         id="stop2637" />
      <stop
         style="stop-color:#e9afaf;stop-opacity:1"
         offset="1"
         id="stop2639" />
    </linearGradient>
    <filter
       inkscape:collect="always"
       style="color-interpolation-filters:sRGB"
       id="filter2556-7"
       x="-0.32851306"
       width="1.6570261"
       y="-0.32851306"
       height="1.6570261">
      <feGaussianBlur
         inkscape:collect="always"
         stdDeviation="43.006836"
         id="feGaussianBlur2558-6" />
    </filter>
    <filter
       inkscape:collect="always"
       style="color-interpolation-filters:sRGB"
       id="filter1870-4-2"
       x="-0.019313339"
       width="1.0386267"
       y="-0.03169005"
       height="1.0633801">
      <feGaussianBlur
         inkscape:collect="always"
         stdDeviation="1.7129321"
         id="feGaussianBlur1872-1" />
    </filter>
    <linearGradient
       inkscape:collect="always"
       xlink:href="#linearGradient1417"
       id="linearGradient11524"
       gradientUnits="userSpaceOnUse"
       gradientTransform="translate(-1729.619,-42.333333)"
       x1="-300.40637"
       y1="365.6933"
       x2="-138.85858"
       y2="365.6933" />
  </defs>
  <sodipodi:namedview
     id="base"
     pagecolor="#ffffff"
     bordercolor="#666666"
     borderopacity="1.0"
     inkscape:pageopacity="0.0"
     inkscape:pageshadow="2"
     inkscape:zoom="0.35"
     inkscape:cx="-229.62944"
     inkscape:cy="406.56211"
     inkscape:document-units="mm"
     inkscape:current-layer="layer1"
     showgrid="false"
     inkscape:window-width="1366"
     inkscape:window-height="705"
     inkscape:window-x="-8"
     inkscape:window-y="-8"
     inkscape:window-maximized="1" />
  <metadata
     id="metadata10744">
    <rdf:RDF>
      <cc:Work
         rdf:about="">
        <dc:format>image/svg+xml</dc:format>
        <dc:type
           rdf:resource="http://purl.org/dc/dcmitype/StillImage" />
        <dc:title></dc:title>
      </cc:Work>
    </rdf:RDF>
  </metadata>
  <g
     inkscape:label="Layer 1"
     inkscape:groupmode="layer"
     id="layer1"
     transform="translate(-43.747195,-201.52568)">
    <circle
       cy="236.40289"
       cx="68.791664"
       id="circle3771-0"
       style="display:inline;opacity:1;fill:#93ac9d;fill-opacity:1;stroke:#000000;stroke-width:0.84398568;stroke-linejoin:round;stroke-miterlimit:4;stroke-dasharray:none;stroke-opacity:1;paint-order:stroke fill markers"
       r="19.578007" />
    <ellipse
       ry="2.6969903"
       rx="1.667484"
       cy="234.71841"
       cx="78.068153"
       id="ellipse7160"
       style="display:inline;opacity:1;fill:#fcdaab;fill-opacity:1;stroke:none;stroke-width:0.89072251;stroke-linecap:round;stroke-linejoin:round;stroke-miterlimit:4;stroke-dasharray:none;stroke-dashoffset:0;stroke-opacity:1;paint-order:stroke fill markers" />
    <circle
       style="display:inline;opacity:1;fill:#ffcc00;fill-opacity:1;stroke:none;stroke-width:0.66077667;stroke-linecap:round;stroke-linejoin:round;stroke-miterlimit:4;stroke-dasharray:none;stroke-dashoffset:0;stroke-opacity:1;paint-order:stroke fill markers"
       id="path2234"
       cx="63.425911"
       cy="243.71758"
       r="7.6706362" />
    <path
       sodipodi:nodetypes="ccccc"
       inkscape:connector-curvature="0"
       style="display:inline;opacity:1;fill:#00aa88;fill-opacity:1;stroke:none;stroke-width:0.01091111;stroke-linejoin:round;stroke-miterlimit:4;stroke-dasharray:none;stroke-opacity:1;paint-order:stroke fill markers"
       d="m 69.484544,251.4181 c -3.9037,0.011 -8.007,0.4484 -11.1813,1.5231 3.1002,2.0046 6.998,3.1685 10.6341,3.0191 3.704899,-0.01 7.330299,-1.0746 10.448599,-3.0745 -2.9698,-0.8827 -6.398699,-1.4645 -9.901399,-1.4677 z"
       id="path7162" />
    <path
       sodipodi:nodetypes="cccccccc"
       inkscape:connector-curvature="0"
       id="path7164"
       d="m 65.422544,246.822 0.01,4.7769 c -1.3642,0.1258 -2.7743,0.2519 -4.0388,0.5182 1.0651,2.9906 6.019,3.3093 7.5853,3.2759 1.490903,-0.095 5.1945,0.1636 7.488001,-3.236 -1.381003,-0.2859 -2.823003,-0.5021 -4.296899,-0.6247 l 0.053,-4.7103 z"
       style="display:inline;opacity:1;fill:#ffdaa7;fill-opacity:1;stroke:none;stroke-width:0.0137769;stroke-linejoin:round;stroke-miterlimit:4;stroke-dasharray:none;stroke-opacity:1;paint-order:stroke fill markers" />
    <path
       sodipodi:nodetypes="ccccc"
       id="path7166"
       d="m 65.422544,246.88835 v 1.8652 c 2.5902,1.0477 4.974601,0.7875 6.761999,-0.2423 l 0.03,-1.6229 z"
       style="display:inline;opacity:1;fill:#f1c27d;fill-opacity:1;stroke:none;stroke-width:0.21400841;stroke-linejoin:round;stroke-miterlimit:4;stroke-dasharray:none;stroke-opacity:1;paint-order:stroke fill markers"
       inkscape:connector-curvature="0" />
    <ellipse
       style="display:inline;opacity:1;fill:#fcdaab;fill-opacity:1;stroke:none;stroke-width:0.89072251;stroke-linecap:round;stroke-linejoin:round;stroke-miterlimit:4;stroke-dasharray:none;stroke-dashoffset:0;stroke-opacity:1;paint-order:stroke fill markers"
       id="ellipse7168"
       cx="58.673508"
       cy="234.71841"
       rx="1.667484"
       ry="2.6969903" />
    <path
       style="display:inline;opacity:1;fill:#ffdbac;fill-opacity:1;stroke:none;stroke-width:0.1791501;stroke-linejoin:round;stroke-miterlimit:4;stroke-dasharray:none;stroke-opacity:1;paint-order:stroke fill markers"
       d="m 78.347144,233.6788 c 0,3.1151 -0.256678,7.91117 -2.366177,10.11387 -2.179201,2.2749 -4.051623,4.53133 -7.241723,4.53133 -3.1899,0 -4.885096,-1.89159 -7.140596,-4.09439 -2.2557,-2.2026 -2.827804,-7.56211 -2.827804,-10.67721 0,-3.115 -0.7103,-5.7331 1.5453,-7.9359 2.2557,-2.2026 5.3151,-3.4401 8.505,-3.4401 3.189901,0 5.446101,1.40286 7.7017,3.60546 2.2556,2.2028 1.8243,4.78194 1.8243,7.89694 z"
       id="path7170"
       inkscape:connector-curvature="0"
       sodipodi:nodetypes="scscsssss" />
    <g
       id="g7178"
       transform="matrix(0.02086767,0,0,0.01907823,65.602743,224.0405)"
       style="display:inline;opacity:1;stroke:none">
      <path
         style="opacity:1;fill:#f1c27d;fill-opacity:1;stroke:none;stroke-width:0.13236907;stroke-linejoin:round;stroke-miterlimit:4;stroke-dasharray:none;stroke-opacity:1;paint-order:stroke fill markers;filter:url(#filter1870-4-2)"
         d="m 248.03634,812.77838 c -18.66148,-42.59291 -59.50192,-87.57003 -102.21155,-87.69977 -43.01481,-0.13067 -88.16494,56.50809 -103.356892,87.69977 -20.64565,42.38903 48.467754,42.01203 105.233902,42.01203 56.76616,0 119.62971,2.02717 100.33454,-42.01203 z"
         id="path7174"
         inkscape:connector-curvature="0"
         sodipodi:nodetypes="sascs" />
      <path
         sodipodi:nodetypes="cccccccscsccccscccc"
         inkscape:connector-curvature="0"
         id="path7176"
         d="m 142.02089,721.6495 c -6.82822,0.0183 -13.60666,1.07369 -33.44608,10.11861 -19.839391,9.04494 -50.101368,44.2019 -61.902728,65.54917 -9.153413,16.55739 -0.666729,28.42858 16.521223,36.46358 3.856386,-7.99334 11.943257,-13.0783 20.818201,-13.09044 12.784928,6e-5 23.148944,10.36436 29.762874,18.23485 2.03727,2.4243 4.78199,4.17651 9.76827,6.33652 4.98629,2.15989 11.7886,2.33956 18.47824,2.33956 0.97652,0 1.95629,-0.0117 2.93603,-0.0164 0.97951,0.0117 1.95909,0.0164 2.93539,0.0164 6.68974,0 13.49196,-0.17967 18.47824,-2.33956 4.98631,-2.16001 7.73101,-3.91222 9.76827,-6.33652 6.61393,-7.87049 16.97792,-18.23475 29.76291,-18.23485 8.87494,0.0121 16.96179,5.0971 20.81816,13.09044 17.18796,-8.035 25.67468,-19.90619 16.52126,-36.46358 -11.80139,-21.34727 -42.06333,-56.50427 -61.90276,-65.54919 -19.83942,-9.04493 -26.61778,-10.10032 -33.44608,-10.11859 -0.97745,-0.004 -1.9561,0.0217 -2.93539,0.0708 -0.97952,-0.0493 -1.95836,-0.0734 -2.93603,-0.0708 z"
         style="opacity:1;fill:#ffdaa7;fill-opacity:1;stroke:none;stroke-width:0.1216767;stroke-linejoin:round;stroke-miterlimit:4;stroke-dasharray:none;stroke-opacity:1;paint-order:stroke fill markers" />
    </g>
    <circle
       transform="matrix(0.01674268,0,0,0.01570839,81.001444,227.5624)"
       r="157.09636"
       cy="761.67444"
       cx="-348.91934"
       id="circle7182"
       style="display:inline;opacity:1;fill:#fed1ab;fill-opacity:1;stroke:none;stroke-width:8.31443119;stroke-linejoin:round;stroke-miterlimit:4;stroke-dasharray:none;stroke-opacity:1;paint-order:stroke fill markers;filter:url(#filter2556-7)" />
    <g
       transform="matrix(1.0315612,0,0,0.99777053,52.184643,-1.6849943)"
       id="g7192"
       style="display:inline;opacity:1">
      <path
         style="opacity:1;fill:#ffffff;fill-opacity:1;stroke:none;stroke-width:0.05124756;stroke-linejoin:round;stroke-miterlimit:4;stroke-dasharray:none;stroke-opacity:1;paint-order:stroke fill markers"
         d="m 14.998345,245.83146 c -0.333831,0 -0.65399,0.11285 -0.890046,0.26605 -0.369414,0.24489 -0.803614,0.0288 -1.501707,-0.0998 1.048057,0.87745 2.298987,1.57588 3.310478,1.57588 1.011492,0 2.356806,-0.64051 3.369511,-1.57772 -0.698094,0.12861 -1.066629,0.34648 -1.436047,0.10159 -0.236051,-0.1532 -0.556211,-0.26605 -0.890045,-0.26605 -0.374665,1.8e-4 -0.792125,0.24372 -1.043419,0.24372 -0.251293,0 -0.544057,-0.24361 -0.918725,-0.24372 z"
         id="path7184"
         inkscape:connector-curvature="0"
         sodipodi:nodetypes="cccccccccc" />
      <path
         sodipodi:nodetypes="ccccccscc"
         inkscape:connector-curvature="0"
         id="path7186"
         d="m 15.003347,245.59564 c -0.333831,0 -0.653987,0.11285 -0.890041,0.26605 -0.367642,0.24372 -0.814349,0.26264 -1.506714,0.13604 1.333141,0.59112 5.59229,0.59861 6.684995,-0.002 -0.698095,0.12861 -1.066634,0.11066 -1.43605,-0.13423 -0.236054,-0.1532 -0.556209,-0.26606 -0.890041,-0.26606 -0.374667,1.2e-4 -0.7269,0.24372 -0.978193,0.24372 -0.251293,0 -0.609289,-0.2436 -0.983956,-0.24372 z"
         style="opacity:1;fill:url(#linearGradient7234);fill-opacity:1;stroke:none;stroke-width:0.1433038;stroke-linejoin:round;stroke-miterlimit:4;stroke-dasharray:none;stroke-opacity:1;paint-order:stroke fill markers" />
      <path
         sodipodi:nodetypes="ccccccc"
         inkscape:connector-curvature="0"
         id="path7188"
         d="m 19.286581,245.99671 c -0.100213,0.0713 -0.200203,0.143 -0.301534,0.21268 -1.077997,0.91844 -4.75445,0.9492 -6.090983,-0.0701 -0.104738,-0.0349 -0.202953,-0.08 -0.287472,-0.1415 1.018439,0.90916 2.356925,1.84481 3.33738,1.79905 1.010005,0.0471 2.329902,-0.85337 3.342609,-1.80084 z"
         style="opacity:1;fill:#f1c27d;fill-opacity:1;stroke:none;stroke-width:0.05152716;stroke-linejoin:round;stroke-miterlimit:4;stroke-dasharray:none;stroke-opacity:1;paint-order:stroke fill markers" />
      <path
         style="opacity:1;fill:#ffaaaa;fill-opacity:1;stroke:none;stroke-width:0.05152716;stroke-linejoin:round;stroke-miterlimit:4;stroke-dasharray:none;stroke-opacity:1;paint-order:stroke fill markers"
         d="m 19.286581,245.99671 c -0.100213,0.0713 -0.200203,0.143 -0.301534,0.21268 -1.077997,0.91844 -4.75445,0.9492 -6.090983,-0.0701 -0.104738,-0.0349 -0.202953,-0.08 -0.287472,-0.1415 1.018439,0.90916 2.356925,1.72788 3.33738,1.68212 1.010005,0.0471 2.329902,-0.73644 3.342609,-1.68391 z"
         id="path7190"
         inkscape:connector-curvature="0"
         sodipodi:nodetypes="ccccccc" />
    </g>
    <g
       id="g7232"
       transform="matrix(0.01419136,0,0,0.01418587,91.767763,230.14031)"
       style="display:inline;opacity:1;stroke:none">
      <path
         style="opacity:1;fill:#f1c27d;fill-opacity:1;stroke:none;stroke-width:5.38320255;stroke-linejoin:round;stroke-miterlimit:4;stroke-dasharray:none;stroke-opacity:1;paint-order:stroke fill markers"
         d="m -1793.6664,113.30361 c 19.6172,20.28949 26.4584,86.93452 26.4584,86.93452 -102.012,-33.72928 -225.0997,-69.30054 -318.1756,-68.32419 -67.0561,0.70341 -117.7048,30.89128 -137.5852,44.84461 -19.9535,-39.90685 319.3388,-177.18714836 429.3024,-63.45494 z"
         id="path7194"
         inkscape:connector-curvature="0"
         sodipodi:nodetypes="scscs" />
      <path
         style="opacity:1;fill:#f1c27d;fill-opacity:1;stroke:none;stroke-width:5.10419369;stroke-linejoin:round;stroke-miterlimit:4;stroke-dasharray:none;stroke-opacity:1;paint-order:stroke fill markers"
         d="m -1746.1198,324.79348 c 47.5266,51.16542 -86.0903,121.15265 -196.9506,121.15265 -110.8604,0 -200.7304,-56.61105 -200.7304,-126.44432 0,-69.83326 90.4894,-138.14637 200.7304,-126.44431 102.4915,10.87945 167.5664,100.10212 196.9506,131.73598 z"
         id="path7196"
         inkscape:connector-curvature="0"
         sodipodi:nodetypes="sssss" />
      <path
         style="fill:#000000;stroke:none;stroke-width:0.1182288px;stroke-linecap:butt;stroke-linejoin:miter;stroke-opacity:1"
         d="m -2073.2184,200.2317 c -59.8819,88.05079 -0.1578,119.24136 6.9121,117.70257 l 23.4267,-16.25011 c -21.2368,-21.01225 -32.7121,-30.33476 -30.3388,-101.45246 z"
         id="path7198"
         inkscape:connector-curvature="0"
         sodipodi:nodetypes="cccc" />
      <path
         style="fill:#000000;stroke:none;stroke-width:0.1182288px;stroke-linecap:butt;stroke-linejoin:miter;stroke-opacity:1"
         d="m -2184.6521,269.20111 c 45.5762,95.04846 107.0766,66.9418 109.6555,60.68333 l -1.4763,-26.98719 c -30.7851,4.43434 -45.594,7.96883 -108.1792,-33.69614 z"
         id="path7200"
         inkscape:connector-curvature="0"
         sodipodi:nodetypes="cccc" />
      <path
         sodipodi:nodetypes="cccc"
         inkscape:connector-curvature="0"
         id="path7202"
         d="m -2143.4038,220.65399 c -4.0868,103.84672 64.5585,103.33875 69.8462,98.74848 l 11.4716,-24.8676 c -29.792,-8.41162 -44.7878,-11.19754 -81.3178,-73.88088 z"
         style="fill:#000000;stroke:none;stroke-width:0.1182288px;stroke-linecap:butt;stroke-linejoin:miter;stroke-opacity:1" />
      <path
         sodipodi:nodetypes="cccc"
         inkscape:connector-curvature="0"
         id="path7204"
         d="m -2032.7558,199.77792 c -85.3335,63.69448 -39.0543,112.6645 -31.8693,113.5166 l 27.4467,-7.71735 c -13.219,-26.79135 -21.0246,-39.34776 4.4226,-105.79925 z"
         style="fill:#000000;stroke:none;stroke-width:0.1182288px;stroke-linecap:butt;stroke-linejoin:miter;stroke-opacity:1" />
      <path
         sodipodi:nodetypes="cccc"
         inkscape:connector-curvature="0"
         id="path7206"
         d="m -2108.6899,378.61114 c 21.9765,-104.19129 89.2412,-77.17565 93.0315,-71.01255 l 4.5206,28.15035 c -29.8657,-0.74764 -41.8913,6.18255 -97.5521,42.8622 z"
         style="fill:#000000;stroke:none;stroke-width:0.1182288px;stroke-linecap:butt;stroke-linejoin:miter;stroke-opacity:1" />
      <path
         style="fill:#000000;stroke:none;stroke-width:0.1182288px;stroke-linecap:butt;stroke-linejoin:miter;stroke-opacity:1"
         d="m -2125.2289,372.14787 c 15.1969,-105.39376 84.0669,-82.78177 88.2476,-76.87651 l 6.3304,27.79934 c -29.8515,1.18407 -41.4041,8.87696 -94.578,49.07717 z"
         id="path7208"
         inkscape:connector-curvature="0"
         sodipodi:nodetypes="cccc" />
      <path
         style="opacity:1;fill:#000000;fill-opacity:1;stroke:none;stroke-width:5.35382175;stroke-linejoin:round;stroke-miterlimit:4;stroke-dasharray:none;stroke-opacity:1;paint-order:stroke fill markers;filter:url(#filter1926-2)"
         d="m -1751.8633,349.3367 c -35.4733,50.74989 -101.5784,75.21678 -202.6741,75.21678 -101.0957,0 -180.615,-68.26577 -162.329,-120.67099 19.2409,-55.14172 97.6494,-104.43186 196.3706,-83.18044 101.3116,21.80904 141.3444,88.20554 168.6325,128.63465 z"
         id="path7210"
         inkscape:connector-curvature="0"
         sodipodi:nodetypes="csssc" />
      <path
         sodipodi:nodetypes="sscsccs"
         style="opacity:0.98999999;fill:#ffffff;fill-opacity:1;stroke:none;stroke-width:5.19402456;stroke-linejoin:round;stroke-miterlimit:4;stroke-dasharray:none;stroke-opacity:1;paint-order:stroke fill markers"
         d="m -1950.9919,226.79732 c -74.992,0.12277 -131.6014,40.23167 -147.4558,84.24498 -14.287,39.66189 31.9968,88.836 101.4303,107.52608 11.7412,1.91267 23.9708,2.95055 36.5395,2.95055 99.6513,0 165.215,-22.44756 199.8051,-71.14633 -25.5877,-36.72244 -62.7471,-97.90791 -152.0926,-120.25665 -13.1694,-2.28333 -25.945,-3.33874 -38.2265,-3.31863 z"
         id="path7212"
         inkscape:connector-curvature="0" />
      <circle
         cy="323.94971"
         cx="-1950.3213"
         id="circle7214"
         style="opacity:1;fill:#80b78a;fill-opacity:1;stroke:none;stroke-width:0.0750456;stroke-linejoin:round;stroke-miterlimit:4;stroke-dasharray:none;stroke-opacity:1;paint-order:stroke fill markers"
         r="95.581955" />
      <path
         sodipodi:type="star"
         style="opacity:1;fill:url(#linearGradient11524);fill-opacity:1;stroke:none;stroke-width:0.14517134;stroke-linejoin:round;stroke-miterlimit:4;stroke-dasharray:none;stroke-opacity:1;paint-order:stroke fill markers;filter:url(#filter1717-7)"
         id="path7216"
         sodipodi:sides="21"
         sodipodi:cx="-1949.2515"
         sodipodi:cy="322.47253"
         sodipodi:r1="47.919106"
         sodipodi:r2="81.218826"
         sodipodi:arg1="0.52359878"
         sodipodi:arg2="0.67319843"
         inkscape:flatsided="false"
         inkscape:rounded="0"
         inkscape:randomized="0"
         d="m -1907.7523,346.43209 22.0003,26.67955 -30.9062,-15.51192 13.1589,31.97896 -24.9608,-23.93252 3.1483,34.43688 -16.7977,-30.22662 -7.142,33.83494 -7.1419,-33.83494 -16.7977,30.22662 3.1483,-34.43688 -24.9609,23.93252 13.159,-31.97896 -30.9062,15.51192 22.0003,-26.67955 -34.1053,5.71301 28.8868,-19.00956 -34.2741,-4.59352 33.2066,-9.65049 -31.3974,-14.49189 34.5759,0.56608 -25.7309,-23.1026 32.8729,10.73234 -17.7782,-29.66054 28.249,19.94499 -8.2457,-33.58301 21.1151,27.38544 2.0194,-34.52148 12.105,32.39257 12.1051,-32.39257 2.0193,34.52148 21.1152,-27.38544 -8.2458,33.58301 28.2491,-19.94499 -17.7782,29.66054 32.8729,-10.73234 -25.7309,23.1026 34.5758,-0.56607 -31.3974,14.49189 33.2067,9.65049 -34.2741,4.59351 28.8868,19.00956 z"
         inkscape:transform-center-x="5.218182"
         inkscape:transform-center-y="2.6234569" />
      <circle
         r="57.830357"
         cy="322.3244"
         cx="-1949.9791"
         id="circle7218"
         style="opacity:0.58600003;fill:#ffd42a;fill-opacity:1;stroke:none;stroke-width:0.26499999;stroke-linejoin:round;stroke-miterlimit:4;stroke-dasharray:none;stroke-opacity:1;paint-order:stroke fill markers;filter:url(#filter1653-0)" />
      <circle
         cy="323.94971"
         cx="-1950.3213"
         id="circle7220"
         style="opacity:0.98999999;fill:#000000;fill-opacity:1;stroke:none;stroke-width:0.03868802;stroke-linejoin:round;stroke-miterlimit:4;stroke-dasharray:none;stroke-opacity:1;paint-order:stroke fill markers"
         r="49.27507" />
      <path
         style="opacity:0.36300001;fill:#000000;fill-opacity:1;stroke:none;stroke-width:7.98358202;stroke-linejoin:round;stroke-miterlimit:4;stroke-dasharray:none;stroke-opacity:1;paint-order:stroke fill markers;filter:url(#filter1677-9)"
         d="m -1950.3212,228.36764 c -40.5068,0.0512 -76.5826,25.62958 -90.0357,63.83709 50.6141,-35.81908 95.3966,-28.24952 180.3639,0.84874 -13.1999,-38.64385 -49.4922,-64.63347 -90.3282,-64.68583 z"
         id="path7222"
         inkscape:connector-curvature="0"
         sodipodi:nodetypes="cccc" />
      <circle
         style="opacity:0.98999999;fill:#ffffff;fill-opacity:1;stroke:none;stroke-width:0.0907073;stroke-linejoin:round;stroke-miterlimit:4;stroke-dasharray:none;stroke-opacity:1;paint-order:stroke fill markers"
         id="circle7224"
         cx="-1994.7261"
         cy="282.77756"
         r="23.802254" />
      <path
         style="opacity:0.30199998;fill:#ffffff;fill-opacity:1;stroke:none;stroke-width:7.98358202;stroke-linejoin:round;stroke-miterlimit:4;stroke-dasharray:none;stroke-opacity:1;paint-order:stroke fill markers;filter:url(#filter1705-3)"
         d="m -1861.7499,357.8068 c -46.5791,45.02884 -113.5437,50.00633 -176.5669,3.21492 14.9039,35.41846 49.5691,58.46801 87.9956,58.5099 33.2451,-0.0487 64.0769,-17.36848 81.4146,-45.73475 2.8336,-5.03684 5.2401,-10.37901 7.1567,-15.99007 z"
         id="path7226"
         inkscape:connector-curvature="0"
         sodipodi:nodetypes="ccccc" />
      <circle
         r="9.3395777"
         cy="319.08032"
         cx="-1973.7572"
         id="circle7228"
         style="opacity:0.98999999;fill:#ffffff;fill-opacity:1;stroke:none;stroke-width:0.03559192;stroke-linejoin:round;stroke-miterlimit:4;stroke-dasharray:none;stroke-opacity:1;paint-order:stroke fill markers" />
      <path
         style="opacity:1;fill:#ffbd00;fill-opacity:1;stroke:none;stroke-width:5.38320255;stroke-linejoin:round;stroke-miterlimit:4;stroke-dasharray:none;stroke-opacity:1;paint-order:stroke fill markers"
         d="m -1782.6179,111.1432 c 22.6076,16.89345 13.898,73.97588 13.898,73.97588 -115.5878,-45.34748 -237.2601,-74.29309 -316.8063,-71.86807 -62.9276,1.91838 -122.9982,57.42046 -143.9874,58.59097 1.7366,-78.524294 302.7935,-168.3786031 446.8957,-60.69878 z"
         id="path7230"
         inkscape:connector-curvature="0"
         sodipodi:nodetypes="scscs" />
    </g>
    <g
       style="display:inline;opacity:1;stroke:none"
       transform="matrix(-0.01419136,0,0,0.01418587,45.48848,230.14031)"
       id="g7276">
      <path
         sodipodi:nodetypes="scscs"
         inkscape:connector-curvature="0"
         id="path7238"
         d="m -1793.6664,113.30361 c 19.6172,20.28949 26.4584,86.93452 26.4584,86.93452 -102.012,-33.72928 -225.0997,-69.30054 -318.1756,-68.32419 -67.0561,0.70341 -117.7048,30.89128 -137.5852,44.84461 -19.9535,-39.90685 319.3388,-177.18714836 429.3024,-63.45494 z"
         style="opacity:1;fill:#f1c27d;fill-opacity:1;stroke:none;stroke-width:5.38320255;stroke-linejoin:round;stroke-miterlimit:4;stroke-dasharray:none;stroke-opacity:1;paint-order:stroke fill markers" />
      <path
         sodipodi:nodetypes="sssss"
         inkscape:connector-curvature="0"
         id="path7240"
         d="m -1746.1198,324.79348 c 47.5266,51.16542 -86.0903,121.15265 -196.9506,121.15265 -110.8604,0 -200.7304,-56.61105 -200.7304,-126.44432 0,-69.83326 90.4894,-138.14637 200.7304,-126.44431 102.4915,10.87945 167.5664,100.10212 196.9506,131.73598 z"
         style="opacity:1;fill:#f1c27d;fill-opacity:1;stroke:none;stroke-width:5.10419369;stroke-linejoin:round;stroke-miterlimit:4;stroke-dasharray:none;stroke-opacity:1;paint-order:stroke fill markers" />
      <path
         sodipodi:nodetypes="cccc"
         inkscape:connector-curvature="0"
         id="path7242"
         d="m -2073.2184,200.2317 c -59.8819,88.05079 -0.1578,119.24136 6.9121,117.70257 l 23.4267,-16.25011 c -21.2368,-21.01225 -32.7121,-30.33476 -30.3388,-101.45246 z"
         style="fill:#000000;stroke:none;stroke-width:0.1182288px;stroke-linecap:butt;stroke-linejoin:miter;stroke-opacity:1" />
      <path
         sodipodi:nodetypes="cccc"
         inkscape:connector-curvature="0"
         id="path7244"
         d="m -2184.6521,269.20111 c 45.5762,95.04846 107.0766,66.9418 109.6555,60.68333 l -1.4763,-26.98719 c -30.7851,4.43434 -45.594,7.96883 -108.1792,-33.69614 z"
         style="fill:#000000;stroke:none;stroke-width:0.1182288px;stroke-linecap:butt;stroke-linejoin:miter;stroke-opacity:1" />
      <path
         style="fill:#000000;stroke:none;stroke-width:0.1182288px;stroke-linecap:butt;stroke-linejoin:miter;stroke-opacity:1"
         d="m -2143.4038,220.65399 c -4.0868,103.84672 64.5585,103.33875 69.8462,98.74848 l 11.4716,-24.8676 c -29.792,-8.41162 -44.7878,-11.19754 -81.3178,-73.88088 z"
         id="path7246"
         inkscape:connector-curvature="0"
         sodipodi:nodetypes="cccc" />
      <path
         style="fill:#000000;stroke:none;stroke-width:0.1182288px;stroke-linecap:butt;stroke-linejoin:miter;stroke-opacity:1"
         d="m -2032.7558,199.77792 c -85.3335,63.69448 -39.0543,112.6645 -31.8693,113.5166 l 27.4467,-7.71735 c -13.219,-26.79135 -21.0246,-39.34776 4.4226,-105.79925 z"
         id="path7248"
         inkscape:connector-curvature="0"
         sodipodi:nodetypes="cccc" />
      <path
         style="fill:#000000;stroke:none;stroke-width:0.1182288px;stroke-linecap:butt;stroke-linejoin:miter;stroke-opacity:1"
         d="m -2108.6899,378.61114 c 21.9765,-104.19129 89.2412,-77.17565 93.0315,-71.01255 l 4.5206,28.15035 c -29.8657,-0.74764 -41.8913,6.18255 -97.5521,42.8622 z"
         id="path7250"
         inkscape:connector-curvature="0"
         sodipodi:nodetypes="cccc" />
      <path
         sodipodi:nodetypes="cccc"
         inkscape:connector-curvature="0"
         id="path7252"
         d="m -2125.2289,372.14787 c 15.1969,-105.39376 84.0669,-82.78177 88.2476,-76.87651 l 6.3304,27.79934 c -29.8515,1.18407 -41.4041,8.87696 -94.578,49.07717 z"
         style="fill:#000000;stroke:none;stroke-width:0.1182288px;stroke-linecap:butt;stroke-linejoin:miter;stroke-opacity:1" />
      <path
         sodipodi:nodetypes="csssc"
         inkscape:connector-curvature="0"
         id="path7254"
         d="m -1751.8633,349.3367 c -35.4733,50.74989 -101.5784,75.21678 -202.6741,75.21678 -101.0957,0 -180.615,-68.26577 -162.329,-120.67099 19.2409,-55.14172 97.6494,-104.43186 196.3706,-83.18044 101.3116,21.80904 141.3444,88.20554 168.6325,128.63465 z"
         style="opacity:1;fill:#000000;fill-opacity:1;stroke:none;stroke-width:5.35382175;stroke-linejoin:round;stroke-miterlimit:4;stroke-dasharray:none;stroke-opacity:1;paint-order:stroke fill markers;filter:url(#filter1926-2)" />
      <path
         inkscape:connector-curvature="0"
         id="path7256"
         d="m -1950.9919,226.79732 c -74.992,0.12277 -131.6014,40.23167 -147.4558,84.24498 -14.287,39.66189 31.9968,88.836 101.4303,107.52608 11.7412,1.91267 23.9708,2.95055 36.5395,2.95055 99.6513,0 165.215,-22.44756 199.8051,-71.14633 -25.5877,-36.72244 -62.7471,-97.90791 -152.0926,-120.25665 -13.1694,-2.28333 -25.945,-3.33874 -38.2265,-3.31863 z"
         style="opacity:0.98999999;fill:#ffffff;fill-opacity:1;stroke:none;stroke-width:5.19402456;stroke-linejoin:round;stroke-miterlimit:4;stroke-dasharray:none;stroke-opacity:1;paint-order:stroke fill markers"
         sodipodi:nodetypes="sscsccs" />
      <circle
         r="95.581955"
         style="opacity:1;fill:#80b78a;fill-opacity:1;stroke:none;stroke-width:0.0750456;stroke-linejoin:round;stroke-miterlimit:4;stroke-dasharray:none;stroke-opacity:1;paint-order:stroke fill markers"
         id="circle7258"
         cx="-1950.3213"
         cy="323.94971" />
      <path
         inkscape:transform-center-y="2.6234569"
         inkscape:transform-center-x="5.218182"
         d="m -1907.7523,346.43209 22.0003,26.67955 -30.9062,-15.51192 13.1589,31.97896 -24.9608,-23.93252 3.1483,34.43688 -16.7977,-30.22662 -7.142,33.83494 -7.1419,-33.83494 -16.7977,30.22662 3.1483,-34.43688 -24.9609,23.93252 13.159,-31.97896 -30.9062,15.51192 22.0003,-26.67955 -34.1053,5.71301 28.8868,-19.00956 -34.2741,-4.59352 33.2066,-9.65049 -31.3974,-14.49189 34.5759,0.56608 -25.7309,-23.1026 32.8729,10.73234 -17.7782,-29.66054 28.249,19.94499 -8.2457,-33.58301 21.1151,27.38544 2.0194,-34.52148 12.105,32.39257 12.1051,-32.39257 2.0193,34.52148 21.1152,-27.38544 -8.2458,33.58301 28.2491,-19.94499 -17.7782,29.66054 32.8729,-10.73234 -25.7309,23.1026 34.5758,-0.56607 -31.3974,14.49189 33.2067,9.65049 -34.2741,4.59351 28.8868,19.00956 z"
         inkscape:randomized="0"
         inkscape:rounded="0"
         inkscape:flatsided="false"
         sodipodi:arg2="0.67319843"
         sodipodi:arg1="0.52359878"
         sodipodi:r2="81.218826"
         sodipodi:r1="47.919106"
         sodipodi:cy="322.47253"
         sodipodi:cx="-1949.2515"
         sodipodi:sides="21"
         id="path7260"
         style="opacity:1;fill:url(#linearGradient7236);fill-opacity:1;stroke:none;stroke-width:0.14517134;stroke-linejoin:round;stroke-miterlimit:4;stroke-dasharray:none;stroke-opacity:1;paint-order:stroke fill markers;filter:url(#filter1717-7)"
         sodipodi:type="star" />
      <circle
         style="opacity:0.58600003;fill:#ffd42a;fill-opacity:1;stroke:none;stroke-width:0.26499999;stroke-linejoin:round;stroke-miterlimit:4;stroke-dasharray:none;stroke-opacity:1;paint-order:stroke fill markers;filter:url(#filter1653-0)"
         id="circle7262"
         cx="-1949.9791"
         cy="322.3244"
         r="57.830357" />
      <circle
         r="49.27507"
         style="opacity:0.98999999;fill:#000000;fill-opacity:1;stroke:none;stroke-width:0.03868802;stroke-linejoin:round;stroke-miterlimit:4;stroke-dasharray:none;stroke-opacity:1;paint-order:stroke fill markers"
         id="circle7264"
         cx="-1950.3213"
         cy="323.94971" />
      <path
         sodipodi:nodetypes="cccc"
         inkscape:connector-curvature="0"
         id="path7266"
         d="m -1950.3212,228.36764 c -40.5068,0.0512 -76.5826,25.62958 -90.0357,63.83709 50.6141,-35.81908 95.3966,-28.24952 180.3639,0.84874 -13.1999,-38.64385 -49.4922,-64.63347 -90.3282,-64.68583 z"
         style="opacity:0.36300001;fill:#000000;fill-opacity:1;stroke:none;stroke-width:7.98358202;stroke-linejoin:round;stroke-miterlimit:4;stroke-dasharray:none;stroke-opacity:1;paint-order:stroke fill markers;filter:url(#filter1677-9)" />
      <circle
         r="23.802254"
         cy="282.77756"
         cx="-1994.7261"
         id="circle7268"
         style="opacity:0.98999999;fill:#ffffff;fill-opacity:1;stroke:none;stroke-width:0.0907073;stroke-linejoin:round;stroke-miterlimit:4;stroke-dasharray:none;stroke-opacity:1;paint-order:stroke fill markers" />
      <path
         sodipodi:nodetypes="ccccc"
         inkscape:connector-curvature="0"
         id="path7270"
         d="m -1861.7499,357.8068 c -46.5791,45.02884 -113.5437,50.00633 -176.5669,3.21492 14.9039,35.41846 49.5691,58.46801 87.9956,58.5099 33.2451,-0.0487 64.0769,-17.36848 81.4146,-45.73475 2.8336,-5.03684 5.2401,-10.37901 7.1567,-15.99007 z"
         style="opacity:0.30199998;fill:#ffffff;fill-opacity:1;stroke:none;stroke-width:7.98358202;stroke-linejoin:round;stroke-miterlimit:4;stroke-dasharray:none;stroke-opacity:1;paint-order:stroke fill markers;filter:url(#filter1705-3)" />
      <circle
         style="opacity:0.98999999;fill:#ffffff;fill-opacity:1;stroke:none;stroke-width:0.03559192;stroke-linejoin:round;stroke-miterlimit:4;stroke-dasharray:none;stroke-opacity:1;paint-order:stroke fill markers"
         id="circle7272"
         cx="-1973.7572"
         cy="319.08032"
         r="9.3395777" />
      <path
         sodipodi:nodetypes="scscs"
         inkscape:connector-curvature="0"
         id="path7274"
         d="m -1782.6179,111.1432 c 22.6076,16.89345 13.898,73.97588 13.898,73.97588 -115.5878,-45.34748 -237.2601,-74.29309 -316.8063,-71.86807 -62.9276,1.91838 -122.9982,57.42046 -143.9874,58.59097 1.7366,-78.524294 302.7935,-168.3786031 446.8957,-60.69878 z"
         style="opacity:1;fill:#ffbd00;fill-opacity:1;stroke:none;stroke-width:5.38320255;stroke-linejoin:round;stroke-miterlimit:4;stroke-dasharray:none;stroke-opacity:1;paint-order:stroke fill markers" />
    </g>
    <path
       inkscape:connector-curvature="0"
       style="display:inline;opacity:1;fill:#ffcc00;stroke:none;stroke-width:0.26552805px;stroke-linecap:butt;stroke-linejoin:miter;stroke-opacity:1"
       d="m 69.959098,220.72285 c -0.61053,-0.005 -1.14732,0.0247 -1.55894,0.22716 v -0.0389 c -6.24979,-1.22791 -12.02678,5.36024 -11.69412,12.04729 0.75986,1.30859 -1.94282,1.93949 -1.54545,2.09052 1.46351,-0.13207 2.96517,-0.57834 4.43928,-1.26281 -0.75195,2.1634 -2.57199,3.06074 -2.53808,4.47404 0.22496,1.46211 0.2531,2.44628 0.2531,2.44628 0.099,-1.1994 0.22594,-2.17287 0.66486,-2.73099 1.85437,-2.35813 3.19802,-2.9074 2.82744,-4.80545 3.03276,-1.69085 5.8651,-4.33555 7.8948,-7.26986 0.0797,0.0213 0.15962,0.0424 0.24529,0.0566 0.14081,0.51633 4.08395,6.71232 7.41665,6.99397 0.847799,0.0716 1.448239,0.40809 1.87426,0.86919 -0.423759,2.13059 -0.917011,5.34656 -0.20797,6.14811 1.079611,1.22042 3.004079,1.66638 1.478539,3.30925 2.370431,-0.86839 -0.0705,-2.9806 -0.915328,-4.0602 -0.518332,-0.66233 -0.37347,-3.27125 -0.184621,-5.19336 1.053009,1.37733 0.818361,3.57374 0.818361,3.57374 1.052018,-1.06022 1.967399,-2.25669 1.971228,-4.36513 0,0 -2.45215,-9.73674 -6.019498,-11.23879 -1.860791,-0.87566 -3.381661,-1.23632 -4.586071,-1.25918 h -5.29e-4 c -0.217969,-0.004 -0.42973,-0.01 -0.63323,-0.0114 z"
       id="path2228" />
    <path
       id="path2230"
       d="m 69.972458,220.14163 c -0.60836,-0.005 -1.14324,0.0246 -1.5534,0.22634 v -0.0387 c -6.22755,-1.22354 -11.98398,5.34117 -11.65251,12.00443 0.75716,1.30393 -1.93591,1.93259 -1.53996,2.08308 1.45831,-0.1316 2.95463,-0.57628 4.42349,-1.25832 -0.74927,2.1557 -2.56283,3.04986 -2.52904,4.45812 0.22415,1.45691 0.2522,2.43758 0.2522,2.43758 0.0987,-1.19513 0.22513,-2.16514 0.66249,-2.72128 1.84777,-2.34974 3.18664,-2.89705 2.81739,-4.78834 3.02196,-1.68484 5.84422,-4.32013 7.86669,-7.244 0.0794,0.0213 0.15907,0.0423 0.24443,0.0563 0.1403,0.5145 4.069419,6.68844 7.39026,6.96908 0.844791,0.0714 1.44309,0.40665 1.86759,0.8661 -0.422251,2.12301 -0.913741,5.32755 -0.207229,6.12624 1.075769,1.21608 2.99339,1.66045 1.473279,3.29747 2.361991,-0.86529 -0.0702,-2.96999 -0.912071,-4.04575 -0.516488,-0.65997 -0.372129,-3.25961 -0.18396,-5.17488 1.049261,1.37242 0.815441,3.56103 0.815441,3.56103 1.048279,-1.05646 1.960409,-2.24866 1.964219,-4.34961 0,0 -2.44343,-9.70209 -5.998078,-11.1988 -1.854171,-0.87254 -3.36963,-1.23192 -4.569751,-1.2547 h -5.29e-4 c -0.217199,-0.004 -0.42821,-0.01 -0.63098,-0.0114 z"
       style="display:inline;opacity:1;fill:#ffd42a;stroke:none;stroke-width:0.26458332px;stroke-linecap:butt;stroke-linejoin:miter;stroke-opacity:1"
       inkscape:connector-curvature="0" />
    <g
       style="display:inline"
       id="g6677"
       transform="translate(21.258201,3.8651757)">
      <g
         transform="matrix(0.59077566,0,0,0.59077566,56.911021,65.914168)"
         id="g1195">
        <path
           style="opacity:1;fill:#ffcc00;fill-opacity:1;stroke:#000000;stroke-width:0.82999998;stroke-linecap:round;stroke-linejoin:round;stroke-miterlimit:4;stroke-dasharray:none;stroke-dashoffset:0;stroke-opacity:1;paint-order:stroke fill markers"
           d="m -22.932107,224.56625 v 5.1e-4 c -1.06412,2.3e-4 -1.92659,0.8629 -1.926497,1.92702 9.19e-4,0.40583 0.130234,0.80146 0.36897,1.12964 -0.275218,0.43314 -0.422441,0.93531 -0.423747,1.44849 -1.81e-4,1.49916 1.900629,2.72613 3.399792,2.72594 0.03585,-0.001 0.07171,-0.003 0.107487,-0.006 l -0.06201,-0.63614 c -1.18823,-0.0722 -2.609801,-1.03249 -2.60966,-2.19934 0.0011,-0.4154 0.119835,-0.82245 0.342615,-1.17306 -0.193249,-0.26566 -0.297946,-0.58513 -0.29869,-0.91364 -7.5e-5,-0.86137 0.698225,-1.55992 1.559595,-1.56011 v -5.2e-4 c 0.150636,1.8e-4 0.299346,0.0244 0.442867,0.0672 l -0.05995,-0.61598 c -0.261946,-0.12742 -0.549484,-0.19396 -0.840776,-0.1943 z"
           id="path1162"
           inkscape:connector-curvature="0" />
        <path
           inkscape:connector-curvature="0"
           id="path1178"
           d="m -10.578237,224.56625 v 5.1e-4 c 1.0641207,2.3e-4 1.926591,0.8629 1.926498,1.92702 -9.19e-4,0.40583 -0.130234,0.80146 -0.36897,1.12964 0.275218,0.43314 0.422441,0.93531 0.423747,1.44849 1.81e-4,1.49916 -1.900629,2.72613 -3.399793,2.72594 -0.03585,-0.001 -0.07171,-0.003 -0.107487,-0.006 l 0.06201,-0.63614 c 1.18823,-0.0722 2.609802,-1.03249 2.609661,-2.19934 -0.0011,-0.4154 -0.1198353,-0.82245 -0.3426153,-1.17306 0.193249,-0.26566 0.297946,-0.58513 0.29869,-0.91364 7.5e-5,-0.86137 -0.6982247,-1.55992 -1.5595957,-1.56011 v -5.2e-4 c -0.150636,1.8e-4 -0.299346,0.0244 -0.442867,0.0672 l 0.05995,-0.61598 c 0.261946,-0.12742 0.549484,-0.19396 0.840776,-0.1943 z"
           style="opacity:1;fill:#ffcc00;fill-opacity:1;stroke:#000000;stroke-width:0.82999998;stroke-linecap:round;stroke-linejoin:round;stroke-miterlimit:4;stroke-dasharray:none;stroke-dashoffset:0;stroke-opacity:1;paint-order:stroke fill markers" />
        <rect
           style="opacity:1;fill:#ffdd55;fill-opacity:1;stroke:#000000;stroke-width:0.82999998;stroke-linecap:round;stroke-linejoin:round;stroke-miterlimit:4;stroke-dasharray:none;stroke-dashoffset:0;stroke-opacity:1;paint-order:stroke fill markers"
           id="rect1180"
           width="2.0551262"
           height="5.4122081"
           x="-17.782736"
           y="232.68127" />
        <path
           style="opacity:1;fill:#ffcc00;fill-opacity:1;stroke:#000000;stroke-width:3.13700795;stroke-linecap:round;stroke-linejoin:round;stroke-miterlimit:4;stroke-dasharray:none;stroke-dashoffset:0;stroke-opacity:1;paint-order:stroke fill markers"
           d="M -53.394531,62.626953 C -53.684285,85.854267 -43.5457,105.03011 -29.822266,104.99609 -16.098832,105.02861 -5.9602461,85.854278 -6.25,62.626953 H -29.822266 Z"
           id="path1148"
           inkscape:connector-curvature="0"
           sodipodi:nodetypes="ccccc"
           transform="matrix(0.26458333,0,0,0.26458333,-8.8646981,206.85064)" />
        <rect
           style="opacity:1;fill:#ffcc00;fill-opacity:1;stroke:#000000;stroke-width:0.6513555;stroke-linecap:round;stroke-linejoin:round;stroke-miterlimit:4;stroke-dasharray:none;stroke-dashoffset:0;stroke-opacity:1;paint-order:stroke fill markers"
           id="rect1182"
           width="5.2062454"
           height="2.2376201"
           x="-19.358295"
           y="237.52974" />
        <path
           style="opacity:1;fill:#ffeeaa;fill-opacity:1;stroke:none;stroke-width:0.71568859;stroke-linecap:round;stroke-linejoin:round;stroke-miterlimit:4;stroke-dasharray:none;stroke-dashoffset:0;stroke-opacity:1;paint-order:stroke fill markers"
           d="m -22.009727,224.35579 c -0.04352,3.48924 0.944726,6.57686 2.518495,8.27734 -1.148923,-1.8043 -1.936211,-4.79912 -2.138403,-8.27734 z m 9.822212,0 c -0.249601,4.29379 -1.391122,7.85203 -3.002852,9.34186 2.371838,-1.10238 3.991832,-4.89597 3.93637,-9.34186 z"
           id="path1184"
           inkscape:connector-curvature="0" />
      </g>
      <g
         transform="matrix(0.52254348,-0.52254348,0.52254348,0.52254348,-68.825003,40.76672)"
         id="g1241">
        <rect
           style="opacity:1;fill:#333333;fill-opacity:1;stroke:#000000;stroke-width:0.12027856;stroke-linecap:round;stroke-linejoin:round;stroke-miterlimit:4;stroke-dasharray:none;stroke-dashoffset:0;stroke-opacity:1;paint-order:stroke fill markers"
           id="rect1231"
           width="1.2585188"
           height="5.2660527"
           x="-6.8428888"
           y="269.04669"
           transform="rotate(15)"
           ry="0.62925941" />
        <rect
           transform="matrix(-0.96592583,0.25881905,0.25881905,0.96592583,0,0)"
           y="231.16678"
           x="134.52687"
           height="5.2660527"
           width="1.2585188"
           id="rect1233"
           style="opacity:1;fill:#333333;fill-opacity:1;stroke:#000000;stroke-width:0.12027856;stroke-linecap:round;stroke-linejoin:round;stroke-miterlimit:4;stroke-dasharray:none;stroke-dashoffset:0;stroke-opacity:1;paint-order:stroke fill markers"
           ry="0.62925941" />
        <circle
           style="opacity:1;fill:#87aade;fill-opacity:1;stroke:#000000;stroke-width:0.38118458;stroke-linecap:round;stroke-linejoin:round;stroke-miterlimit:4;stroke-dasharray:none;stroke-dashoffset:0;stroke-opacity:1;paint-order:stroke fill markers"
           id="path1213"
           cx="-73.178368"
           cy="255.83321"
           r="5.400816" />
        <circle
           r="3.9585524"
           cy="255.83321"
           cx="-73.178368"
           id="circle1215"
           style="opacity:1;fill:#ffffff;fill-opacity:1;stroke:#000000;stroke-width:0.27939096;stroke-linecap:round;stroke-linejoin:round;stroke-miterlimit:4;stroke-dasharray:none;stroke-dashoffset:0;stroke-opacity:1;paint-order:stroke fill markers" />
        <circle
           style="opacity:1;fill:#ffcc00;fill-opacity:1;stroke:#000000;stroke-width:0.25434062;stroke-linecap:round;stroke-linejoin:round;stroke-miterlimit:4;stroke-dasharray:none;stroke-dashoffset:0;stroke-opacity:1;paint-order:stroke fill markers"
           id="path1225"
           cx="-73.178368"
           cy="255.92528"
           r="2.3955925" />
        <path
           inkscape:connector-curvature="0"
           id="path1221"
           d="m -65.71864,251.57607 1.113396,0.56164 -1.726751,-0.0414 0.76945,0.46949 -1.238836,-0.15136 -6.390346,3.52935 6.326448,-3.67018 0.435583,-1.26062 0.02186,0.90111 0.827533,-1.51611 -0.0703,1.24505"
           style="fill:#000000;stroke:#000000;stroke-width:0.10071234px;stroke-linecap:butt;stroke-linejoin:miter;stroke-opacity:1"
           sodipodi:nodetypes="ccccccccccc" />
      </g>
      <g
         transform="translate(0,8.7149453)"
         id="g6655">
        <path
           style="fill:#87aade;fill-opacity:1;stroke:#000000;stroke-width:0.08076911px;stroke-linecap:butt;stroke-linejoin:miter;stroke-opacity:1"
           d="m 67.801376,197.71773 c 1.789532,1.78953 1.92896,1.98159 4.734104,2.73323 -0.107719,1.65043 -6.54752,5.49814 -6.418684,5.74997 0.30036,0.22993 0.212101,-6.99894 1.68458,-8.4832 z"
           id="path1243"
           inkscape:connector-curvature="0"
           sodipodi:nodetypes="cccc" />
        <path
           style="fill:#91c3ee;fill-opacity:1;stroke:none;stroke-width:0.07650238px;stroke-linecap:butt;stroke-linejoin:miter;stroke-opacity:1"
           d="m 72.108851,200.57101 c -0.168702,-0.0452 -0.32694,-0.0883 -0.476339,-0.12975 -0.477891,1.39149 -4.629525,4.16461 -5.457457,4.9013 -0.02493,0.25652 -0.04981,0.45961 -0.07738,0.57092 0.656916,-0.64878 5.916462,-3.89136 6.011174,-5.34247 z m -6.011174,5.34247 c -0.05076,0.0501 -0.07723,0.0866 -0.06848,0.10367 0.02542,0.0193 0.04764,-0.0195 0.06848,-0.10367 z"
           id="path1251"
           inkscape:connector-curvature="0" />
        <circle
           style="opacity:1;fill:#ffd42a;fill-opacity:1;stroke:#000000;stroke-width:0.24403149;stroke-linecap:round;stroke-linejoin:round;stroke-miterlimit:4;stroke-dasharray:none;stroke-dashoffset:0;stroke-opacity:1;paint-order:stroke fill markers"
           id="path1245"
           cx="160.30949"
           cy="146.26598"
           r="2.542104"
           transform="rotate(29.999999)" />
        <path
           style="fill:#fff6d5;stroke:none;stroke-width:0.10234318px;stroke-linecap:butt;stroke-linejoin:miter;stroke-opacity:1"
           d="m 64.706919,206.02492 0.443159,0.25586 0.699016,-0.1873 -1.023431,1.77263 0.443159,0.25586 1.279288,-2.21579 -0.443159,-0.25586 z"
           id="path1249"
           inkscape:connector-curvature="0" />
        <path
           style="opacity:1;fill:#ffe680;fill-opacity:1;stroke:none;stroke-width:0.19121504;stroke-linecap:round;stroke-linejoin:round;stroke-miterlimit:4;stroke-dasharray:none;stroke-dashoffset:0;stroke-opacity:1;paint-order:stroke fill markers"
           d="m 67.439074,205.17137 c 0.399901,0.70312 0.228424,1.8008 -0.175163,2.50182 -0.406026,0.70097 -1.276943,1.41245 -2.08701,1.41638 0.915698,0.35596 2.077852,-0.28723 2.569694,-1.1377 0.489374,-0.85005 0.456339,-2.16521 -0.307521,-2.7805 z"
           id="circle1259"
           inkscape:connector-curvature="0"
           sodipodi:nodetypes="ccccc" />
      </g>
    </g>
  </g>
</svg>
