<?xml version="1.0" encoding="UTF-8" standalone="no"?>
<!-- Created with Inkscape (http://www.inkscape.org/) -->

<svg
   xmlns:dc="http://purl.org/dc/elements/1.1/"
   xmlns:cc="http://creativecommons.org/ns#"
   xmlns:rdf="http://www.w3.org/1999/02/22-rdf-syntax-ns#"
   xmlns:svg="http://www.w3.org/2000/svg"
   xmlns="http://www.w3.org/2000/svg"
   xmlns:sodipodi="http://sodipodi.sourceforge.net/DTD/sodipodi-0.dtd"
   xmlns:inkscape="http://www.inkscape.org/namespaces/inkscape"
   width="101.40646mm"
   height="141.5826mm"
   viewBox="0 0 101.40646 141.5826"
   version="1.1"
   id="svg1789"
   inkscape:version="0.92.4 (5da689c313, 2019-01-14)"
   sodipodi:docname="background_img.svg">
  <defs
     id="defs1783" />
  <sodipodi:namedview
     id="base"
     pagecolor="#ffffff"
     bordercolor="#666666"
     borderopacity="1.0"
     inkscape:pageopacity="0.0"
     inkscape:pageshadow="2"
     inkscape:zoom="0.98994949"
     inkscape:cx="284.68879"
     inkscape:cy="300.70071"
     inkscape:document-units="mm"
     inkscape:current-layer="layer1"
     showgrid="false"
     inkscape:window-width="1366"
     inkscape:window-height="705"
     inkscape:window-x="-8"
     inkscape:window-y="-8"
     inkscape:window-maximized="1" />
  <metadata
     id="metadata1786">
    <rdf:RDF>
      <cc:Work
         rdf:about="">
        <dc:format>image/svg+xml</dc:format>
        <dc:type
           rdf:resource="http://purl.org/dc/dcmitype/StillImage" />
        <dc:title></dc:title>
      </cc:Work>
    </rdf:RDF>
  </metadata>
  <g
     inkscape:label="Layer 1"
     inkscape:groupmode="layer"
     id="layer1"
     transform="translate(-101.10586,-80.814085)">
    <g
       id="g2837"
       transform="matrix(0.26458333,0,0,0.26458333,101.10586,80.814085)"
       style="stroke:none">
      <g
         transform="translate(0.49998932,7.5468043)"
         style="stroke:none;stroke-width:3.13700795;stroke-miterlimit:4;stroke-dasharray:none"
         id="g10">
        <path
           inkscape:connector-curvature="0"
           style="fill:#77dc99;stroke:none;stroke-width:3.13700795;stroke-miterlimit:4;stroke-dasharray:none"
           id="path4"
           d="M 88.1,283.3"
           class="st0" />
        <path
           inkscape:connector-curvature="0"
           style="fill:#77dc99;stroke:none;stroke-width:3.13700795;stroke-miterlimit:4;stroke-dasharray:none"
           id="path6"
           d="m 67.6,526 h 313.6 c 0,-175.5 0,-351 0,-526.5 -14.1,-3.5 -35.7,-7.1 -61.7,-4.7 -18.9,1.7 -92.2,8.5 -121,60.6 -32,57.8 18.9,121.3 -11.2,156 -30.8,35.6 -93.6,-11.2 -129.5,33.7 -11.9,15 -22.1,41.8 -17.3,65.8 5.6,28.5 28.8,35.9 26.3,55.6 -2.1,17.4 -20.9,16.4 -36.8,44.2 -2.9,5.1 -16.5,28 -12.9,53.9 4,28.2 23.8,51.7 50.5,61.4 z"
           class="st0" />
        <path
           inkscape:connector-curvature="0"
           style="fill:#77dc99;stroke:none;stroke-width:3.13700795;stroke-miterlimit:4;stroke-dasharray:none"
           id="path8"
           d="M 350.6,86"
           class="st0" />
      </g>
      <path
         inkscape:connector-curvature="0"
         style="fill:#ffffff;stroke:none;stroke-opacity:1"
         id="path12"
         d="m 298.19999,320.6468 h -7.3 c -0.6,0 -1.1,-0.5 -1.1,-1.1 v 0 c 0,-0.6 0.5,-1.1 1.1,-1.1 h 7.3 c 0.6,0 1.1,0.5 1.1,1.1 v 0 c 0.1,0.6 -0.4,1.1 -1.1,1.1 z"
         class="st1" />
      <ellipse
         style="fill:#4fc695;stroke:none;stroke-opacity:1"
         id="ellipse14"
         ry="11.5"
         rx="122.7"
         cy="412.24683"
         cx="236.80002"
         class="st2" />
      <path
         inkscape:connector-curvature="0"
         style="fill:#f7f7f7;stroke:none;stroke-opacity:1"
         id="path16"
         d="m 346.79999,320.0468 h -219.9 c -3.4,0 -6.1,2.8 -5.9,6.2 v 82.2 h 12.4 v -56.1 c 0.6,1.8 2.2,3.2 4.3,3.2 h 59.7 c 2.5,0 4.5,-2 4.5,-4.5 v -18.6 h 132.6 v 0 h -62.1 v 18.6 c 0,2.5 2,4.5 4.5,4.5 h 59.6 c 1.6,0 3,-0.9 3.8,-2.2 v 55.5 h 12.4 v -82.9 c 0,-3.3 -2.6,-5.9 -5.9,-5.9 z"
         class="st3" />
      <path
         inkscape:connector-curvature="0"
         style="fill:#d7dcdd;stroke:none;stroke-opacity:1"
         id="path18"
         d="m 143.49999,336.3468 h 48.7 c 1,0 1.8,0.8 1.8,1.8 v 0 c 0,1 -0.8,1.8 -1.8,1.8 h -48.7 c -1,0 -1.8,-0.8 -1.8,-1.8 v 0 c 0,-1 0.8,-1.8 1.8,-1.8 z"
         class="st4" />
      <polygon
         transform="translate(0.49998932,7.5468043)"
         style="fill:#d7dcdd;stroke:none;stroke-opacity:1"
         id="polygon20"
         points="271.9,328.8 271.9,330.4 201.4,330.2 201.4,328.6 "
         class="st4" />
      <path
         inkscape:connector-curvature="0"
         style="fill:#d7dcdd;stroke:none;stroke-opacity:1"
         id="path22"
         d="m 282.29999,336.1468 h 48.7 c 1,0 1.8,0.8 1.8,1.8 v 0 c 0,1 -0.8,1.8 -1.8,1.8 h -48.7 c -1,0 -1.8,-0.8 -1.8,-1.8 v 0 c 0,-1 0.8,-1.8 1.8,-1.8 z"
         class="st4" />
      <polygon
         transform="translate(0.49998932,7.5468043)"
         style="fill:none;stroke:none"
         id="polygon24"
         points="120.4,385.4 128,385.4 "
         class="st5" />
      <path
         style="fill:#ffffff;stroke:none"
         inkscape:connector-curvature="0"
         id="path28"
         d="m 188.39999,299.9468 c 0,0.9 0.7,1.6 1.6,1.6 l 93.6,0.4 c 0.9,0 1.6,-0.7 1.6,-1.6 v -8.6 h -96.8 z"
         class="st1" />
      <path
         sodipodi:nodetypes="csccsccsccscc"
         inkscape:connector-curvature="0"
         style="fill:#93ac9d;fill-opacity:1;stroke:none;stroke-opacity:1"
         id="path26"
         d="m 284.90449,290.86029 v 8.6 c 0,0.9 -0.7,1.6 -1.6,1.6 l -93.3045,0.48651 c -0.9,0 -1.6,-0.7 -1.6,-1.6 v -8.2 h -5.5 v 7.3 c 0,3.4 2.7,6.2 6.1,6.2 l 95.4,0.4 c 3.4,0 6.2,-2.7 6.2,-6.1 v -7.7 z"
         class="st4" />
      <path
         style="fill:#ffffff;stroke:none"
         inkscape:connector-curvature="0"
         id="path30"
         d="m 283.79999,237.7468 -93.6,-0.4 c -0.9,0 -1.6,0.7 -1.6,1.6 l -0.2,52.8 h 96.8 l 0.2,-52.4 c 0,-0.9 -0.7,-1.6 -1.6,-1.6 z"
         class="st1" />
      <polygon
         transform="translate(0.49998932,7.5468043)"
         style="fill:#d7dcdd;stroke:none;stroke-opacity:1"
         id="polygon32"
         points="122.8,404.7 131.6,404.7 131.6,400.8 122.8,400.8 "
         class="st4" />
      <polygon
         transform="translate(0.49998932,7.5468043)"
         style="fill:#d7dcdd;stroke:none;stroke-opacity:1"
         id="polygon34"
         points="342.4,405.2 351.3,405.2 351.3,401.3 342.4,401.3 "
         class="st4" />
      <path
         inkscape:connector-curvature="0"
         style="fill:#1a1a1a;fill-opacity:1;stroke:none;stroke-opacity:1"
         id="path36"
         d="m 188.59999,239.6468 c 0,-1 0.7,-1.8 1.6,-1.8 l 93.6,0.5 c 0.9,0 1.6,0.8 1.6,1.8 l -0.2,59.2 h 5.5 l 0.2,-58.1 c 0,-3.9 -2.7,-7 -6.1,-7 l -95.4,-0.5 c -3.4,0 -6.2,3.1 -6.2,6.9 l -0.2,58.7 h 5.5 z"
         class="st6" />
      <path
         inkscape:connector-curvature="0"
         id="rect38"
         d="m 324.5996,277.67375 -0.94922,1.64453 21.08203,12.17383 -7.38672,27.56446 1.83594,0.49218 7.66406,-28.60742 0.1836,-0.31836 z"
         style="fill:#4f4f4f;stroke:none;stroke-width:0.99997801;stroke-opacity:1" />
      <path
         inkscape:connector-curvature="0"
         style="fill:#ffffff;stroke:none;stroke-opacity:1"
         id="path40"
         d="m 324.19999,287.2468 c -0.7,1.7 -2.7,2.5 -4.4,1.8 -1.7,-0.7 -2.5,-2.7 -1.8,-4.4"
         class="st1" />
      <path
         inkscape:connector-curvature="0"
         style="fill:#65b65e;stroke:none;stroke-opacity:1"
         id="path42"
         d="m 311.59999,281.8468 c 2.2,-5.3 8.4,-7.9 13.7,-5.6 5.3,2.2 7.9,8.4 5.6,13.7"
         class="st7" />
      <ellipse
         style="fill:#4f4f4f;stroke:none;stroke-opacity:1"
         id="ellipse46"
         ry="1.4"
         rx="8.5"
         cy="319.24683"
         cx="337.99997"
         class="st6" />
      <path
         inkscape:connector-curvature="0"
         style="fill:#16828d;stroke:none;stroke-opacity:1"
         id="path48"
         d="m 165.3,312 h -44.2 c -1.9,0 -3.4,-1.5 -3.4,-3.4 v -5.1 c 0,-1.9 1.5,-3.4 3.4,-3.4 h 44.2 c 1.9,0 3.4,1.5 3.4,3.4 v 5.1 c 0,1.9 -1.6,3.4 -3.4,3.4 z"
         class="st8"
         transform="translate(0.49998932,7.5468043)" />
      <rect
         style="fill:#fbfcfd;stroke:none;stroke-opacity:1"
         id="rect50"
         height="5.5"
         width="20.1"
         class="st9"
         y="303.5"
         x="123.1"
         transform="translate(0.49998932,7.5468043)" />
      <rect
         style="fill:#fdfdfd;stroke:none;stroke-opacity:1"
         id="rect52"
         height="7.9000001"
         width="3.0999999"
         class="st10"
         y="302.29999"
         x="160.5"
         transform="translate(0.49998932,7.5468043)" />
      <path
         inkscape:connector-curvature="0"
         style="fill:#ff7e73;stroke:none;stroke-opacity:1"
         id="path56"
         d="m 165.1,294.3 c 0,-1.8 0.4,-3.5 1.3,-4.7 0.3,-0.4 0.1,-1 -0.5,-1 h -42.5 c -2,0 -3.6,1.5 -3.6,3.4 v 5.1 c 0,1.9 1.6,3.4 3.6,3.4 h 43.1 c 0.5,0 0.8,-0.6 0.4,-1 -1.2,-1.3 -1.8,-3.2 -1.8,-5.2 z"
         class="st12"
         transform="translate(0.49998932,7.5468043)" />
      <path
         inkscape:connector-curvature="0"
         style="fill:#f9faf8;stroke:none;stroke-opacity:1"
         id="path58"
         d="m 165.1,294.3 c 0,-1.1 0,-2.1 0.4,-3.1 -13.9,0 -27.5,0 -41.4,0 -0.3,0.8 -0.6,2 -0.6,3.4 0,1.4 0.3,2.5 0.6,3.2 h 41.8 c -0.6,-1 -0.8,-2.2 -0.8,-3.5 z"
         class="st13"
         transform="translate(0.49998932,7.5468043)" />
      <ellipse
         style="fill:#4fc695;stroke:none;stroke-opacity:1"
         id="ellipse61"
         ry="3.9000001"
         rx="34.900002"
         cy="405.44681"
         cx="35.400002"
         class="st2" />
      <path
         inkscape:connector-curvature="0"
         style="fill:#65b65e;stroke:none;stroke-opacity:1"
         id="path63"
         d="m 35.999989,339.9468 c -0.6,3.5 0.3,8.3 2.8,9.6 3.2,1.5 7.8,-3.1 9.7,-7.6 1.8,-4.3 2.2,-10.7 -0.2,-12.4 -3,-2.2 -11.1,3.1 -12.3,10.4 z"
         class="st7" />
      <path
         inkscape:connector-curvature="0"
         style="fill:#65b65e;stroke:none;stroke-opacity:1"
         id="path65"
         d="m 36.199989,322.3468 c 1.1,6.7 -0.5,16.1 -5.5,18.5 -6.1,3 -15,-6 -18.8,-14.6 -3.5999997,-8.3 -4.2999997,-20.8 0.3,-24 5.9,-4.1 21.7,6 24,20.1 z"
         class="st7" />
      <path
         inkscape:connector-curvature="0"
         style="fill:#65b65e;stroke:none;stroke-opacity:1"
         id="path67"
         d="m 34.599989,305.1468 c -1.1,6.7 0.5,16.1 5.5,18.5 6.1,3 15,-6 18.8,-14.6 3.6,-8.3 4.3,-20.8 -0.3,-24 -6,-4.1 -21.7,5.9 -24,20.1 z"
         class="st7" />
      <path
         inkscape:connector-curvature="0"
         id="path71"
         d="m 54.699209,293.74602 c -4.1,4.2 -10.39883,11.5 -15.29883,22.5 -4.1332,9.02556 -5.90699,17.31389 -6.72461,23.41601 -0.86457,-2.64977 -1.90103,-5.39977 -3.17578,-8.21484 -4.9,-11 -11.20078,-18.3 -15.30078,-22.5 4.2,5.3 9.70156,13.6 14.10156,25 3.7,9.8 5.29961,18.69922 6.09961,25.19922 l 2.09961,-1.09961 c -0.119,-1.2297 -0.29297,-2.63587 -0.50781,-4.12695 -0.16548,-2.08391 -0.24209,-4.37808 1.4082,-7.37305 1.9,-3.5 3.99883,-6.00039 5.79883,-7.90039 -1.9,1.5 -4.29961,3.79961 -6.59961,7.09961 -0.45569,0.68353 -1.02397,1.65957 -1.53516,2.91992 -0.24644,-1.18763 -0.53418,-2.41998 -0.85742,-3.69141 0.7279,-6.85477 2.4047,-16.07756 6.39258,-26.22851 4.4,-11.4 9.99961,-19.7 14.09961,-25 z"
         style="fill:#00aa44;stroke:none;stroke-width:0.62362206;stroke-miterlimit:4;stroke-dasharray:none;stroke-opacity:1" />
      <path
         style="fill:#82c178;stroke:none"
         inkscape:connector-curvature="0"
         id="path75"
         d="M 42.899989,344.0468"
         class="st15" />
      <path
         style="fill:#82c178;stroke:none"
         inkscape:connector-curvature="0"
         id="path77"
         d="M 50.899989,366.2468"
         class="st15" />
      <path
         style="fill:#82c178;stroke:none"
         inkscape:connector-curvature="0"
         id="path81"
         d="M 38.399989,358.8468"
         class="st15" />
      <rect
         style="fill:#ff7f2a;stroke:none;stroke-opacity:1"
         id="rect83"
         height="13.4"
         width="51.700001"
         class="st16"
         y="357.74683"
         x="9.9000015" />
      <rect
         x="18.999977"
         y="371.14682"
         class="st17"
         width="33.5"
         height="4"
         id="rect85"
         style="fill:#ff6600;stroke:none;stroke-opacity:1" />
      <line
         class="st5"
         x1="52.499977"
         y1="375.14682"
         x2="30.199989"
         y2="375.14682"
         id="line87"
         style="fill:#ff6600;stroke:none" />
      <path
         class="st16"
         d="m 18.999989,375.1468 v 21.3 c 0,5 3.5,9.1 7.9,9.1 h 17.7 c 4.4,0 7.9,-4.1 7.9,-9.1 v -21.3"
         id="path89"
         style="fill:#ff7f2a;stroke:none;stroke-opacity:1"
         inkscape:connector-curvature="0" />
      <line
         class="st5"
         x1="30.199989"
         y1="375.14682"
         x2="18.999977"
         y2="375.14682"
         id="line91"
         style="fill:#ff6600;stroke:none" />
      <g
         transform="translate(0.49998932,7.5468043)"
         style="fill:#afc6e9;fill-opacity:1;stroke:none"
         id="g99">
        <path
           class="st8"
           d="m 233,389.4 -0.1,-25.3 c 0,0 -7.6,0 -11.9,0 1.6,9.3 3.1,18.6 4.7,27.9 0,0 0,0 0,0 0.5,2.8 0.9,5.4 1.4,8.2 1.9,0 5.9,0 5.9,0 v -10.8 c 0,0 0,0 0,0 z"
           id="path95"
           inkscape:connector-curvature="0"
           style="fill:#afc6e9;fill-opacity:1;stroke:none" />
        <path
           class="st8"
           d="m 254.2,364.1 c -4.3,0 -11.9,0 -11.9,0 l -0.1,25.1 c 0,0 0,0 0,0 V 400 c 0,0 3.9,0 5.9,0 0.5,-2.7 0.9,-5.3 1.4,-8 0,0 0,0 0,0 1.6,-9.3 3.1,-18.6 4.7,-27.9 z"
           id="path97"
           inkscape:connector-curvature="0"
           style="fill:#afc6e9;fill-opacity:1;stroke:none" />
      </g>
      <path
         class="st12"
         d="m 230.39999,300.7468 v 0 c -1.4,-4.7 -6.3,-7.4 -11.1,-6 l -42,12.3 c -4.7,1.4 -7.4,6.3 -6,11.1 v 0 c 0.2,0.6 0.4,1.2 0.7,1.8 h 24.8 l 27.4,-8.1 c 4.9,-1.5 7.6,-6.4 6.2,-11.1 z"
         id="path101"
         inkscape:connector-curvature="0"
         style="fill:#ffaaaa;fill-opacity:1;stroke:none;stroke-opacity:1" />
      <path
         class="st12"
         d="m 292.79999,317.4468 c -2.3,2.9 -5.6,10.1 -9.6,10.1 -10.4,0 -11.3,-16.9 -18.1,-19.5 l -1,16.9 c 5.1,6 5,14.9 16.5,14.8 11,-0.1 14.2,-14.7 16.3,-21.7 0.2,-0.8 0.3,-0.8 0,-0.8 z"
         id="path103"
         inkscape:connector-curvature="0"
         style="fill:#ffaaaa;fill-opacity:1;stroke:none;stroke-opacity:1" />
      <g
         transform="translate(0.49998932,7.5468043)"
         style="stroke:none;stroke-opacity:1"
         id="Warstwa_6">
        <path
           class="st18"
           d="M 250.7,360.9 H 221 c -4.3,0 -8,-2.4 -8.8,-5.6 -4.3,-18.4 -8.5,-36.8 -12.8,-55.2 -1,-4.2 3.2,-8 8.8,-8 h 53.5 c 5.5,0 9.6,3.7 8.8,7.8 -3.7,18.4 -7.4,36.8 -11,55.2 -0.6,3.3 -4.4,5.8 -8.8,5.8 z"
           id="path105"
           inkscape:connector-curvature="0"
           style="fill:#286476;stroke:none;stroke-opacity:1" />
        <path
           class="st18"
           d="m 258.8,370.6 h -45 c -2,0 -3.7,-1.6 -3.7,-3.7 v -4.8 c 0,-2 1.6,-3.7 3.7,-3.7 h 45 c 2,0 3.7,1.6 3.7,3.7 v 4.8 c 0,2 -1.7,3.7 -3.7,3.7 z"
           id="path107"
           inkscape:connector-curvature="0"
           style="fill:#286476;stroke:none;stroke-opacity:1" />
      </g>
      <path
         class="st19"
         d="m 259.49999,302.1468 c -12.6,0 -25.1,0 -37.6,0 -2.1,0 -4.2,0 -6.3,0 -0.5,0 -3.2,-0.1 -5.4,-2.2 -1.4,-1.4 -2.2,-3.3 -2.2,-5.4 v -28.3 c 0,-16.4 13.3,-29.6 29.6,-29.6 v 0 c 16.4,0 29.6,13.3 29.6,29.6 v 28.3 c -0.1,4.2 -3.5,7.6 -7.7,7.6 z"
         id="path110"
         inkscape:connector-curvature="0"
         style="fill:#ffd42a;fill-opacity:1;stroke:none;stroke-opacity:1" />
      <rect
         x="235.49997"
         y="378.14682"
         class="st18"
         width="5.3000002"
         height="29"
         id="rect112"
         style="fill:#286476;stroke:none;stroke-opacity:1" />
      <path
         class="st18"
         d="m 223.59999,409.6468 v 0 c 0,-1.5 1.2,-2.6 2.6,-2.6 h 23.7 c 1.4,0 2.6,1.2 2.6,2.6 v 0 c 0,1.5 -1.2,2.6 -2.6,2.6 h -23.7 c -1.4,0.1 -2.6,-1.1 -2.6,-2.6 z"
         id="path114"
         inkscape:connector-curvature="0"
         style="fill:#286476;stroke:none;stroke-opacity:1" />
      <path
         class="st20"
         d="m 297.09999,318.4468 h -5.1 c -0.6,0 -1.1,-0.5 -1.1,-1.1 v 0 c 0,-0.6 0.5,-1.1 1.1,-1.1 h 5.1 c 0.6,0 1.1,0.5 1.1,1.1 v 0 c 0.1,0.6 -0.4,1.1 -1.1,1.1 z"
         id="path116"
         inkscape:connector-curvature="0"
         style="fill:#ffe49f;stroke:none;stroke-opacity:1" />
    </g>
  </g>
</svg>
