<?xml version="1.0" encoding="utf-8"?>
<!-- Generator: Adobe Illustrator 23.0.3, SVG Export Plug-In . SVG Version: 6.00 Build 0)  -->
<svg version="1.1" id="Warstwa_1" xmlns="http://www.w3.org/2000/svg" xmlns:xlink="http://www.w3.org/1999/xlink" x="0px" y="0px"
	 width="381.2px" height="526px" viewBox="0 0 381.2 526" style="enable-background:new 0 0 381.2 526;" xml:space="preserve">
<style type="text/css">
	.st0{fill:#77DC99;}
	.st1{fill:#FFFFFF;}
	.st2{fill:#4FC695;}
	.st3{fill:#F7F7F7;}
	.st4{fill:#D7DCDD;}
	.st5{fill:none;}
	.st6{fill:#4F4F4F;}
	.st7{fill:#65B65E;}
	.st8{fill:#16828D;}
	.st9{fill:#FBFCFD;}
	.st10{fill:#FDFDFD;}
	.st11{fill:#9B9E97;}
	.st12{fill:#FF7E73;}
	.st13{fill:#F9FAF8;}
	.st14{fill:#ECE873;}
	.st15{fill:#82C178;}
	.st16{fill:#EDB84F;}
	.st17{fill:#E8A93A;}
	.st18{fill:#286476;}
	.st19{fill:#FEE181;}
	.st20{fill:#FFE49F;}
</style>
<g>
	<path class="st0" d="M88.1,283.3"/>
	<path class="st0" d="M67.6,526h313.6c0-175.5,0-351,0-526.5c-14.1-3.5-35.7-7.1-61.7-4.7c-18.9,1.7-92.2,8.5-121,60.6
		c-32,57.8,18.9,121.3-11.2,156c-30.8,35.6-93.6-11.2-129.5,33.7c-11.9,15-22.1,41.8-17.3,65.8c5.6,28.5,28.8,35.9,26.3,55.6
		c-2.1,17.4-20.9,16.4-36.8,44.2c-2.9,5.1-16.5,28-12.9,53.9C21.1,492.8,40.9,516.3,67.6,526z"/>
	<path class="st0" d="M350.6,86"/>
</g>
<path class="st1" d="M297.7,313.1h-7.3c-0.6,0-1.1-0.5-1.1-1.1l0,0c0-0.6,0.5-1.1,1.1-1.1h7.3c0.6,0,1.1,0.5,1.1,1.1l0,0
	C298.9,312.6,298.4,313.1,297.7,313.1z"/>
<ellipse class="st2" cx="236.3" cy="404.7" rx="122.7" ry="11.5"/>
<path class="st3" d="M346.3,312.5H126.4c-3.4,0-6.1,2.8-5.9,6.2v82.2h12.4v-56.1c0.6,1.8,2.2,3.2,4.3,3.2h59.7c2.5,0,4.5-2,4.5-4.5
	v-18.6H334l0,0h-62.1v18.6c0,2.5,2,4.5,4.5,4.5H336c1.6,0,3-0.9,3.8-2.2v55.5h12.4v-82.9C352.2,315.1,349.6,312.5,346.3,312.5z"/>
<path class="st4" d="M143,328.8h48.7c1,0,1.8,0.8,1.8,1.8l0,0c0,1-0.8,1.8-1.8,1.8H143c-1,0-1.8-0.8-1.8-1.8l0,0
	C141.2,329.6,142,328.8,143,328.8z"/>
<polygon class="st4" points="271.9,330.4 201.4,330.2 201.4,328.6 271.9,328.8 "/>
<path class="st4" d="M281.8,328.6h48.7c1,0,1.8,0.8,1.8,1.8l0,0c0,1-0.8,1.8-1.8,1.8h-48.7c-1,0-1.8-0.8-1.8-1.8l0,0
	C280,329.4,280.8,328.6,281.8,328.6z"/>
<polygon class="st5" points="120.4,385.4 128,385.4 128,385.4 "/>
<path class="st4" d="M284.7,284.2v8.6c0,0.9-0.7,1.6-1.6,1.6l-93.6-0.4c-0.9,0-1.6-0.7-1.6-1.6v-8.2h-5.5v7.3c0,3.4,2.7,6.2,6.1,6.2
	l95.4,0.4c3.4,0,6.2-2.7,6.2-6.1v-7.7L284.7,284.2L284.7,284.2z"/>
<path class="st1" d="M187.9,292.4c0,0.9,0.7,1.6,1.6,1.6l93.6,0.4c0.9,0,1.6-0.7,1.6-1.6v-8.6h-96.8L187.9,292.4z"/>
<path class="st1" d="M283.3,230.2l-93.6-0.4c-0.9,0-1.6,0.7-1.6,1.6l-0.2,52.8h96.8l0.2-52.4C284.9,230.9,284.2,230.2,283.3,230.2z"
	/>
<polygon class="st4" points="131.6,404.7 131.6,400.8 122.8,400.8 122.8,404.7 "/>
<polygon class="st4" points="351.3,405.2 351.3,401.3 342.4,401.3 342.4,405.2 "/>
<path class="st6" d="M188.1,232.1c0-1,0.7-1.8,1.6-1.8l93.6,0.5c0.9,0,1.6,0.8,1.6,1.8l-0.2,59.2h5.5l0.2-58.1c0-3.9-2.7-7-6.1-7
	l-95.4-0.5c-3.4,0-6.2,3.1-6.2,6.9l-0.2,58.7h5.5L188.1,232.1z"/>
<rect x="333.9" y="264.5" transform="matrix(0.5 -0.866 0.866 0.5 -72.8566 428.6796)" class="st6" width="1.9" height="25.9"/>
<path class="st1" d="M323.7,279.7c-0.7,1.7-2.7,2.5-4.4,1.8s-2.5-2.7-1.8-4.4"/>
<path class="st7" d="M311.1,274.3c2.2-5.3,8.4-7.9,13.7-5.6c5.3,2.2,7.9,8.4,5.6,13.7"/>
<rect x="326.7" y="296.4" transform="matrix(0.2588 -0.9659 0.9659 0.2588 -33.9967 550.3615)" class="st6" width="29.8" height="1.9"/>
<ellipse class="st6" cx="337.5" cy="311.7" rx="8.5" ry="1.4"/>
<g id="Warstwa_4">
	<path class="st8" d="M165.3,312h-44.2c-1.9,0-3.4-1.5-3.4-3.4v-5.1c0-1.9,1.5-3.4,3.4-3.4h44.2c1.9,0,3.4,1.5,3.4,3.4v5.1
		C168.7,310.5,167.1,312,165.3,312z"/>
	<rect x="123.1" y="303.5" class="st9" width="20.1" height="5.5"/>
	<rect x="160.5" y="302.3" class="st10" width="3.1" height="7.9"/>
	<path class="st11" d="M-301.8,41.2"/>
	<path class="st12" d="M165.1,294.3c0-1.8,0.4-3.5,1.3-4.7c0.3-0.4,0.1-1-0.5-1h-42.5c-2,0-3.6,1.5-3.6,3.4v5.1
		c0,1.9,1.6,3.4,3.6,3.4h43.1c0.5,0,0.8-0.6,0.4-1C165.7,298.2,165.1,296.3,165.1,294.3z"/>
	<path class="st13" d="M165.1,294.3c0-1.1,0-2.1,0.4-3.1c-13.9,0-27.5,0-41.4,0c-0.3,0.8-0.6,2-0.6,3.4s0.3,2.5,0.6,3.2h41.8
		C165.3,296.8,165.1,295.6,165.1,294.3z"/>
</g>
<ellipse class="st2" cx="34.9" cy="397.9" rx="34.9" ry="3.9"/>
<path class="st7" d="M35.5,332.4c-0.6,3.5,0.3,8.3,2.8,9.6c3.2,1.5,7.8-3.1,9.7-7.6c1.8-4.3,2.2-10.7-0.2-12.4
	C44.8,319.8,36.7,325.1,35.5,332.4z"/>
<path class="st7" d="M35.7,314.8c1.1,6.7-0.5,16.1-5.5,18.5c-6.1,3-15-6-18.8-14.6c-3.6-8.3-4.3-20.8,0.3-24
	C17.6,290.6,33.4,300.7,35.7,314.8z"/>
<path class="st7" d="M34.1,297.6c-1.1,6.7,0.5,16.1,5.5,18.5c6.1,3,15-6,18.8-14.6c3.6-8.3,4.3-20.8-0.3-24
	C52.1,273.4,36.4,283.4,34.1,297.6z"/>
<path class="st14" d="M181.4,155.7"/>
<path class="st15" d="M36,350.5l-2.1,1.1c-0.8-6.5-2.4-15.4-6.1-25.2c-4.4-11.4-9.9-19.7-14.1-25l0,0c4.1,4.2,10.4,11.5,15.3,22.5
	C33.8,334.5,35.4,344.3,36,350.5z"/>
<path class="st15" d="M31.8,335.3c0.6,1.4,1.1,2.8,1.7,4.2c0.6-7,2.2-17.1,6.6-28.3c4.4-11.4,10-19.7,14.1-25
	c-4.1,4.2-10.4,11.5-15.3,22.5C34,319.4,32.4,329.1,31.8,335.3z"/>
<path class="st15" d="M42.4,336.5"/>
<path class="st15" d="M50.4,358.7"/>
<path class="st15" d="M34.1,350.2c0.5,0,1,0,1.4,0c0.6-3.2-1.3-6.3,1.4-11.2c1.9-3.5,4-6,5.8-7.9c-1.9,1.5-4.3,3.8-6.6,7.1
	c-0.6,0.9-1.4,2.3-2,4.2C33.3,345.5,33.7,348.4,34.1,350.2z"/>
<path class="st15" d="M37.9,351.3"/>
<rect x="9.4" y="350.2" class="st16" width="51.7" height="13.4"/>
<g>
	<rect x="18.5" y="363.6" class="st17" width="33.5" height="4"/>
	<line class="st5" x1="52" y1="367.6" x2="29.7" y2="367.6"/>
	<path class="st16" d="M18.5,367.6v21.3c0,5,3.5,9.1,7.9,9.1h17.7c4.4,0,7.9-4.1,7.9-9.1v-21.3"/>
	<line class="st5" x1="29.7" y1="367.6" x2="18.5" y2="367.6"/>
</g>
<g id="Warstwa_7">
	<g>
		<path class="st8" d="M233,389.4l-0.1-25.3c0,0-7.6,0-11.9,0c1.6,9.3,3.1,18.6,4.7,27.9c0,0,0,0,0,0c0.5,2.8,0.9,5.4,1.4,8.2
			c1.9,0,5.9,0,5.9,0L233,389.4C233,389.4,233,389.4,233,389.4z"/>
		<path class="st8" d="M254.2,364.1c-4.3,0-11.9,0-11.9,0l-0.1,25.1c0,0,0,0,0,0V400c0,0,3.9,0,5.9,0c0.5-2.7,0.9-5.3,1.4-8
			c0,0,0,0,0,0C251.1,382.7,252.6,373.4,254.2,364.1z"/>
	</g>
	<path class="st12" d="M229.9,293.2L229.9,293.2c-1.4-4.7-6.3-7.4-11.1-6l-42,12.3c-4.7,1.4-7.4,6.3-6,11.1l0,0
		c0.2,0.6,0.4,1.2,0.7,1.8h24.8l27.4-8.1C228.6,302.8,231.3,297.9,229.9,293.2z"/>
	<path class="st12" d="M292.3,309.9c-2.3,2.9-5.6,10.1-9.6,10.1c-10.4,0-11.3-16.9-18.1-19.5l-1,16.9c5.1,6,5,14.9,16.5,14.8
		c11-0.1,14.2-14.7,16.3-21.7c0.2-0.8,0.3-0.8,0-0.8L292.3,309.9z"/>
	<g id="Warstwa_6">
		<path class="st18" d="M250.7,360.9H221c-4.3,0-8-2.4-8.8-5.6c-4.3-18.4-8.5-36.8-12.8-55.2c-1-4.2,3.2-8,8.8-8h53.5
			c5.5,0,9.6,3.7,8.8,7.8c-3.7,18.4-7.4,36.8-11,55.2C258.9,358.4,255.1,360.9,250.7,360.9z"/>
		<path class="st18" d="M258.8,370.6h-45c-2,0-3.7-1.6-3.7-3.7v-4.8c0-2,1.6-3.7,3.7-3.7h45c2,0,3.7,1.6,3.7,3.7v4.8
			C262.5,368.9,260.8,370.6,258.8,370.6z"/>
	</g>
	<path class="st19" d="M259,294.6c-12.6,0-25.1,0-37.6,0c-2.1,0-4.2,0-6.3,0c-0.5,0-3.2-0.1-5.4-2.2c-1.4-1.4-2.2-3.3-2.2-5.4v-28.3
		c0-16.4,13.3-29.6,29.6-29.6l0,0c16.4,0,29.6,13.3,29.6,29.6V287C266.6,291.2,263.2,294.6,259,294.6z"/>
	<rect x="235" y="370.6" class="st18" width="5.3" height="29"/>
	<path class="st18" d="M223.1,402.1L223.1,402.1c0-1.5,1.2-2.6,2.6-2.6h23.7c1.4,0,2.6,1.2,2.6,2.6l0,0c0,1.5-1.2,2.6-2.6,2.6h-23.7
		C224.3,404.8,223.1,403.6,223.1,402.1z"/>
	<path class="st20" d="M296.6,310.9h-5.1c-0.6,0-1.1-0.5-1.1-1.1l0,0c0-0.6,0.5-1.1,1.1-1.1h5.1c0.6,0,1.1,0.5,1.1,1.1l0,0
		C297.8,310.4,297.3,310.9,296.6,310.9z"/>
</g>
</svg>
