<?xml version="1.0" encoding="UTF-8" standalone="no"?>
<!-- Created with Inkscape (http://www.inkscape.org/) -->

<svg
   xmlns:dc="http://purl.org/dc/elements/1.1/"
   xmlns:cc="http://creativecommons.org/ns#"
   xmlns:rdf="http://www.w3.org/1999/02/22-rdf-syntax-ns#"
   xmlns:svg="http://www.w3.org/2000/svg"
   xmlns="http://www.w3.org/2000/svg"
   xmlns:sodipodi="http://sodipodi.sourceforge.net/DTD/sodipodi-0.dtd"
   xmlns:inkscape="http://www.inkscape.org/namespaces/inkscape"
   width="76.234703mm"
   height="77.472198mm"
   viewBox="0 0 76.234703 77.472198"
   version="1.1"
   id="svg1002"
   inkscape:version="0.92.4 (5da689c313, 2019-01-14)"
   sodipodi:docname="bg2v.svg">
  <defs
     id="defs996" />
  <sodipodi:namedview
     id="base"
     pagecolor="#ffffff"
     bordercolor="#666666"
     borderopacity="1.0"
     inkscape:pageopacity="0.0"
     inkscape:pageshadow="2"
     inkscape:zoom="0.49497475"
     inkscape:cx="401.6008"
     inkscape:cy="309.7254"
     inkscape:document-units="mm"
     inkscape:current-layer="layer1"
     showgrid="false"
     inkscape:window-width="1366"
     inkscape:window-height="705"
     inkscape:window-x="-8"
     inkscape:window-y="-8"
     inkscape:window-maximized="1" />
  <metadata
     id="metadata999">
    <rdf:RDF>
      <cc:Work
         rdf:about="">
        <dc:format>image/svg+xml</dc:format>
        <dc:type
           rdf:resource="http://purl.org/dc/dcmitype/StillImage" />
        <dc:title></dc:title>
      </cc:Work>
    </rdf:RDF>
  </metadata>
  <g
     inkscape:label="Layer 1"
     inkscape:groupmode="layer"
     id="layer1"
     transform="translate(59.284017,-104.80557)">
    <circle
       r="12.847452"
       cy="119.0184"
       cx="-17.775265"
       id="circle1753"
       style="opacity:1;fill:#d5d717;fill-opacity:1;stroke:none;stroke-width:0.94873583;stroke-linecap:round;stroke-linejoin:round;stroke-miterlimit:4;stroke-dasharray:none;stroke-dashoffset:0;stroke-opacity:1;paint-order:stroke fill markers" />
    <circle
       style="opacity:1;fill:#d5d717;fill-opacity:1;stroke:none;stroke-width:1.30461526;stroke-linecap:round;stroke-linejoin:round;stroke-miterlimit:4;stroke-dasharray:none;stroke-dashoffset:0;stroke-opacity:1;paint-order:stroke fill markers"
       id="path915"
       cx="-27.130175"
       cy="161.63521"
       r="17.666649" />
    <path
       style="opacity:1;fill:#184a45;fill-opacity:1;stroke:none;stroke-width:0.72225434;stroke-linecap:round;stroke-linejoin:round;stroke-miterlimit:4;stroke-dasharray:none;stroke-dashoffset:0;stroke-opacity:1;paint-order:stroke fill markers"
       d="m -3.8972657,104.80557 c -11.5139793,2e-5 -11.2491503,13.68475 -19.0404093,17.22854 -4.012711,1.82515 -9.092703,1.56687 -13.132452,1.56039 -11.514,1e-5 -23.21388,8.05994 -23.21389,19.57394 10e-6,11.51399 9.33394,20.84791 20.84792,20.84793 2.88034,-0.01 7.35847,-1.7133 10.728169,-0.50437 8.771372,3.14684 10.022631,18.75464 20.7220323,18.76577 11.514079,-1e-5 20.8480497,-9.33409 20.8479097,-20.84818 -0.007,-6.74832 -6.5364997,-9.59182 -6.4647817,-15.05182 0.099801,-7.60608 9.5450317,-12.69686 9.5534507,-20.72426 -1.8e-5,-11.514 -9.3339387,-20.84792 -20.8479487,-20.84794 z"
       id="path932"
       inkscape:connector-curvature="0"
       sodipodi:nodetypes="cacccaccacc" />
    <rect
       style="opacity:1;fill:#917c6f;fill-opacity:1;stroke:none;stroke-width:1.34129691;stroke-linecap:round;stroke-linejoin:round;stroke-miterlimit:4;stroke-dasharray:none;stroke-dashoffset:0;stroke-opacity:1;paint-order:stroke fill markers"
       id="rect1751"
       width="18.124474"
       height="12.378721"
       x="-22.035278"
       y="128.20804"
       ry="0.80460685" />
    <path
       class="st1"
       d="m -2.8338267,142.64605 h -1.205338 c -0.0991,0 -0.181631,-0.0825 -0.181631,-0.18162 v 0 c 0,-0.0991 0.0826,-0.18163 0.181631,-0.18163 h 1.205338 c 0.0991,0 0.181631,0.0826 0.181631,0.18163 v 0 c 0.01651,0.0991 -0.0661,0.18162 -0.181631,0.18162 z"
       id="path12"
       style="fill:#ffffff;stroke:none;stroke-width:0.16511594;stroke-opacity:1"
       inkscape:connector-curvature="0" />
    <ellipse
       class="st2"
       cx="-12.97194"
       cy="157.77068"
       rx="20.259726"
       ry="1.8988334"
       id="ellipse14"
       style="fill:#172a2a;fill-opacity:1;stroke:none;stroke-width:0.16511594;stroke-opacity:1" />
    <path
       class="st3"
       d="M 5.1908143,142.54698 H -31.118187 c -0.56139,0 -1.007211,0.46233 -0.97418,1.02372 v 13.57253 h 2.04743 v -9.263 c 0.0991,0.29721 0.36326,0.52837 0.709999,0.52837 h 9.857431 c 0.412789,0 0.743021,-0.33023 0.743021,-0.74302 v -3.07115 H 3.1598833 v 0 h -10.2537 v 3.07115 c 0,0.41279 0.330229,0.74302 0.743022,0.74302 h 9.840909 c 0.26419,0 0.495351,-0.1486 0.627439,-0.36325 v 9.16393 h 2.047441 v -13.68811 c 0,-0.54488 -0.4293,-0.97419 -0.97418,-0.97419 z"
       id="path16"
       style="fill:#f7f7f7;stroke:none;stroke-width:0.16511594;stroke-opacity:1"
       inkscape:connector-curvature="0" />
    <path
       class="st4"
       d="m -28.377257,145.23837 h 8.04114 c 0.165121,0 0.297211,0.1321 0.297211,0.29721 v 0 c 0,0.16512 -0.13209,0.29721 -0.297211,0.29721 h -8.04114 c -0.165119,0 -0.297209,-0.13209 -0.297209,-0.29721 v 0 c 0,-0.16511 0.13209,-0.29721 0.297209,-0.29721 z"
       id="path18"
       style="fill:#4a4843;fill-opacity:1;stroke:none;stroke-width:0.16511594;stroke-opacity:1"
       inkscape:connector-curvature="0" />
    <polygon
       class="st4"
       points="271.9,330.4 201.4,330.2 201.4,328.6 271.9,328.8 "
       id="polygon20"
       style="fill:#d7dcdd;stroke:none;stroke-opacity:1"
       transform="matrix(0.16511593,0,0,0.16511593,-51.988831,90.948254)" />
    <path
       class="st4"
       d="m -5.4591647,145.20535 h 8.041147 c 0.165111,0 0.297202,0.13209 0.297202,0.29721 v 0 c 0,0.16512 -0.132091,0.29721 -0.297202,0.29721 h -8.041147 c -0.165122,0 -0.297212,-0.13209 -0.297212,-0.29721 v 0 c 0,-0.16512 0.13209,-0.29721 0.297212,-0.29721 z"
       id="path22"
       style="fill:#4a4843;fill-opacity:1;stroke:none;stroke-width:0.16511594;stroke-opacity:1"
       inkscape:connector-curvature="0" />
    <polygon
       class="st5"
       points="128,385.4 120.4,385.4 "
       id="polygon24"
       style="fill:none;stroke:none"
       transform="matrix(0.16511593,0,0,0.16511593,-51.988831,90.948254)" />
    <path
       style="opacity:0.97000002;fill:#ffffff;stroke:none;stroke-width:0.16759272"
       d="m -20.668572,128.89195 c -0.148305,0 -0.263542,0.11919 -0.263542,0.2726 l -0.03301,8.99978 v 1.39763 c 0,0.15339 0.115237,0.27259 0.263542,0.27259 l 15.4240739,0.0683 c 0.1483045,0 0.2635412,-0.11972 0.2635412,-0.27312 v -1.46538 l 0.033007,-8.9315 c 0,-0.15341 -0.1152367,-0.27259 -0.2635412,-0.27259 z"
       id="path28"
       inkscape:connector-curvature="0" />
    <polygon
       class="st4"
       points="131.6,404.7 131.6,400.8 122.8,400.8 122.8,404.7 "
       id="polygon32"
       style="fill:#d7dcdd;stroke:none;stroke-opacity:1"
       transform="matrix(0.16511593,0,0,0.16511593,-51.988831,90.948254)" />
    <polygon
       class="st4"
       points="351.3,405.2 351.3,401.3 342.4,401.3 342.4,405.2 "
       id="polygon34"
       style="fill:#d7dcdd;stroke:none;stroke-opacity:1"
       transform="matrix(0.16511593,0,0,0.16511593,-51.988831,90.948254)" />
    <path
       style="fill:#4a4843;fill-opacity:1;stroke:none;stroke-width:0.1651123;stroke-opacity:1"
       d="m 1.5251733,135.55052 -0.156728,0.27154 3.48098,2.01009 -1.219671,4.55133 0.303149,0.0813 1.265451,-4.72354 0.0303,-0.0525 z"
       id="rect38"
       inkscape:connector-curvature="0" />
    <path
       class="st1"
       d="m 1.4591833,137.13118 c -0.11558,0.2807 -0.445809,0.41279 -0.72649997,0.29721 -0.2807,-0.11558 -0.41279,-0.44581 -0.29721,-0.72651"
       id="path40"
       style="fill:#ffffff;stroke:none;stroke-width:0.16511594;stroke-opacity:1"
       inkscape:connector-curvature="0" />
    <path
       class="st7"
       d="m -0.62127767,136.23956 c 0.363263,-0.87512 1.386981,-1.30442 2.26209297,-0.92465 0.87512,0.36326 1.304419,1.38697 0.92465,2.26208"
       id="path42"
       style="fill:#d5d717;fill-opacity:1;stroke:none;stroke-width:0.16511594;stroke-opacity:1"
       inkscape:connector-curvature="0" />
    <ellipse
       class="st6"
       cx="3.7377768"
       cy="142.4149"
       rx="1.4034854"
       ry="0.23116229"
       id="ellipse46"
       style="fill:#4a4843;fill-opacity:1;stroke:none;stroke-width:0.16511594;stroke-opacity:1" />
    <path
       class="st8"
       d="m -24.695175,142.46443 h -7.298122 c -0.313719,0 -0.56139,-0.24767 -0.56139,-0.5614 v -0.84209 c 0,-0.31371 0.247671,-0.56139 0.56139,-0.56139 h 7.298122 c 0.313719,0 0.561398,0.24768 0.561398,0.56139 v 0.84209 c 0,0.31373 -0.264189,0.5614 -0.561398,0.5614 z"
       id="path48"
       style="opacity:1;fill:#4a4843;fill-opacity:1;stroke:none;stroke-width:0.16511594;stroke-opacity:1"
       inkscape:connector-curvature="0" />
    <rect
       x="-31.663057"
       y="141.06093"
       class="st9"
       width="3.3188305"
       height="0.90813762"
       id="rect50"
       style="fill:#fbfcfd;stroke:none;stroke-width:0.16511594;stroke-opacity:1" />
    <rect
       x="-25.48773"
       y="140.86281"
       class="st10"
       width="0.51185942"
       height="1.3044158"
       id="rect52"
       style="fill:#fdfdfd;stroke:none;stroke-width:0.16511594;stroke-opacity:1" />
    <path
       class="st12"
       d="m -24.728195,139.54188 c 0,-0.29721 0.066,-0.57791 0.214648,-0.77605 0.0496,-0.066 0.01651,-0.16512 -0.0826,-0.16512 h -7.01743 c -0.330219,0 -0.59441,0.24768 -0.59441,0.5614 v 0.84209 c 0,0.31372 0.264191,0.56139 0.59441,0.56139 h 7.1165 c 0.0826,0 0.132091,-0.0991 0.066,-0.16511 -0.19814,-0.21465 -0.297208,-0.52837 -0.297208,-0.8586 z"
       id="path56"
       style="fill:#ff6f61;fill-opacity:1;stroke:none;stroke-width:0.16511594;stroke-opacity:1"
       inkscape:connector-curvature="0" />
    <path
       class="st13"
       d="m -24.728195,139.54188 c 0,-0.18163 0,-0.34675 0.066,-0.51186 -2.29512,0 -4.540689,0 -6.835799,0 -0.0495,0.13209 -0.0991,0.33023 -0.0991,0.56139 0,0.23116 0.0495,0.41279 0.0991,0.52837 h 6.901839 c -0.0991,-0.16511 -0.132088,-0.36325 -0.132088,-0.5779 z"
       id="path58"
       style="fill:#f9faf8;stroke:none;stroke-width:0.16511594;stroke-opacity:1"
       inkscape:connector-curvature="0" />
    <ellipse
       class="st2"
       cx="-46.226303"
       cy="156.64787"
       rx="5.7625461"
       ry="0.64395213"
       id="ellipse61"
       style="fill:#172a2a;fill-opacity:1;stroke:none;stroke-width:0.16511594;stroke-opacity:1" />
    <path
       class="st7"
       d="m -46.127217,145.83279 c -0.0991,0.57791 0.0495,1.37046 0.46232,1.58511 0.52837,0.24768 1.2879,-0.51186 1.60162,-1.25487 0.29721,-0.71 0.36326,-1.76674 -0.033,-2.04745 -0.49535,-0.36325 -1.83278,0.51186 -2.03092,1.71721 z"
       id="path63"
       style="fill:#d5d717;fill-opacity:1;stroke:none;stroke-width:0.16511594;stroke-opacity:1"
       inkscape:connector-curvature="0" />
    <path
       class="st7"
       d="m -46.094197,142.92675 c 0.18163,1.10628 -0.0826,2.65837 -0.90814,3.05465 -1.00721,0.49535 -2.47674,-0.9907 -3.104179,-2.4107 -0.59442,-1.37046 -0.710001,-3.4344 0.0495,-3.96278 0.974189,-0.67697 3.583019,0.9907 3.962779,3.31883 z"
       id="path65"
       style="fill:#d5d717;fill-opacity:1;stroke:none;stroke-width:0.16511594;stroke-opacity:1"
       inkscape:connector-curvature="0" />
    <path
       class="st7"
       d="m -46.358387,140.08676 c -0.18162,1.10628 0.0826,2.65836 0.90814,3.05464 1.00721,0.49535 2.47674,-0.99069 3.10418,-2.41069 0.59442,-1.37046 0.71,-3.43441 -0.0495,-3.96278 -0.99069,-0.67698 -3.58301,0.97418 -3.96278,3.31883 z"
       id="path67"
       style="fill:#d5d717;fill-opacity:1;stroke:none;stroke-width:0.16511594;stroke-opacity:1"
       inkscape:connector-curvature="0" />
    <path
       style="fill:#bfbc4e;fill-opacity:1;stroke:none;stroke-width:0.10296994;stroke-miterlimit:4;stroke-dasharray:none;stroke-opacity:1"
       d="m -43.039687,138.20431 c -0.67697,0.69349 -1.71701,1.89883 -2.52608,3.71511 -0.68245,1.49026 -0.97534,2.8588 -1.11034,3.86636 -0.14275,-0.43753 -0.31389,-0.89159 -0.52437,-1.35641 -0.80907,-1.81627 -1.84942,-3.02162 -2.5264,-3.71511 0.69348,0.87512 1.60188,2.24558 2.32839,4.1279 0.61093,1.61814 0.87505,3.08754 1.00715,4.1608 l 0.34667,-0.18157 c -0.0196,-0.20304 -0.0484,-0.43522 -0.0838,-0.68142 -0.0273,-0.34409 -0.0399,-0.7229 0.23252,-1.21741 0.31372,-0.57791 0.66027,-0.99076 0.95748,-1.30448 -0.31372,0.24767 -0.70993,0.62737 -1.0897,1.17226 -0.0752,0.11286 -0.16907,0.27402 -0.25348,0.48212 -0.0407,-0.1961 -0.0882,-0.39958 -0.14157,-0.60951 0.12019,-1.13183 0.39705,-2.65466 1.05552,-4.33074 0.7265,-1.88232 1.65109,-3.25279 2.32806,-4.1279 z"
       id="path71"
       inkscape:connector-curvature="0" />
    <path
       class="st15"
       d="M -44.987927,146.50977"
       id="path75"
       inkscape:connector-curvature="0"
       style="fill:#82c178;stroke:none;stroke-width:0.16511594" />
    <path
       class="st15"
       d="M -43.666997,150.17534"
       id="path77"
       inkscape:connector-curvature="0"
       style="fill:#82c178;stroke:none;stroke-width:0.16511594" />
    <path
       class="st15"
       d="M -45.730947,148.95349"
       id="path81"
       inkscape:connector-curvature="0"
       style="fill:#82c178;stroke:none;stroke-width:0.16511594" />
    <rect
       x="-50.436752"
       y="148.77185"
       class="st16"
       width="8.5364933"
       height="2.2125535"
       id="rect83"
       style="fill:#ff6f61;fill-opacity:1;stroke:none;stroke-width:0.16511594;stroke-opacity:1" />
    <rect
       style="fill:#ff4736;fill-opacity:1;stroke:none;stroke-width:0.16511594;stroke-opacity:1"
       id="rect85"
       height="0.66046375"
       width="5.5313845"
       class="st17"
       y="150.98441"
       x="-48.934204" />
    <line
       style="fill:#ff6600;stroke:none;stroke-width:0.16511594"
       id="line87"
       y2="151.64488"
       x2="-47.0849"
       y1="151.64488"
       x1="-43.402817"
       class="st5" />
    <path
       inkscape:connector-curvature="0"
       style="fill:#ff6f61;fill-opacity:1;stroke:none;stroke-width:0.16511594;stroke-opacity:1"
       id="path89"
       d="m -48.934197,151.64487 v 3.51697 c 0,0.82559 0.57791,1.50256 1.30442,1.50256 h 2.92255 c 0.72651,0 1.30442,-0.67697 1.30442,-1.50256 v -3.51697"
       class="st16" />
    <line
       style="fill:#ff6600;stroke:none;stroke-width:0.16511594"
       id="line91"
       y2="151.64488"
       x2="-48.934204"
       y1="151.64488"
       x1="-47.0849"
       class="st5" />
    <g
       id="g99"
       style="fill:#afc6e9;fill-opacity:1;stroke:none"
       transform="matrix(0.16511593,0,0,0.16511593,-51.988831,90.948254)">
      <path
         style="fill:#252525;fill-opacity:1;stroke:none"
         inkscape:connector-curvature="0"
         id="path95"
         d="m 233,389.4 -0.1,-25.3 c 0,0 -7.6,0 -11.9,0 1.6,9.3 3.1,18.6 4.7,27.9 0,0 0,0 0,0 0.5,2.8 0.9,5.4 1.4,8.2 1.9,0 5.9,0 5.9,0 v -10.8 c 0,0 0,0 0,0 z"
         class="st8" />
      <path
         style="fill:#252525;fill-opacity:1;stroke:none"
         inkscape:connector-curvature="0"
         id="path97"
         d="m 254.2,364.1 c -4.3,0 -11.9,0 -11.9,0 l -0.1,25.1 c 0,0 0,0 0,0 V 400 c 0,0 3.9,0 5.9,0 0.5,-2.7 0.9,-5.3 1.4,-8 0,0 0,0 0,0 1.6,-9.3 3.1,-18.6 4.7,-27.9 z"
         class="st8" />
    </g>
    <path
       style="fill:#ff6f61;fill-opacity:1;stroke:none;stroke-width:0.16511594;stroke-opacity:1"
       inkscape:connector-curvature="0"
       id="path101"
       d="m -14.028686,139.36025 v 0 c -0.231161,-0.77605 -1.040231,-1.22186 -1.83279,-0.9907 l -6.93487,2.03093 c -0.776041,0.23116 -1.221851,1.04023 -0.990689,1.83278 v 0 c 0.033,0.0991 0.066,0.19814 0.115577,0.29721 h 4.094883 l 4.524168,-1.33743 c 0.80907,-0.24768 1.254879,-1.05674 1.023721,-1.83279 z"
       class="st12" />
    <path
       style="fill:#ff6f61;fill-opacity:1;stroke:none;stroke-width:0.16511594;stroke-opacity:1"
       inkscape:connector-curvature="0"
       id="path103"
       d="m -3.7254457,142.11769 c -0.37977,0.47883 -0.92465,1.66767 -1.585111,1.66767 -1.717209,0 -1.86582,-2.79046 -2.988598,-3.21977 l -0.165121,2.79046 c 0.842089,0.9907 0.825579,2.46023 2.724409,2.44372 1.81628,-0.0165 2.34465,-2.4272 2.691392,-3.58301 0.033,-0.1321 0.0496,-0.1321 0,-0.1321 z"
       class="st12" />
    <g
       id="Warstwa_6"
       style="opacity:1;fill:#4a4843;fill-opacity:1;stroke:none;stroke-opacity:1"
       transform="matrix(0.16511593,0,0,0.16511593,-51.988831,90.948254)">
      <path
         style="fill:#4a4843;fill-opacity:1;stroke:none;stroke-opacity:1"
         inkscape:connector-curvature="0"
         id="path105"
         d="M 250.7,360.9 H 221 c -4.3,0 -8,-2.4 -8.8,-5.6 -4.3,-18.4 -8.5,-36.8 -12.8,-55.2 -1,-4.2 3.2,-8 8.8,-8 h 53.5 c 5.5,0 9.6,3.7 8.8,7.8 -3.7,18.4 -7.4,36.8 -11,55.2 -0.6,3.3 -4.4,5.8 -8.8,5.8 z"
         class="st18" />
      <path
         style="fill:#4a4843;fill-opacity:1;stroke:none;stroke-opacity:1"
         inkscape:connector-curvature="0"
         id="path107"
         d="m 258.8,370.6 h -45 c -2,0 -3.7,-1.6 -3.7,-3.7 v -4.8 c 0,-2 1.6,-3.7 3.7,-3.7 h 45 c 2,0 3.7,1.6 3.7,3.7 v 4.8 c 0,2 -1.7,3.7 -3.7,3.7 z"
         class="st18" />
    </g>
    <path
       style="fill:#ffda29;fill-opacity:1;stroke:none;stroke-width:0.16511594;stroke-opacity:1"
       inkscape:connector-curvature="0"
       id="path110"
       d="m -9.2238157,139.59141 c -2.0804613,0 -4.1444013,0 -6.2083503,0 -0.34675,0 -0.693491,0 -1.040241,0 -0.0825,0 -0.52836,-0.0165 -0.891619,-0.36325 -0.231162,-0.23117 -0.363249,-0.54489 -0.363249,-0.89163 v -4.67278 c 0,-2.7079 2.196039,-4.88744 4.887428,-4.88744 v 0 c 2.707902,0 4.8874313,2.19605 4.8874313,4.88744 v 4.67278 c -0.01651,0.69349 -0.577911,1.25488 -1.2714,1.25488 z"
       class="st19" />
    <rect
       style="opacity:1;fill:#4a4843;fill-opacity:1;stroke:none;stroke-width:0.16511594;stroke-opacity:1"
       id="rect112"
       height="4.788362"
       width="0.87511444"
       class="st18"
       y="152.14023"
       x="-13.186601" />
    <path
       style="opacity:1;fill:#4a4843;fill-opacity:1;stroke:none;stroke-width:0.16511594;stroke-opacity:1"
       inkscape:connector-curvature="0"
       id="path114"
       d="m -15.151477,157.34137 v 0 c 0,-0.24767 0.198141,-0.4293 0.42931,-0.4293 h 3.91324 c 0.231169,0 0.429311,0.19814 0.429311,0.4293 v 0 c 0,0.24767 -0.198142,0.42931 -0.429311,0.42931 h -3.91324 c -0.231169,0.0165 -0.42931,-0.18164 -0.42931,-0.42931 z"
       class="st18" />
    <path
       style="fill:#ffe49f;stroke:none;stroke-width:0.16511594;stroke-opacity:1"
       inkscape:connector-curvature="0"
       id="path116"
       d="m -3.0154547,142.2828 h -0.842092 c -0.0991,0 -0.181618,-0.0826 -0.181618,-0.18163 v 0 c 0,-0.0991 0.0826,-0.18162 0.181618,-0.18162 h 0.842092 c 0.0991,0 0.181628,0.0825 0.181628,0.18162 v 0 c 0.01651,0.0991 -0.066,0.18163 -0.181628,0.18163 z"
       class="st20" />
  </g>
</svg>
