<?xml version="1.0" encoding="utf-8"?>
<!-- Generator: Adobe Illustrator 23.0.3, SVG Export Plug-In . SVG Version: 6.00 Build 0)  -->
<svg version="1.1" id="Warstwa_1" xmlns="http://www.w3.org/2000/svg" xmlns:xlink="http://www.w3.org/1999/xlink" x="0px" y="0px"
	 width="223px" height="256.4px" viewBox="0 0 223 256.4" style="enable-background:new 0 0 223 256.4;" xml:space="preserve">
<style type="text/css">
	.st0{fill:#E72B5B;}
	.st1{fill:#FFFFFF;}
	.st2{fill:none;}
	.st3{font-family:'Arial-BoldMT';}
	.st4{font-size:196.0785px;}
</style>
<path class="st0" d="M1.5,221V41.9c0-19.6,15.9-35.5,35.5-35.5H186c19.6,0,35.5,15.9,35.5,35.5V221c0,19.6-15.9,35.5-35.5,35.5H36.9
	C17.4,256.4,1.5,240.6,1.5,221z"/>
<path class="st1" d="M14.8,222.5V40.4c0-12.1,9.8-21.8,21.8-21.8h149.7c12.1,0,21.8,9.8,21.8,21.8v182.1c0,12.1-9.8,21.8-21.8,21.8
	H36.6C24.6,244.3,14.8,234.6,14.8,222.5z"/>
<rect x="30.5" y="55" class="st2" width="162" height="152.9"/>
<text transform="matrix(1.1288 0 0 1 31.5635 195.3599)" class="st0 st3 st4">B</text>
</svg>
