<?xml version="1.0" encoding="utf-8"?>
<!-- Generator: Adobe Illustrator 23.0.3, SVG Export Plug-In . SVG Version: 6.00 Build 0)  -->
<svg version="1.1" id="Warstwa_1" xmlns="http://www.w3.org/2000/svg" xmlns:xlink="http://www.w3.org/1999/xlink" x="0px" y="0px"
	 width="137.5px" height="137.5px" viewBox="0 0 137.5 137.5" style="enable-background:new 0 0 137.5 137.5;" xml:space="preserve"
	>
<style type="text/css">
	.st0{fill:#3589BC;}
	.st1{opacity:0.3;fill:#FEFEFE;enable-background:new    ;}
	.st2{fill:#FFFFFF;}
</style>
<g>
	<path class="st0" d="M121.3,114.8c6.8-44.6,10.5-65.5,15.4-114H69.3h-1H0.7c4.9,48.6,8.6,69.3,15.4,114c12,5.4,46.1,19.8,52.1,22"
		/>
	<path class="st1" d="M71.3,10.3h-0.4v116.9l45.3-18.8c5.9-38.4,9.1-56.4,13.3-98.1C129.5,10.3,71.3,10.3,71.3,10.3z"/>
	<path class="st2" d="M21.2,28.1l2.1,11.6h13.3H40h59.9c-1,5.8-2.1,11.6-2.1,11.6s-30.5,0-50.3,0l2.1,11.6h46.1l-4.4,24.2L68.7,97.7
		L44.8,86.9L43,74.5H29.7L32.9,92l35.8,17.4l36.3-17.6l9.4-52l2.1-11.6L21.2,28.1L21.2,28.1z"/>
</g>
</svg>
