<?xml version="1.0" encoding="utf-8"?>
<!-- Generator: Adobe Illustrator 23.0.3, SVG Export Plug-In . SVG Version: 6.00 Build 0)  -->
<svg version="1.1" id="Warstwa_1" xmlns="http://www.w3.org/2000/svg" xmlns:xlink="http://www.w3.org/1999/xlink" x="0px" y="0px"
	 width="137.5px" height="137.5px" viewBox="0 0 137.5 137.5" style="enable-background:new 0 0 137.5 137.5;" xml:space="preserve"
	>
<style type="text/css">
	.st0{fill:#EEB950;}
</style>
<g>
	<path class="st0" d="M133.8,61.5L76,3.7c-4-4-10.5-4-14.5,0L43.7,21.5l19,19c1.4-0.9,3-1.4,4.8-1.4c5,0,9.1,4.1,9.1,9.1
		c0,1.8-0.5,3.4-1.4,4.8l22.2,22.2c1.1-0.5,2.3-0.7,3.6-0.7c5,0,9.1,4.1,9.1,9.1c0,5-4.1,9.1-9.1,9.1S92,88.7,92,83.7
		c0-1.3,0.3-2.5,0.7-3.6L70.9,58.2v36.4c3.4,1.3,5.8,4.6,5.8,8.5c0,5-4.1,9.1-9.1,9.1s-9.1-4.1-9.1-9.1c0-3.9,2.4-7.1,5.8-8.5V56.8
		c-3.4-1.3-5.8-4.6-5.8-8.5c0-0.8,0.1-1.5,0.3-2.3L39,26.2L3.7,61.5c-4,4-4,10.5,0,14.5l57.8,57.8c4,4,10.5,4,14.5,0L133.8,76
		C137.8,72,137.8,65.5,133.8,61.5z"/>
</g>
</svg>
