<?xml version="1.0" encoding="UTF-8" standalone="no"?>
<!-- Generator: Adobe Illustrator 23.0.3, SVG Export Plug-In . SVG Version: 6.00 Build 0)  -->

<svg
   xmlns:dc="http://purl.org/dc/elements/1.1/"
   xmlns:cc="http://creativecommons.org/ns#"
   xmlns:rdf="http://www.w3.org/1999/02/22-rdf-syntax-ns#"
   xmlns:svg="http://www.w3.org/2000/svg"
   xmlns="http://www.w3.org/2000/svg"
   xmlns:sodipodi="http://sodipodi.sourceforge.net/DTD/sodipodi-0.dtd"
   xmlns:inkscape="http://www.inkscape.org/namespaces/inkscape"
   version="1.1"
   id="Warstwa_1"
   x="0px"
   y="0px"
   width="137.5px"
   height="137.5px"
   viewBox="0 0 137.5 137.5"
   style="enable-background:new 0 0 137.5 137.5;"
   xml:space="preserve"
   sodipodi:docname="git_svg.svg"
   inkscape:version="0.92.4 (5da689c313, 2019-01-14)"><metadata
   id="metadata13"><rdf:RDF><cc:Work
       rdf:about=""><dc:format>image/svg+xml</dc:format><dc:type
         rdf:resource="http://purl.org/dc/dcmitype/StillImage" /><dc:title></dc:title></cc:Work></rdf:RDF></metadata><defs
   id="defs11" /><sodipodi:namedview
   pagecolor="#ffffff"
   bordercolor="#666666"
   borderopacity="1"
   objecttolerance="10"
   gridtolerance="10"
   guidetolerance="10"
   inkscape:pageopacity="0"
   inkscape:pageshadow="2"
   inkscape:window-width="1366"
   inkscape:window-height="705"
   id="namedview9"
   showgrid="false"
   inkscape:zoom="1.7163636"
   inkscape:cx="68.75"
   inkscape:cy="68.75"
   inkscape:window-x="-8"
   inkscape:window-y="-8"
   inkscape:window-maximized="1"
   inkscape:current-layer="Warstwa_1" />
<style
   type="text/css"
   id="style2">
	.st0{fill:#EEB950;}
</style>
<g
   id="g6">
	<path
   class="st0"
   d="M133.8,61.5L76,3.7c-4-4-10.5-4-14.5,0L43.7,21.5l19,19c1.4-0.9,3-1.4,4.8-1.4c5,0,9.1,4.1,9.1,9.1   c0,1.8-0.5,3.4-1.4,4.8l22.2,22.2c1.1-0.5,2.3-0.7,3.6-0.7c5,0,9.1,4.1,9.1,9.1c0,5-4.1,9.1-9.1,9.1S92,88.7,92,83.7   c0-1.3,0.3-2.5,0.7-3.6L70.9,58.2v36.4c3.4,1.3,5.8,4.6,5.8,8.5c0,5-4.1,9.1-9.1,9.1s-9.1-4.1-9.1-9.1c0-3.9,2.4-7.1,5.8-8.5V56.8   c-3.4-1.3-5.8-4.6-5.8-8.5c0-0.8,0.1-1.5,0.3-2.3L39,26.2L3.7,61.5c-4,4-4,10.5,0,14.5l57.8,57.8c4,4,10.5,4,14.5,0L133.8,76   C137.8,72,137.8,65.5,133.8,61.5z"
   id="path4"
   style="fill:#ffd42a;fill-opacity:1" />
</g>
</svg>