<?xml version="1.0" encoding="utf-8"?>
<!-- Generator: Adobe Illustrator 23.0.3, SVG Export Plug-In . SVG Version: 6.00 Build 0)  -->
<svg version="1.1" id="Warstwa_1" xmlns="http://www.w3.org/2000/svg" xmlns:xlink="http://www.w3.org/1999/xlink" x="0px" y="0px"
	 width="137.5px" height="137.5px" viewBox="0 0 137.5 137.5" style="enable-background:new 0 0 137.5 137.5;" xml:space="preserve"
	>
<style type="text/css">
	.st0{fill:#E74141;}
	.st1{opacity:0.3;fill:#FEFEFE;enable-background:new    ;}
	.st2{fill:#FFFFFF;}
</style>
<g>
	<path class="st0" d="M121.3,114.8c6.8-44.6,10.5-65.5,15.4-114H69.2h-1H0.7c4.9,48.6,8.6,69.3,15.4,114c12,5.4,46.1,19.8,52.1,22"
		/>
	<path class="st1" d="M69.2,8.9h-0.4v116.9l45.3-18.8c5.9-38.4,9.1-56.4,13.3-98.1C127.4,8.9,69.2,8.9,69.2,8.9z"/>
	<polygon class="st2" points="112.1,51.3 38.6,51.3 36.6,39.7 114.3,39.7 116.3,28.2 21.2,28.2 27.5,62.9 44.7,62.9 96.3,62.9 
		91.7,86.9 68.6,97.7 44.7,86.9 42.8,74.5 29.6,74.5 32.8,91.9 68.6,109.3 104.8,91.7 	"/>
</g>
</svg>
