<?xml version="1.0" encoding="utf-8"?>
<!-- Generator: Adobe Illustrator 23.0.3, SVG Export Plug-In . SVG Version: 6.00 Build 0)  -->
<svg version="1.1" id="Warstwa_1" xmlns="http://www.w3.org/2000/svg" xmlns:xlink="http://www.w3.org/1999/xlink" x="0px" y="0px"
	 width="136.1px" height="136.5px" viewBox="0 0 136.1 136.5" style="enable-background:new 0 0 136.1 136.5;" xml:space="preserve"
	>
<style type="text/css">
	.st0{fill:#3589BC;}
	.st1{fill:#FFFFFF;}
</style>
<g>
	<path class="st0" d="M53.1,130.2l-47-46.9c-8.3-8.3-8.3-21.8,0-30.1l47-46.9c8.1-8.1,21.4-8.1,29.6,0l47,46.9
		c8.3,8.3,8.3,21.8,0,30.1l-47,46.9C74.6,138.3,61.3,138.3,53.1,130.2z"/>
	<g>
		<path class="st1" d="M82.3,89.4C64,92.2,46.8,80.3,43.9,62.7c-1.6-9.5,1.4-18.7,7.3-25.5c-11.9,6.4-18.9,19.4-16.7,33.1
			C37.4,87.8,54.6,99.7,72.9,97c8.4-1.3,15.6-5.4,20.6-11.3C90.2,87.5,86.4,88.8,82.3,89.4z"/>
		<path class="st1" d="M91,73.1C76.5,75.3,62.9,65.9,60.6,52c-1.2-7.5,1.1-14.8,5.8-20.2c-9.4,5.1-15,15.4-13.2,26.2
			c2.3,13.9,15.9,23.4,30.4,21.2c6.7-1,12.3-4.3,16.3-8.9C97.2,71.6,94.2,72.6,91,73.1z"/>
		<path class="st1" d="M95.8,58.4c-9.6,1.5-18.7-4.8-20.2-14.1c-0.8-5,0.7-9.8,3.8-13.5c-6.3,3.4-10,10.2-8.8,17.4
			c1.5,9.2,10.6,15.6,20.2,14.1c4.4-0.7,8.2-2.9,10.9-5.9C99.9,57.4,97.9,58.1,95.8,58.4z"/>
	</g>
</g>
</svg>
