<?xml version="1.0" encoding="UTF-8" standalone="no"?>
<!-- Generator: Adobe Illustrator 23.0.3, SVG Export Plug-In . SVG Version: 6.00 Build 0)  -->

<svg
   xmlns:dc="http://purl.org/dc/elements/1.1/"
   xmlns:cc="http://creativecommons.org/ns#"
   xmlns:rdf="http://www.w3.org/1999/02/22-rdf-syntax-ns#"
   xmlns:svg="http://www.w3.org/2000/svg"
   xmlns="http://www.w3.org/2000/svg"
   xmlns:sodipodi="http://sodipodi.sourceforge.net/DTD/sodipodi-0.dtd"
   xmlns:inkscape="http://www.inkscape.org/namespaces/inkscape"
   version="1.1"
   id="Warstwa_1"
   x="0px"
   y="0px"
   width="136.1px"
   height="136.5px"
   viewBox="0 0 136.1 136.5"
   style="enable-background:new 0 0 136.1 136.5;"
   xml:space="preserve"
   sodipodi:docname="jquery_svg.svg"
   inkscape:version="0.92.4 (5da689c313, 2019-01-14)"><metadata
   id="metadata21"><rdf:RDF><cc:Work
       rdf:about=""><dc:format>image/svg+xml</dc:format><dc:type
         rdf:resource="http://purl.org/dc/dcmitype/StillImage" /><dc:title></dc:title></cc:Work></rdf:RDF></metadata><defs
   id="defs19" /><sodipodi:namedview
   pagecolor="#ffffff"
   bordercolor="#666666"
   borderopacity="1"
   objecttolerance="10"
   gridtolerance="10"
   guidetolerance="10"
   inkscape:pageopacity="0"
   inkscape:pageshadow="2"
   inkscape:window-width="1366"
   inkscape:window-height="705"
   id="namedview17"
   showgrid="false"
   inkscape:zoom="1.7289377"
   inkscape:cx="68.050003"
   inkscape:cy="68.25"
   inkscape:window-x="-8"
   inkscape:window-y="-8"
   inkscape:window-maximized="1"
   inkscape:current-layer="Warstwa_1" />
<style
   type="text/css"
   id="style2">
	.st0{fill:#3589BC;}
	.st1{fill:#FFFFFF;}
</style>
<g
   id="g14">
	<path
   class="st0"
   d="M53.1,130.2l-47-46.9c-8.3-8.3-8.3-21.8,0-30.1l47-46.9c8.1-8.1,21.4-8.1,29.6,0l47,46.9   c8.3,8.3,8.3,21.8,0,30.1l-47,46.9C74.6,138.3,61.3,138.3,53.1,130.2z"
   id="path4"
   style="fill:#0084a1;fill-opacity:1" />
	<g
   id="g12">
		<path
   class="st1"
   d="M82.3,89.4C64,92.2,46.8,80.3,43.9,62.7c-1.6-9.5,1.4-18.7,7.3-25.5c-11.9,6.4-18.9,19.4-16.7,33.1    C37.4,87.8,54.6,99.7,72.9,97c8.4-1.3,15.6-5.4,20.6-11.3C90.2,87.5,86.4,88.8,82.3,89.4z"
   id="path6" />
		<path
   class="st1"
   d="M91,73.1C76.5,75.3,62.9,65.9,60.6,52c-1.2-7.5,1.1-14.8,5.8-20.2c-9.4,5.1-15,15.4-13.2,26.2    c2.3,13.9,15.9,23.4,30.4,21.2c6.7-1,12.3-4.3,16.3-8.9C97.2,71.6,94.2,72.6,91,73.1z"
   id="path8" />
		<path
   class="st1"
   d="M95.8,58.4c-9.6,1.5-18.7-4.8-20.2-14.1c-0.8-5,0.7-9.8,3.8-13.5c-6.3,3.4-10,10.2-8.8,17.4    c1.5,9.2,10.6,15.6,20.2,14.1c4.4-0.7,8.2-2.9,10.9-5.9C99.9,57.4,97.9,58.1,95.8,58.4z"
   id="path10" />
	</g>
</g>
</svg>