<?xml version="1.0" encoding="utf-8"?>
<!-- Generator: Adobe Illustrator 23.0.3, SVG Export Plug-In . SVG Version: 6.00 Build 0)  -->
<svg version="1.1" id="Warstwa_1" xmlns="http://www.w3.org/2000/svg" xmlns:xlink="http://www.w3.org/1999/xlink" x="0px" y="0px"
	 width="230px" height="260px" viewBox="0 0 230 260" style="enable-background:new 0 0 230 260;" xml:space="preserve">
<style type="text/css">
	.st0{fill:#E72B5B;}
	.st1{fill:#FDFDFD;stroke:#E72B5B;stroke-miterlimit:10;}
	.st2{fill:none;}
	.st3{fill:#FFFFFF;}
	.st4{font-family:'Arial-BoldMT';}
	.st5{font-size:38.5256px;}
</style>
<path class="st0" d="M189.8,256H26.2c-0.8,0-1.5-0.7-1.5-1.5V7.5c0-0.8,0.7-1.5,1.5-1.5h163.6c0.8,0,1.5,0.7,1.5,1.5v246.9
	C191.3,255.3,190.6,256,189.8,256z"/>
<path class="st1" d="M148.7,40.9v-8.2c0-4.8-3.4-8.7-7.7-8.7H49.7c-4.2,0-7.7,3.9-7.7,8.7v196.7c0,4.8,3.4,8.7,7.7,8.7h116.6
	c4.2,0,7.7-3.9,7.7-8.7V58.2c0-4.8-3.4-8.7-7.7-8.7h-10C152.1,49.6,148.7,45.7,148.7,40.9z"/>
<path class="st0" d="M216,215.1H0c-1.1,0-2-0.9-2-2v-65.8c0-1.1,0.9-2,2-2h216c1.1,0,2,0.9,2,2v65.8
	C218,214.2,217.1,215.1,216,215.1z"/>
<rect x="4.3" y="157" class="st2" width="207.4" height="41.9"/>
<text transform="matrix(1.2105 0 0 1 79.479 190.0643)" class="st3 st4 st5">JS</text>
</svg>
