<?xml version="1.0" encoding="utf-8"?>
<!-- Generator: Adobe Illustrator 23.0.3, SVG Export Plug-In . SVG Version: 6.00 Build 0)  -->
<svg version="1.1" id="Warstwa_1" xmlns="http://www.w3.org/2000/svg" xmlns:xlink="http://www.w3.org/1999/xlink" x="0px" y="0px"
	 width="137.5px" height="137.5px" viewBox="0 0 137.5 137.5" style="enable-background:new 0 0 137.5 137.5;" xml:space="preserve"
	>
<style type="text/css">
	.st0{fill:#FEE182;}
	.st1{fill:#FFFFFF;}
	.st2{opacity:0.3;fill:#FEFEFE;enable-background:new    ;}
</style>
<g>
	<path class="st0" d="M121.3,114.8c6.8-44.6,10.5-65.5,15.4-114H69.3h-1H0.7c4.9,48.6,8.6,69.3,15.4,114c12,5.4,46.1,19.8,52.1,22"
		/>
	<path class="st1" d="M56.8,63.9L54.4,84l-12,8.8l-12.7-9l-1-10.3h-7.1l1.7,14.5l19,14.4l19.3-14.6l5-43.2l1.1-9.6H17.2V35l1.1,9.6
		h7.1h1.8H59c-0.5,4.8-1.1,9.6-1.1,9.6"/>
	<path class="st2" d="M73.4,10.3H73v116.9l45.3-18.8c5.9-38.4,9.1-56.4,13.3-98.1C131.5,10.3,73.4,10.3,73.4,10.3z"/>
	<polygon class="st1" points="74.5,35 77.9,65.8 87,65.8 114.5,65.8 112.1,82.6 99.8,92.2 87,82.6 86,71.6 79,71.6 80.7,87.1 
		99.8,102.5 119,86.9 122.9,55.5 83.8,55.5 82.7,45.2 116.6,45.2 115.9,51.3 123.2,51.3 124.1,45.2 125.2,35 	"/>
</g>
</svg>
