
<svg version="1.1" id="Warstwa_1" xmlns="http://www.w3.org/2000/svg" xmlns:xlink="http://www.w3.org/1999/xlink" x="0px" y="0px"
	 width="139.9px" height="85px" viewBox="0 0 139.9 85" style="enable-background:new 0 0 139.9 85;" xml:space="preserve">
<style type="text/css">
	.st0{fill:#00A686;}
	.st1{fill:#F26A6A;}
	.st2{fill:#ffffff;}
	.st3{fill:#66AA9C;}
	.st4{fill:#F2EB7D;}
</style>
<path class="st0" d="M115.4-3.6c2.4,5.4-8.8,14.4-6.9,16.7c1.3,1.6,6.6-3.3,14.1-2.8c8.1,0.5,17.5,7.2,16.8,13.8
	c-0.4,4.2-5,8.1-9.2,8.7c-2.6,0.4-3.3-0.7-7.7-1.5c-2.7-0.5-10.7-1.9-12.9,0.9c-3.2,4.2,8.4,14.2,5.6,18.4c-2.7,4.1-19.8,1.6-29-9.5
	c-2.5-3-4.2-6.4-5.4-10c-0.3,0.1-0.5,0.3-0.7,0.6c-3,3.7,8.4,14.3,5.6,18.4c-2.7,4.1-19.8,1.6-29-9.5c-3.7-4.5-5.8-9.9-6.5-15.5
	c-3.6,1-6.3,0.7-8.3,0.2c-2.4-0.7-3.7-1.8-6.6-2.2c-4.1-0.5-7.6,1-10,2.4l2.4-6.3c2-0.3,4.9-0.5,8.5-0.1c5,0.5,6.8,1.8,10,2
	c1.1,0.1,2.3,0,3.7-0.3c0.1-4.6,1.1-9.2,3-13.3c1-2.1,5-10.6,14.2-13.9C74.2-9.1,84-8.5,85.9-4.2c2.4,5.4-8.8,14.4-6.9,16.7
	c0.3,0.4,0.8,0.4,1.6,0.2c0.5-1.7,1.1-3.3,1.8-4.9c1-2.1,5-10.6,14.2-13.9C103.7-8.6,113.5-7.9,115.4-3.6z"/>
<path class="st1" d="M16.7,77.4c4.3-1.7,0.4-17.8,3.4-18.4c1.2-0.2,2.8,2,3.5,3.7c1.4,3.2-0.4,4.9-0.1,9.6c0.1,1.7,0.4,6.1,3.3,9.2
	c2.7,2.8,6.2,3.2,7.5,3.4c4.9,0.6,11.3-1.4,11.7-4.8c0.5-4.3-8.9-7.5-8.4-12.9c0.2-2.4,2.1-3.8,3-4.5C46.9,57.9,56.1,65,58,62
	c1.9-3-21-18-18.5-23.3c1.1-2.3,5.7-0.6,7.4-3.3c2.9-4.7-5.8-18.5-18.5-23.3c-5.1-2-10.5-2.2-15.4-1c-0.2-1.8-0.6-3.3-1.1-4.5
	c-0.2-0.5-0.7-1.8-1.7-3C8.3,1,5.9-0.2,4.8-0.7c-5.1-2.4-10.2-1.4-11.9-1C-6.4-1-5.8-0.2-5.1,0.5c1.1-0.1,4.6-0.3,8.2,2.1
	c3.2,2.2,4.6,5.2,5.1,6.2c0.6,1.3,0.9,2.5,1.1,3.4c-3.9,1.5-7.4,3.9-10.1,6.9c-1.9,2.2-7.7,8.6-6.5,17.4c0.9,7,6.1,14,9.3,13.5
	c2.3-0.3,3.8-4.6,5.6-9.5c0.6-1.6,1-3,1.2-4c0.8,2,1.8,5.3,1.6,9.2c-0.5,8.7-6.7,11-6.5,17.4C3.9,70.8,13,78.8,16.7,77.4z"/>
<path class="st2" d="M61.5,72.6c4.2-3.9-9.1-19.8-5.9-21.8c1.3-0.8,4.3,0.9,6.1,2.4c3.3,2.9,2.2,5.6,5,10.6c1.1,1.9,3.7,6.5,8.9,8.6
	c4.7,1.9,9,0.6,10.7,0.2c6.1-1.7,12.6-6.9,11.2-10.8c-1.7-4.9-14.5-4-16.9-10.2c-1-2.7,0.5-5.2,1.1-6.3c4.9-8.3,19.7-5,20.3-9.1
	c0.9-5.3-16.8-17.5-34.4-16.9c-4.7,0.2-9.2,1.3-13.2,3.1c-0.2-0.3-0.2-0.7-0.2-1c0.3-5.3,19.5-3.8,20.3-9.1
	C75.6,6.7,57.9-5.5,40.3-4.8c-7.1,0.3-13.5,2.6-18.8,6.2c-1.4,0.1-2.9,0.2-4.4,0.3C9.1,2.6,2,4.4-4,6.5c1.2,1.1,2.4,2.2,3.7,3.3
	c0.9,2.4,1.9,2.9,2.5,3.1c2.3,0.5,3.5-4,8.1-6.5c2.7-1.5,5.5-1.8,7.3-1.8c-3.8,3.5-6.6,7.8-8.2,12.4C8.4,20.3,5,30.1,11.1,39.2
	c4.9,7.3,14.7,12.5,18.2,10.5c2.5-1.4,2-6.9,1.5-13.1c-0.2-2-0.5-3.7-0.7-4.9c2,1.8,5,5,6.8,9.3c4.1,9.8-2.1,15.3,1.6,22.2
	C42.8,71.4,57.9,75.9,61.5,72.6z"/>
<path class="st3" d="M470.3-292.4"/>
<path class="st1" d="M125.8,392.5"/>
<path class="st1" d="M85.2,179.3"/>
<path class="st4" d="M-22.2,13.8"/>
</svg>
