<?xml version="1.0" encoding="UTF-8" standalone="no"?>
<svg
   xmlns:dc="http://purl.org/dc/elements/1.1/"
   xmlns:cc="http://creativecommons.org/ns#"
   xmlns:rdf="http://www.w3.org/1999/02/22-rdf-syntax-ns#"
   xmlns:svg="http://www.w3.org/2000/svg"
   xmlns="http://www.w3.org/2000/svg"
   xmlns:sodipodi="http://sodipodi.sourceforge.net/DTD/sodipodi-0.dtd"
   xmlns:inkscape="http://www.inkscape.org/namespaces/inkscape"
   version="1.1"
   id="Warstwa_1"
   x="0px"
   y="0px"
   width="387.95062"
   height="296.36298"
   viewBox="0 0 387.95062 296.36299"
   xml:space="preserve"
   sodipodi:docname="leaf_down.svg"
   inkscape:version="0.92.4 (5da689c313, 2019-01-14)"><metadata
   id="metadata13"><rdf:RDF><cc:Work
       rdf:about=""><dc:format>image/svg+xml</dc:format><dc:type
         rdf:resource="http://purl.org/dc/dcmitype/StillImage" /><dc:title></dc:title></cc:Work></rdf:RDF></metadata><defs
   id="defs11" /><sodipodi:namedview
   pagecolor="#ffffff"
   bordercolor="#666666"
   borderopacity="1"
   objecttolerance="10"
   gridtolerance="10"
   guidetolerance="10"
   inkscape:pageopacity="0"
   inkscape:pageshadow="2"
   inkscape:window-width="1366"
   inkscape:window-height="705"
   id="namedview9"
   showgrid="false"
   inkscape:zoom="0.78719149"
   inkscape:cx="280.31851"
   inkscape:cy="151.46852"
   inkscape:window-x="-8"
   inkscape:window-y="-8"
   inkscape:window-maximized="1"
   inkscape:current-layer="Warstwa_1" />
<style
   type="text/css"
   id="style2">
	.st0{fill:#77DC99;}
	.st1{fill:#EEEEEF;}
</style>
<path
   class="st0"
   d="m 264,296.36298 c 88.8,-10.9 131.7,-73.7 122.8,-123.8 -6.9,-38.6 -48,-62.2 -86.4,-59.4 -38.5,2.9 -73.4,51.1 -86.4,43.2 -10.2,-6.2 30.2,-55.1 25.9,-89.599999 -4.7,-37.5 -38,-63.0999996 -81.5,-66.39999956 -6.7,-0.5 -51.1,-3.80000004 -77.7,25.19999956 -32.1,35.1 -11.9,86.899999 -41.8,104.399999 -12.8,7.5 -28.2,4.9 -38.9,1.8 0,54.8 0,109.7 0,164.5 96.4,0.1 167.7,0.1 264,0.1 z"
   id="path4"
   inkscape:connector-curvature="0"
   style="fill:#77dc99;stroke:none" />

</svg>