<?xml version="1.0" encoding="UTF-8" standalone="no"?>
<!-- Created with Inkscape (http://www.inkscape.org/) -->

<svg
   xmlns:dc="http://purl.org/dc/elements/1.1/"
   xmlns:cc="http://creativecommons.org/ns#"
   xmlns:rdf="http://www.w3.org/1999/02/22-rdf-syntax-ns#"
   xmlns:svg="http://www.w3.org/2000/svg"
   xmlns="http://www.w3.org/2000/svg"
   xmlns:sodipodi="http://sodipodi.sourceforge.net/DTD/sodipodi-0.dtd"
   xmlns:inkscape="http://www.inkscape.org/namespaces/inkscape"
   width="14.133322mm"
   height="21.333902mm"
   viewBox="0 0 14.133322 21.333902"
   version="1.1"
   id="svg1637"
   inkscape:version="0.92.4 (5da689c313, 2019-01-14)"
   sodipodi:docname="leaf_bright_svg.svg">
  <defs
     id="defs1631" />
  <sodipodi:namedview
     id="base"
     pagecolor="#ffffff"
     bordercolor="#666666"
     borderopacity="1.0"
     inkscape:pageopacity="0.0"
     inkscape:pageshadow="2"
     inkscape:zoom="3.959798"
     inkscape:cx="-39.69573"
     inkscape:cy="10.757309"
     inkscape:document-units="mm"
     inkscape:current-layer="g2202"
     showgrid="false"
     inkscape:window-width="1366"
     inkscape:window-height="705"
     inkscape:window-x="-8"
     inkscape:window-y="-8"
     inkscape:window-maximized="1" />
  <metadata
     id="metadata1634">
    <rdf:RDF>
      <cc:Work
         rdf:about="">
        <dc:format>image/svg+xml</dc:format>
        <dc:type
           rdf:resource="http://purl.org/dc/dcmitype/StillImage" />
        <dc:title></dc:title>
      </cc:Work>
    </rdf:RDF>
  </metadata>
  <g
     inkscape:label="Layer 1"
     inkscape:groupmode="layer"
     id="layer1"
     transform="translate(12.439868,-296.52346)">
    <g
       transform="matrix(0.26458333,0,0,0.26458333,-233.5339,268.30615)"
       id="g2202">
      <g
         transform="translate(3.9559341e-6,-57.142874)"
         id="g2227">
        <path
           style="fill:#d5d717;fill-opacity:1"
           inkscape:connector-curvature="0"
           class="st4"
           d="m 888.5,190.8 c -2.8,-20.3 -2.2,-20.8 -2.2,-26 0,-0.5 -0.1,-0.8 -0.4,-0.9 -0.3,-0.2 -0.7,-0.1 -1.1,0.1 -4.6,2.6 -4.1,3.4 -23.4,11 -19.6,7.6 -22.9,19.8 -24.5,24.2 -4.1,11.5 2.5,22.9 8.9,30.9 0.5,0.6 0.9,1.1 1.1,1.3 5,0.2 22.6,3.3 32,-7.9 3.1,-3.7 12.5,-12.1 9.6,-32.7 z"
           id="path14" />
        <path
           style="fill:#d5d717;fill-opacity:1"
           inkscape:connector-curvature="0"
           class="st4"
           d="m 843.3,243.2 0.2,-1.3 c 0.7,-4 2.3,-7.7 4.2,-11.3 l 1.8,-4.1 -2.6,3.6 c -2.2,3.4 -4.6,6.7 -7.7,9.3 l -1,0.8 c -0.8,0.7 -0.6,1.9 0.3,2.4 l 1.3,0.7 1.3,0.8 c 0.8,0.7 2,0.2 2.2,-0.9 z"
           id="path16" />
      </g>
    </g>
  </g>
</svg>
