
<svg version="1.1" id="Warstwa_1" xmlns="http://www.w3.org/2000/svg" xmlns:xlink="http://www.w3.org/1999/xlink" x="0px" y="0px"
	 width="420.1px" height="299.8px" viewBox="0 0 420.1 299.8" style="enable-background:new 0 0 420.1 299.8;" xml:space="preserve"
	>
<style type="text/css">
	.st0{fill:#77DC99;}
	.st1{fill:#EEEEEF;}
</style>
<path class="st0" d="M195.3,299.8C284.1,288.9,327,226.1,318.1,176c-6.9-38.6-48-62.2-86.4-59.4c-38.5,2.9-73.4,51.1-86.4,43.2
	c-10.2-6.2,30.2-55.1,25.9-89.6c-4.7-37.5-38-63.1-81.5-66.4C83,3.3,38.6,0,12,29c-32.1,35.1-11.9,86.9-41.8,104.4
	c-12.8,7.5-28.2,4.9-38.9,1.8c0,54.8,0,109.7,0,164.5C27.7,299.8,99,299.8,195.3,299.8z"/>
<path class="st1" d="M276.9,223.9"/>
</svg>
