<?xml version="1.0" encoding="UTF-8" standalone="no"?>
<!-- Created with Inkscape (http://www.inkscape.org/) -->

<svg
   xmlns:dc="http://purl.org/dc/elements/1.1/"
   xmlns:cc="http://creativecommons.org/ns#"
   xmlns:rdf="http://www.w3.org/1999/02/22-rdf-syntax-ns#"
   xmlns:svg="http://www.w3.org/2000/svg"
   xmlns="http://www.w3.org/2000/svg"
   xmlns:xlink="http://www.w3.org/1999/xlink"
   xmlns:sodipodi="http://sodipodi.sourceforge.net/DTD/sodipodi-0.dtd"
   xmlns:inkscape="http://www.inkscape.org/namespaces/inkscape"
   width="49.299763mm"
   height="49.998016mm"
   viewBox="0 0 52.175565 53.666133"
   version="1.1"
   id="svg6614"
   inkscape:version="0.92.4 (5da689c313, 2019-01-14)"
   sodipodi:docname="learning_mu.svg">
  <defs
     id="defs6608">
    <filter
       inkscape:collect="always"
       style="color-interpolation-filters:sRGB"
       id="filter1926"
       x="-0.037462775"
       width="1.0749255"
       y="-0.065928675"
       height="1.1318573">
      <feGaussianBlur
         inkscape:collect="always"
         stdDeviation="5.738566"
         id="feGaussianBlur1928" />
    </filter>
    <linearGradient
       inkscape:collect="always"
       xlink:href="#linearGradient1417"
       id="linearGradient3929"
       gradientUnits="userSpaceOnUse"
       gradientTransform="translate(-1729.619,-42.333333)"
       x1="-300.40637"
       y1="365.6933"
       x2="-138.85858"
       y2="365.6933" />
    <linearGradient
       inkscape:collect="always"
       id="linearGradient1417">
      <stop
         style="stop-color:#0b280b;stop-opacity:1;"
         offset="0"
         id="stop1413" />
      <stop
         style="stop-color:#0b280b;stop-opacity:0;"
         offset="1"
         id="stop1415" />
    </linearGradient>
    <filter
       inkscape:collect="always"
       style="color-interpolation-filters:sRGB"
       id="filter1717"
       x="-0.03594967"
       width="1.0718993"
       y="-0.036050472"
       height="1.0721009">
      <feGaussianBlur
         inkscape:collect="always"
         stdDeviation="2.4263546"
         id="feGaussianBlur1719" />
    </filter>
    <filter
       inkscape:collect="always"
       style="color-interpolation-filters:sRGB"
       id="filter1653"
       x="-0.073200002"
       width="1.1464"
       y="-0.073200002"
       height="1.1464">
      <feGaussianBlur
         inkscape:collect="always"
         stdDeviation="3.5276518"
         id="feGaussianBlur1655" />
    </filter>
    <filter
       inkscape:collect="always"
       style="color-interpolation-filters:sRGB"
       id="filter1677"
       x="-0.048911065"
       width="1.0978221"
       y="-0.13637902"
       height="1.272758">
      <feGaussianBlur
         inkscape:collect="always"
         stdDeviation="3.675746"
         id="feGaussianBlur1679" />
    </filter>
    <filter
       inkscape:collect="always"
       style="color-interpolation-filters:sRGB"
       id="filter1705"
       x="-0.032389998"
       width="1.06478"
       y="-0.092653185"
       height="1.1853064">
      <feGaussianBlur
         inkscape:collect="always"
         stdDeviation="2.3829172"
         id="feGaussianBlur1707" />
    </filter>
    <filter
       inkscape:collect="always"
       style="color-interpolation-filters:sRGB"
       id="filter1922"
       x="-0.037462775"
       width="1.0749255"
       y="-0.065928675"
       height="1.1318573">
      <feGaussianBlur
         inkscape:collect="always"
         stdDeviation="5.738566"
         id="feGaussianBlur1924" />
    </filter>
    <filter
       inkscape:collect="always"
       style="color-interpolation-filters:sRGB"
       id="filter1870"
       x="-0.019313339"
       width="1.0386267"
       y="-0.03169005"
       height="1.0633801">
      <feGaussianBlur
         inkscape:collect="always"
         stdDeviation="1.7129321"
         id="feGaussianBlur1872" />
    </filter>
    <filter
       inkscape:collect="always"
       style="color-interpolation-filters:sRGB"
       id="filter2560"
       x="-0.32851306"
       width="1.6570261"
       y="-0.32851306"
       height="1.6570261">
      <feGaussianBlur
         inkscape:collect="always"
         stdDeviation="43.006836"
         id="feGaussianBlur2562" />
    </filter>
    <filter
       inkscape:collect="always"
       style="color-interpolation-filters:sRGB"
       id="filter2556"
       x="-0.32851306"
       width="1.6570261"
       y="-0.32851306"
       height="1.6570261">
      <feGaussianBlur
         inkscape:collect="always"
         stdDeviation="43.006836"
         id="feGaussianBlur2558" />
    </filter>
    <linearGradient
       inkscape:collect="always"
       xlink:href="#linearGradient2641"
       id="linearGradient3933"
       gradientUnits="userSpaceOnUse"
       gradientTransform="matrix(0.00368774,0,0,0.00266801,14.72223,236.12741)"
       x1="321.875"
       y1="3903.7698"
       x2="325"
       y2="3385.0198" />
    <linearGradient
       inkscape:collect="always"
       id="linearGradient2641">
      <stop
         style="stop-color:#ff8080;stop-opacity:1"
         offset="0"
         id="stop2637" />
      <stop
         style="stop-color:#e9afaf;stop-opacity:1"
         offset="1"
         id="stop2639" />
    </linearGradient>
    <linearGradient
       inkscape:collect="always"
       xlink:href="#linearGradient1417"
       id="linearGradient7745"
       gradientUnits="userSpaceOnUse"
       gradientTransform="translate(-1729.619,-42.333333)"
       x1="-300.40637"
       y1="365.6933"
       x2="-138.85858"
       y2="365.6933" />
  </defs>
  <sodipodi:namedview
     id="base"
     pagecolor="#ffffff"
     bordercolor="#666666"
     borderopacity="1.0"
     inkscape:pageopacity="0.0"
     inkscape:pageshadow="2"
     inkscape:zoom="1"
     inkscape:cx="126.65251"
     inkscape:cy="110.83618"
     inkscape:document-units="mm"
     inkscape:current-layer="layer1"
     showgrid="false"
     inkscape:window-width="1366"
     inkscape:window-height="705"
     inkscape:window-x="-8"
     inkscape:window-y="-8"
     inkscape:window-maximized="1"
     inkscape:snap-global="false" />
  <metadata
     id="metadata6611">
    <rdf:RDF>
      <cc:Work
         rdf:about="">
        <dc:format>image/svg+xml</dc:format>
        <dc:type
           rdf:resource="http://purl.org/dc/dcmitype/StillImage" />
        <dc:title></dc:title>
      </cc:Work>
    </rdf:RDF>
  </metadata>
  <g
     inkscape:label="Layer 1"
     inkscape:groupmode="layer"
     id="layer1"
     transform="translate(8.1163901,-204.96747)">
    <g
       id="g6247">
      <ellipse
         ry="19.425142"
         rx="19.425053"
         style="opacity:1;fill:#d5d717;fill-opacity:1;stroke:#000000;stroke-width:0.83739388;stroke-linejoin:round;stroke-miterlimit:4;stroke-dasharray:none;stroke-opacity:1;paint-order:stroke fill markers"
         id="circle3771"
         cx="16.840517"
         cy="238.78976" />
      <path
         inkscape:connector-curvature="0"
         style="opacity:1;fill:#184a45;fill-opacity:1;stroke:none;stroke-width:0.01091319;stroke-linejoin:round;stroke-miterlimit:4;stroke-dasharray:none;stroke-opacity:1;paint-order:stroke fill markers"
         d="m 17.36048,253.72062 c -3.903741,0.006 -7.7063875,0.46523 -10.8805819,1.54021 a 19.425055,19.425144 0 0 0 10.3333509,3.00365 19.425055,19.425144 0 0 0 10.448529,-3.07581 c -2.969825,-0.8829 -6.398694,-1.46498 -9.901298,-1.46805 z"
         id="path3773" />
      <path
         style="opacity:1;fill:#ffd42a;fill-opacity:1;stroke:none;stroke-width:0.07791261;stroke-linejoin:round;stroke-miterlimit:4;stroke-dasharray:none;stroke-opacity:1;paint-order:stroke fill markers"
         d="m 7.6450014,223.90849 c -1.4640056,9.59575 -4.0823477,21.94797 -4.242946,31.73655 3.6803328,0.0142 10.0429796,-1.22464 10.5131566,-2.80271 1.037932,-3.48365 3.850233,-2.97993 6.316167,0.6382 1.408992,2.06735 7.007428,2.19404 10.189612,2.19404 -0.185363,-10.72059 -2.571938,-22.33857 -4.28803,-31.64758 z"
         id="path3777"
         inkscape:connector-curvature="0"
         sodipodi:nodetypes="ccssccc" />
      <path
         style="opacity:1;fill:#ffdaa7;fill-opacity:1;stroke:none;stroke-width:0.01060604;stroke-linejoin:round;stroke-miterlimit:4;stroke-dasharray:none;stroke-opacity:1;paint-order:stroke fill markers"
         d="m 13.32581,249.07317 0.01078,4.42258 c -1.535374,0.94477 -3.132385,1.16641 -4.7210709,1.57069 0.1131133,0.5951 0.102542,0.66779 0.1825313,1.36184 2.5222376,1.16373 5.2631186,1.76492 8.0408436,1.77858 2.662781,-0.008 5.295353,-0.56465 7.734213,-1.63349 0.187947,-0.69555 0.133798,-0.49357 0.293617,-1.19299 -1.25343,-0.18379 -3.736837,-0.58535 -4.822995,-2.14147 l 0.07891,-4.16574 z"
         id="path3779"
         inkscape:connector-curvature="0"
         sodipodi:nodetypes="cccccccccc" />
      <path
         style="opacity:1;fill:#f1c27d;fill-opacity:1;stroke:none;stroke-width:0.1792165;stroke-linejoin:round;stroke-miterlimit:4;stroke-dasharray:none;stroke-opacity:1;paint-order:stroke fill markers"
         d="m 13.377346,248.50628 v 1.98932 c 1.034118,0.4615 2.108721,0.74275 3.190877,0.74275 1.113436,0 2.293654,-0.31473 3.45135,-0.82206 v -1.91001 z"
         id="path3787"
         inkscape:connector-curvature="0" />
      <path
         style="opacity:0.97000002;fill:#ffdbac;fill-opacity:1;stroke:none;stroke-width:0.17918444;stroke-linejoin:round;stroke-miterlimit:4;stroke-dasharray:none;stroke-opacity:1;paint-order:stroke fill markers"
         d="m 26.250293,235.92478 c 0,3.11629 0.411777,7.88082 -1.698092,10.08436 -2.179108,2.27585 -4.719758,4.56646 -7.909708,4.56646 -3.18995,0 -5.620149,-2.09286 -7.8757851,-4.29641 -2.2556373,-2.20355 -2.0926976,-7.36446 -2.0926976,-10.48075 0,-3.11629 -0.7103011,-5.7355 1.5453347,-7.93904 2.255636,-2.20355 5.31493,-3.44151 8.504883,-3.44151 3.189951,0 6.249248,1.23796 8.504884,3.44151 2.255636,2.20354 1.021181,4.9491 1.021181,8.06538 z"
         id="path3789"
         inkscape:connector-curvature="0"
         sodipodi:nodetypes="scscsssss" />
      <path
         sodipodi:nodetypes="ccccc"
         inkscape:connector-curvature="0"
         id="rect4047"
         d="m 5.6615079,237.31451 0.4085267,-1.97979 0.6246877,1.98268 0.4123368,2.29115 z"
         style="opacity:1;fill:#1a1a1a;fill-opacity:1;stroke:none;stroke-width:0.21599351;stroke-linecap:round;stroke-linejoin:round;stroke-miterlimit:4;stroke-dasharray:none;stroke-opacity:1;paint-order:markers stroke fill" />
      <path
         style="opacity:1;fill:#ffdd55;fill-opacity:1;stroke:none;stroke-width:0.07791261;stroke-linejoin:round;stroke-miterlimit:4;stroke-dasharray:none;stroke-opacity:1;paint-order:stroke fill markers"
         d="m 3.8937803,237.80027 c 0,-5.89185 0.7318252,-13.39794 5.4972,-16.34387 4.7653777,-2.94594 10.4216077,-3.14585 15.1869817,-0.19992 4.765373,2.94594 5.5152,8.48783 5.5152,14.37969 0,0 -7.9519,-8.35565 -13.80675,-8.65327 -6.5772328,-0.33433 -13.1351186,10.51047 -12.3926317,10.81737 z"
         id="path3791"
         inkscape:connector-curvature="0"
         sodipodi:nodetypes="csscsc" />
      <g
         id="g3831"
         transform="matrix(0.01558249,0,0,0.01558256,42.428488,231.96514)"
         style="stroke:none">
        <path
           style="opacity:1;fill:#f1c27d;fill-opacity:1;stroke:none;stroke-width:5.38320255;stroke-linejoin:round;stroke-miterlimit:4;stroke-dasharray:none;stroke-opacity:1;paint-order:stroke fill markers"
           d="m -2217.7557,115.57147 c 0,0 317.8943,-108.462957 424.0893,-2.26786 19.9562,19.95613 26.4584,86.93452 26.4584,86.93452 -166.0576,-20.90481 -300.3651,-40.34623 -450.5477,0 z"
           id="path3793"
           inkscape:connector-curvature="0"
           sodipodi:nodetypes="csccc" />
        <path
           style="opacity:1;fill:#f1c27d;fill-opacity:1;stroke:none;stroke-width:5.10419369;stroke-linejoin:round;stroke-miterlimit:4;stroke-dasharray:none;stroke-opacity:1;paint-order:stroke fill markers"
           d="m -1746.1198,324.79348 c 47.5266,51.16542 -86.0903,121.15265 -196.9506,121.15265 -110.8604,0 -200.7304,-56.61105 -200.7304,-126.44432 0,-69.83326 90.4894,-138.14637 200.7304,-126.44431 102.4915,10.87945 167.5664,100.10212 196.9506,131.73598 z"
           id="path3795"
           inkscape:connector-curvature="0"
           sodipodi:nodetypes="sssss" />
        <path
           style="fill:#000000;stroke:none;stroke-width:0.1182288px;stroke-linecap:butt;stroke-linejoin:miter;stroke-opacity:1"
           d="m -2073.2184,200.2317 c -59.8819,88.05079 -0.1578,119.24136 6.9121,117.70257 l 23.4267,-16.25011 c -21.2368,-21.01225 -32.7121,-30.33476 -30.3388,-101.45246 z"
           id="path3797"
           inkscape:connector-curvature="0"
           sodipodi:nodetypes="cccc" />
        <path
           style="fill:#000000;stroke:none;stroke-width:0.1182288px;stroke-linecap:butt;stroke-linejoin:miter;stroke-opacity:1"
           d="m -2184.6521,269.20111 c 45.5762,95.04846 107.0766,66.9418 109.6555,60.68333 l -1.4763,-26.98719 c -30.7851,4.43434 -45.594,7.96883 -108.1792,-33.69614 z"
           id="path3799"
           inkscape:connector-curvature="0"
           sodipodi:nodetypes="cccc" />
        <path
           sodipodi:nodetypes="cccc"
           inkscape:connector-curvature="0"
           id="path3801"
           d="m -2143.4038,220.65399 c -4.0868,103.84672 64.5585,103.33875 69.8462,98.74848 l 11.4716,-24.8676 c -29.792,-8.41162 -44.7878,-11.19754 -81.3178,-73.88088 z"
           style="fill:#000000;stroke:none;stroke-width:0.1182288px;stroke-linecap:butt;stroke-linejoin:miter;stroke-opacity:1" />
        <path
           sodipodi:nodetypes="cccc"
           inkscape:connector-curvature="0"
           id="path3803"
           d="m -2032.7558,199.77792 c -85.3335,63.69448 -39.0543,112.6645 -31.8693,113.5166 l 27.4467,-7.71735 c -13.219,-26.79135 -21.0246,-39.34776 4.4226,-105.79925 z"
           style="fill:#000000;stroke:none;stroke-width:0.1182288px;stroke-linecap:butt;stroke-linejoin:miter;stroke-opacity:1" />
        <path
           sodipodi:nodetypes="cccc"
           inkscape:connector-curvature="0"
           id="path3805"
           d="m -2108.6899,378.61114 c 21.9765,-104.19129 89.2412,-77.17565 93.0315,-71.01255 l 4.5206,28.15035 c -29.8657,-0.74764 -41.8913,6.18255 -97.5521,42.8622 z"
           style="fill:#000000;stroke:none;stroke-width:0.1182288px;stroke-linecap:butt;stroke-linejoin:miter;stroke-opacity:1" />
        <path
           style="fill:#000000;stroke:none;stroke-width:0.1182288px;stroke-linecap:butt;stroke-linejoin:miter;stroke-opacity:1"
           d="m -2125.2289,372.14787 c 15.1969,-105.39376 84.0669,-82.78177 88.2476,-76.87651 l 6.3304,27.79934 c -29.8515,1.18407 -41.4041,8.87696 -94.578,49.07717 z"
           id="path3807"
           inkscape:connector-curvature="0"
           sodipodi:nodetypes="cccc" />
        <path
           style="opacity:1;fill:#000000;fill-opacity:1;stroke:none;stroke-width:5.35382175;stroke-linejoin:round;stroke-miterlimit:4;stroke-dasharray:none;stroke-opacity:1;paint-order:stroke fill markers;filter:url(#filter1926)"
           d="m -1751.8633,349.3367 c -35.4733,50.74989 -101.5784,75.21678 -202.6741,75.21678 -101.0957,0 -180.615,-68.26577 -162.329,-120.67099 19.2409,-55.14172 97.6494,-104.43186 196.3706,-83.18044 101.3116,21.80904 141.3444,88.20554 168.6325,128.63465 z"
           id="path3809"
           inkscape:connector-curvature="0"
           sodipodi:nodetypes="csssc" />
        <path
           sodipodi:nodetypes="sscsccs"
           style="opacity:0.98999999;fill:#ffffff;fill-opacity:1;stroke:none;stroke-width:5.19402456;stroke-linejoin:round;stroke-miterlimit:4;stroke-dasharray:none;stroke-opacity:1;paint-order:stroke fill markers"
           d="m -1950.9919,226.79732 c -74.992,0.12277 -131.6014,40.23167 -147.4558,84.24498 -14.287,39.66189 31.9968,88.836 101.4303,107.52608 11.7412,1.91267 23.9708,2.95055 36.5395,2.95055 99.6513,0 165.215,-22.44756 199.8051,-71.14633 -25.5877,-36.72244 -62.7471,-97.90791 -152.0926,-120.25665 -13.1694,-2.28333 -25.945,-3.33874 -38.2265,-3.31863 z"
           id="path3811"
           inkscape:connector-curvature="0" />
        <circle
           cy="323.94971"
           cx="-1950.3213"
           id="circle3813"
           style="opacity:1;fill:#80b78a;fill-opacity:1;stroke:none;stroke-width:0.0750456;stroke-linejoin:round;stroke-miterlimit:4;stroke-dasharray:none;stroke-opacity:1;paint-order:stroke fill markers"
           r="95.581955" />
        <path
           sodipodi:type="star"
           style="opacity:1;fill:url(#linearGradient7745);fill-opacity:1;stroke:none;stroke-width:0.14517134;stroke-linejoin:round;stroke-miterlimit:4;stroke-dasharray:none;stroke-opacity:1;paint-order:stroke fill markers;filter:url(#filter1717)"
           id="path3815"
           sodipodi:sides="21"
           sodipodi:cx="-1949.2515"
           sodipodi:cy="322.47253"
           sodipodi:r1="47.919106"
           sodipodi:r2="81.218826"
           sodipodi:arg1="0.52359878"
           sodipodi:arg2="0.67319843"
           inkscape:flatsided="false"
           inkscape:rounded="0"
           inkscape:randomized="0"
           d="m -1907.7523,346.43209 22.0003,26.67955 -30.9062,-15.51192 13.1589,31.97896 -24.9608,-23.93252 3.1483,34.43688 -16.7977,-30.22662 -7.142,33.83494 -7.1419,-33.83494 -16.7977,30.22662 3.1483,-34.43688 -24.9609,23.93252 13.159,-31.97896 -30.9062,15.51192 22.0003,-26.67955 -34.1053,5.71301 28.8868,-19.00956 -34.2741,-4.59352 33.2066,-9.65049 -31.3974,-14.49189 34.5759,0.56608 -25.7309,-23.1026 32.8729,10.73234 -17.7782,-29.66054 28.249,19.94499 -8.2457,-33.58301 21.1151,27.38544 2.0194,-34.52148 12.105,32.39257 12.1051,-32.39257 2.0193,34.52148 21.1152,-27.38544 -8.2458,33.58301 28.2491,-19.94499 -17.7782,29.66054 32.8729,-10.73234 -25.7309,23.1026 34.5758,-0.56607 -31.3974,14.49189 33.2067,9.65049 -34.2741,4.59351 28.8868,19.00956 z"
           inkscape:transform-center-x="5.218182"
           inkscape:transform-center-y="2.6234569" />
        <circle
           r="57.830357"
           cy="322.3244"
           cx="-1949.9791"
           id="circle3817"
           style="opacity:0.58600003;fill:#ffd42a;fill-opacity:1;stroke:none;stroke-width:0.26499999;stroke-linejoin:round;stroke-miterlimit:4;stroke-dasharray:none;stroke-opacity:1;paint-order:stroke fill markers;filter:url(#filter1653)" />
        <circle
           cy="323.94971"
           cx="-1950.3213"
           id="circle3819"
           style="opacity:0.98999999;fill:#000000;fill-opacity:1;stroke:none;stroke-width:0.03868802;stroke-linejoin:round;stroke-miterlimit:4;stroke-dasharray:none;stroke-opacity:1;paint-order:stroke fill markers"
           r="49.27507" />
        <path
           style="opacity:0.36300001;fill:#000000;fill-opacity:1;stroke:none;stroke-width:7.98358202;stroke-linejoin:round;stroke-miterlimit:4;stroke-dasharray:none;stroke-opacity:1;paint-order:stroke fill markers;filter:url(#filter1677)"
           d="m -1950.3212,228.36764 c -40.5068,0.0512 -76.5826,25.62958 -90.0357,63.83709 50.6141,-35.81908 95.3966,-28.24952 180.3639,0.84874 -13.1999,-38.64385 -49.4922,-64.63347 -90.3282,-64.68583 z"
           id="path3821"
           inkscape:connector-curvature="0"
           sodipodi:nodetypes="cccc" />
        <circle
           style="opacity:0.98999999;fill:#ffffff;fill-opacity:1;stroke:none;stroke-width:0.0907073;stroke-linejoin:round;stroke-miterlimit:4;stroke-dasharray:none;stroke-opacity:1;paint-order:stroke fill markers"
           id="circle3823"
           cx="-1994.7261"
           cy="282.77756"
           r="23.802254" />
        <path
           style="opacity:0.30199998;fill:#ffffff;fill-opacity:1;stroke:none;stroke-width:7.98358202;stroke-linejoin:round;stroke-miterlimit:4;stroke-dasharray:none;stroke-opacity:1;paint-order:stroke fill markers;filter:url(#filter1705)"
           d="m -1861.7499,357.8068 c -46.5791,45.02884 -113.5437,50.00633 -176.5669,3.21492 14.9039,35.41846 49.5691,58.46801 87.9956,58.5099 33.2451,-0.0487 64.0769,-17.36848 81.4146,-45.73475 2.8336,-5.03684 5.2401,-10.37901 7.1567,-15.99007 z"
           id="path3825"
           inkscape:connector-curvature="0"
           sodipodi:nodetypes="ccccc" />
        <circle
           r="9.3395777"
           cy="319.08032"
           cx="-1973.7572"
           id="circle3827"
           style="opacity:0.98999999;fill:#ffffff;fill-opacity:1;stroke:none;stroke-width:0.03559192;stroke-linejoin:round;stroke-miterlimit:4;stroke-dasharray:none;stroke-opacity:1;paint-order:stroke fill markers" />
        <path
           style="opacity:1;fill:#ffbd00;fill-opacity:1;stroke:none;stroke-width:5.38320255;stroke-linejoin:round;stroke-miterlimit:4;stroke-dasharray:none;stroke-opacity:1;paint-order:stroke fill markers"
           d="m -2219.2676,100.45242 c 0,0 330.4546,-95.504319 436.6497,10.69078 19.9561,19.95612 13.898,73.97588 13.898,73.97588 -197.3581,-31.99588 -341.4799,-18.56797 -450.5477,0 z"
           id="path3829"
           inkscape:connector-curvature="0"
           sodipodi:nodetypes="csccc" />
      </g>
      <g
         transform="matrix(-0.01558249,0,0,0.01558256,-8.9663593,231.96514)"
         id="g3871"
         style="stroke:none">
        <path
           sodipodi:nodetypes="csccc"
           inkscape:connector-curvature="0"
           id="path3833"
           d="m -2217.7557,115.57147 c 0,0 317.8943,-108.462957 424.0893,-2.26786 19.9562,19.95613 26.4584,86.93452 26.4584,86.93452 -166.0576,-20.90481 -300.3651,-40.34623 -450.5477,0 z"
           style="opacity:1;fill:#f1c27d;fill-opacity:1;stroke:none;stroke-width:5.38320255;stroke-linejoin:round;stroke-miterlimit:4;stroke-dasharray:none;stroke-opacity:1;paint-order:stroke fill markers" />
        <path
           sodipodi:nodetypes="sssss"
           inkscape:connector-curvature="0"
           id="path3835"
           d="m -1746.1198,324.79348 c 47.5266,51.16542 -86.0903,121.15265 -196.9506,121.15265 -110.8604,0 -200.7304,-56.61105 -200.7304,-126.44432 0,-69.83326 90.4894,-138.14637 200.7304,-126.44431 102.4915,10.87945 167.5664,100.10212 196.9506,131.73598 z"
           style="opacity:1;fill:#f1c27d;fill-opacity:1;stroke:none;stroke-width:5.10419369;stroke-linejoin:round;stroke-miterlimit:4;stroke-dasharray:none;stroke-opacity:1;paint-order:stroke fill markers" />
        <path
           sodipodi:nodetypes="cccc"
           inkscape:connector-curvature="0"
           id="path3837"
           d="m -2073.2184,200.2317 c -59.8819,88.05079 -0.1578,119.24136 6.9121,117.70257 l 23.4267,-16.25011 c -21.2368,-21.01225 -32.7121,-30.33476 -30.3388,-101.45246 z"
           style="fill:#000000;stroke:none;stroke-width:0.1182288px;stroke-linecap:butt;stroke-linejoin:miter;stroke-opacity:1" />
        <path
           sodipodi:nodetypes="cccc"
           inkscape:connector-curvature="0"
           id="path3839"
           d="m -2184.6521,269.20111 c 45.5762,95.04846 107.0766,66.9418 109.6555,60.68333 l -1.4763,-26.98719 c -30.7851,4.43434 -45.594,7.96883 -108.1792,-33.69614 z"
           style="fill:#000000;stroke:none;stroke-width:0.1182288px;stroke-linecap:butt;stroke-linejoin:miter;stroke-opacity:1" />
        <path
           style="fill:#000000;stroke:none;stroke-width:0.1182288px;stroke-linecap:butt;stroke-linejoin:miter;stroke-opacity:1"
           d="m -2143.4038,220.65399 c -4.0868,103.84672 64.5585,103.33875 69.8462,98.74848 l 11.4716,-24.8676 c -29.792,-8.41162 -44.7878,-11.19754 -81.3178,-73.88088 z"
           id="path3841"
           inkscape:connector-curvature="0"
           sodipodi:nodetypes="cccc" />
        <path
           style="fill:#000000;stroke:none;stroke-width:0.1182288px;stroke-linecap:butt;stroke-linejoin:miter;stroke-opacity:1"
           d="m -2032.7558,199.77792 c -85.3335,63.69448 -39.0543,112.6645 -31.8693,113.5166 l 27.4467,-7.71735 c -13.219,-26.79135 -21.0246,-39.34776 4.4226,-105.79925 z"
           id="path3843"
           inkscape:connector-curvature="0"
           sodipodi:nodetypes="cccc" />
        <path
           style="fill:#000000;stroke:none;stroke-width:0.1182288px;stroke-linecap:butt;stroke-linejoin:miter;stroke-opacity:1"
           d="m -2108.6899,378.61114 c 21.9765,-104.19129 89.2412,-77.17565 93.0315,-71.01255 l 4.5206,28.15035 c -29.8657,-0.74764 -41.8913,6.18255 -97.5521,42.8622 z"
           id="path3845"
           inkscape:connector-curvature="0"
           sodipodi:nodetypes="cccc" />
        <path
           sodipodi:nodetypes="cccc"
           inkscape:connector-curvature="0"
           id="path3847"
           d="m -2125.2289,372.14787 c 15.1969,-105.39376 84.0669,-82.78177 88.2476,-76.87651 l 6.3304,27.79934 c -29.8515,1.18407 -41.4041,8.87696 -94.578,49.07717 z"
           style="fill:#000000;stroke:none;stroke-width:0.1182288px;stroke-linecap:butt;stroke-linejoin:miter;stroke-opacity:1" />
        <path
           sodipodi:nodetypes="csssc"
           inkscape:connector-curvature="0"
           id="path3849"
           d="m -1751.8633,349.3367 c -35.4733,50.74989 -101.5784,75.21678 -202.6741,75.21678 -101.0957,0 -180.615,-68.26577 -162.329,-120.67099 19.2409,-55.14172 97.6494,-104.43186 196.3706,-83.18044 101.3116,21.80904 141.3444,88.20554 168.6325,128.63465 z"
           style="opacity:1;fill:#000000;fill-opacity:1;stroke:none;stroke-width:5.35382175;stroke-linejoin:round;stroke-miterlimit:4;stroke-dasharray:none;stroke-opacity:1;paint-order:stroke fill markers;filter:url(#filter1922)" />
        <path
           inkscape:connector-curvature="0"
           id="path3851"
           d="m -1950.9919,226.79732 c -74.992,0.12277 -131.6014,40.23167 -147.4558,84.24498 -14.287,39.66189 31.9968,88.836 101.4303,107.52608 11.7412,1.91267 23.9708,2.95055 36.5395,2.95055 99.6513,0 165.215,-22.44756 199.8051,-71.14633 -25.5877,-36.72244 -62.7471,-97.90791 -152.0926,-120.25665 -13.1694,-2.28333 -25.945,-3.33874 -38.2265,-3.31863 z"
           style="opacity:0.98999999;fill:#ffffff;fill-opacity:1;stroke:none;stroke-width:5.19402456;stroke-linejoin:round;stroke-miterlimit:4;stroke-dasharray:none;stroke-opacity:1;paint-order:stroke fill markers"
           sodipodi:nodetypes="sscsccs" />
        <circle
           r="95.581955"
           style="opacity:0.98999999;fill:#80b78a;fill-opacity:1;stroke:none;stroke-width:0.0750456;stroke-linejoin:round;stroke-miterlimit:4;stroke-dasharray:none;stroke-opacity:1;paint-order:stroke fill markers"
           id="circle3853"
           cx="-1950.3213"
           cy="323.94971" />
        <path
           inkscape:transform-center-y="2.6234569"
           inkscape:transform-center-x="5.218182"
           d="m -1907.7523,346.43209 22.0003,26.67955 -30.9062,-15.51192 13.1589,31.97896 -24.9608,-23.93252 3.1483,34.43688 -16.7977,-30.22662 -7.142,33.83494 -7.1419,-33.83494 -16.7977,30.22662 3.1483,-34.43688 -24.9609,23.93252 13.159,-31.97896 -30.9062,15.51192 22.0003,-26.67955 -34.1053,5.71301 28.8868,-19.00956 -34.2741,-4.59352 33.2066,-9.65049 -31.3974,-14.49189 34.5759,0.56608 -25.7309,-23.1026 32.8729,10.73234 -17.7782,-29.66054 28.249,19.94499 -8.2457,-33.58301 21.1151,27.38544 2.0194,-34.52148 12.105,32.39257 12.1051,-32.39257 2.0193,34.52148 21.1152,-27.38544 -8.2458,33.58301 28.2491,-19.94499 -17.7782,29.66054 32.8729,-10.73234 -25.7309,23.1026 34.5758,-0.56607 -31.3974,14.49189 33.2067,9.65049 -34.2741,4.59351 28.8868,19.00956 z"
           inkscape:randomized="0"
           inkscape:rounded="0"
           inkscape:flatsided="false"
           sodipodi:arg2="0.67319843"
           sodipodi:arg1="0.52359878"
           sodipodi:r2="81.218826"
           sodipodi:r1="47.919106"
           sodipodi:cy="322.47253"
           sodipodi:cx="-1949.2515"
           sodipodi:sides="21"
           id="path3855"
           style="opacity:1;fill:url(#linearGradient3929);fill-opacity:1;stroke:none;stroke-width:0.14517134;stroke-linejoin:round;stroke-miterlimit:4;stroke-dasharray:none;stroke-opacity:1;paint-order:stroke fill markers;filter:url(#filter1717)"
           sodipodi:type="star" />
        <circle
           style="opacity:0.58600003;fill:#ffd42a;fill-opacity:1;stroke:none;stroke-width:0.26499999;stroke-linejoin:round;stroke-miterlimit:4;stroke-dasharray:none;stroke-opacity:1;paint-order:stroke fill markers;filter:url(#filter1653)"
           id="circle3857"
           cx="-1949.9791"
           cy="322.3244"
           r="57.830357" />
        <circle
           r="49.27507"
           style="opacity:0.98999999;fill:#000000;fill-opacity:1;stroke:none;stroke-width:0.03868802;stroke-linejoin:round;stroke-miterlimit:4;stroke-dasharray:none;stroke-opacity:1;paint-order:stroke fill markers"
           id="circle3859"
           cx="-1950.3213"
           cy="323.94971" />
        <path
           sodipodi:nodetypes="cccc"
           inkscape:connector-curvature="0"
           id="path3861"
           d="m -1950.3212,228.36764 c -40.5068,0.0512 -76.5826,25.62958 -90.0357,63.83709 50.6141,-35.81908 95.3966,-28.24952 180.3639,0.84874 -13.1999,-38.64385 -49.4922,-64.63347 -90.3282,-64.68583 z"
           style="opacity:0.36300001;fill:#000000;fill-opacity:1;stroke:none;stroke-width:7.98358202;stroke-linejoin:round;stroke-miterlimit:4;stroke-dasharray:none;stroke-opacity:1;paint-order:stroke fill markers;filter:url(#filter1677)" />
        <circle
           r="23.802254"
           cy="282.77756"
           cx="-1994.7261"
           id="circle3863"
           style="opacity:0.98999999;fill:#ffffff;fill-opacity:1;stroke:none;stroke-width:0.0907073;stroke-linejoin:round;stroke-miterlimit:4;stroke-dasharray:none;stroke-opacity:1;paint-order:stroke fill markers" />
        <path
           sodipodi:nodetypes="ccccc"
           inkscape:connector-curvature="0"
           id="path3865"
           d="m -1861.7499,357.8068 c -46.5791,45.02884 -113.5437,50.00633 -176.5669,3.21492 14.9039,35.41846 49.5691,58.46801 87.9956,58.5099 33.2451,-0.0487 64.0769,-17.36848 81.4146,-45.73475 2.8336,-5.03684 5.2401,-10.37901 7.1567,-15.99007 z"
           style="opacity:0.30199998;fill:#ffffff;fill-opacity:1;stroke:none;stroke-width:7.98358202;stroke-linejoin:round;stroke-miterlimit:4;stroke-dasharray:none;stroke-opacity:1;paint-order:stroke fill markers;filter:url(#filter1705)" />
        <circle
           style="opacity:0.98999999;fill:#ffffff;fill-opacity:1;stroke:none;stroke-width:0.03559192;stroke-linejoin:round;stroke-miterlimit:4;stroke-dasharray:none;stroke-opacity:1;paint-order:stroke fill markers"
           id="circle3867"
           cx="-1973.7572"
           cy="319.08032"
           r="9.3395777" />
        <path
           sodipodi:nodetypes="csccc"
           inkscape:connector-curvature="0"
           id="path3869"
           d="m -2219.2676,100.45242 c 0,0 330.4546,-95.504319 436.6497,10.69078 19.9561,19.95612 13.898,73.97588 13.898,73.97588 -197.3581,-31.99588 -341.4799,-18.56797 -450.5477,0 z"
           style="opacity:1;fill:#ffbd00;fill-opacity:1;stroke:none;stroke-width:5.38320255;stroke-linejoin:round;stroke-miterlimit:4;stroke-dasharray:none;stroke-opacity:1;paint-order:stroke fill markers" />
      </g>
      <path
         style="opacity:1;fill:#1a1a1a;fill-opacity:1;stroke:none;stroke-width:0.21599351;stroke-linecap:round;stroke-linejoin:round;stroke-miterlimit:4;stroke-dasharray:none;stroke-opacity:1;paint-order:markers stroke fill"
         d="m 27.982484,237.31451 -0.408528,-1.97979 -0.624687,1.98268 -0.574624,2.12157 z"
         id="path4050"
         inkscape:connector-curvature="0"
         sodipodi:nodetypes="ccccc" />
      <path
         sodipodi:nodetypes="cscc"
         inkscape:connector-curvature="0"
         id="path3873"
         d="m 16.307265,228.74449 c 0,0 0.551243,3.93093 6.930099,4.86443 5.464116,0.79962 6.335117,8.49844 6.335117,8.49844 5.243878,-14.53857 -11.479141,-22.65968 -13.265216,-13.36287 z"
         style="fill:#ffcc00;fill-opacity:1;stroke:none;stroke-width:0.07791261;stroke-linecap:butt;stroke-linejoin:miter;stroke-miterlimit:4;stroke-dasharray:none;stroke-opacity:1" />
      <path
         sodipodi:nodetypes="ccsc"
         inkscape:connector-curvature="0"
         id="path3875"
         d="m 15.735491,227.16689 c 1.398551,0.0224 -0.227467,5.13071 -1.045034,7.14979 2.530976,-1.17995 4.260265,-4.51381 4.210689,-6.18822 -0.05147,-1.73852 -3.165655,-0.96157 -3.165655,-0.96157 z"
         style="opacity:0.97000002;fill:#ffcc00;fill-opacity:1;stroke:none;stroke-width:0.07791261;stroke-linecap:butt;stroke-linejoin:miter;stroke-miterlimit:4;stroke-dasharray:none;stroke-opacity:1" />
      <path
         style="fill:#ffcc00;fill-opacity:1;stroke:none;stroke-width:0.07791261;stroke-linecap:butt;stroke-linejoin:miter;stroke-miterlimit:4;stroke-dasharray:none;stroke-opacity:1"
         d="m 17.675558,228.65026 c 0,0 -0.551245,3.93091 -6.930099,4.86442 -5.4641187,0.79963 -6.3351169,8.49843 -6.3351169,8.49843 -5.24387879,-14.53855 11.4791419,-22.65968 13.2652159,-13.36285 z"
         id="path3877"
         inkscape:connector-curvature="0"
         sodipodi:nodetypes="cscc" />
      <path
         style="opacity:1;fill:#37483e;fill-opacity:1;stroke:none;stroke-width:0.07791261;stroke-linejoin:round;stroke-miterlimit:4;stroke-dasharray:none;stroke-opacity:1;paint-order:stroke fill markers"
         d="m 7.9889451,224.75201 c -2.0506004,2.59405 -2.9107309,6.41251 -3.0883903,10.04692 0.00457,-0.004 0.00909,-0.009 0.013672,-0.0132 6.6e-6,0 0,0 0,0 0.05505,-0.0721 0.1113078,-0.14482 0.1687512,-0.21822 7.703e-4,-0.001 0.00156,-0.002 0.00235,-0.003 0.057048,-0.0729 0.1152536,-0.14638 0.174603,-0.22043 8.541e-4,-0.001 0.0017,-0.002 0.00255,-0.003 0.058297,-0.0728 0.1176771,-0.14593 0.1781368,-0.21963 0.00358,-0.004 0.00716,-0.009 0.010741,-0.0131 0.7485181,-0.91113 1.6598315,-1.89145 2.6852916,-2.81098 0.028562,-0.0255 0.057207,-0.0512 0.085944,-0.0768 0.057311,-0.0509 0.1149603,-0.1016 0.1729582,-0.15202 4.69e-4,-3.8e-4 8.877e-4,-7.8e-4 0.00134,-10e-4 0.027898,-0.0243 0.055886,-0.0484 0.083938,-0.0727 0.00148,-0.001 0.00294,-0.002 0.00441,-0.004 0.05684,-0.049 0.1140009,-0.0977 0.1714694,-0.14612 0.00304,-0.003 0.0061,-0.005 0.00913,-0.008 0.027081,-0.0229 0.054223,-0.0456 0.081442,-0.0683 9.714e-4,-8.1e-4 0.00193,-0.002 0.0029,-0.002 0.058692,-0.049 0.1176972,-0.0977 0.1770096,-0.14603 0.00144,-10e-4 0.00289,-0.002 0.00434,-0.003 0.026702,-0.0219 0.053473,-0.0434 0.080298,-0.0652 0.00418,-0.003 0.00835,-0.007 0.012531,-0.0102 0.057566,-0.0464 0.115401,-0.0925 0.1735243,-0.13841 0.00375,-0.003 0.00752,-0.006 0.011265,-0.009 0.025161,-0.0198 0.050376,-0.0395 0.075642,-0.0593 0.005,-0.004 0.00999,-0.008 0.014987,-0.0118 0.028484,-0.0222 0.057016,-0.0443 0.085629,-0.0663 0.030298,-0.0234 0.060674,-0.0465 0.091114,-0.0698 0.00193,-0.001 0.00387,-0.003 0.0058,-0.004 0.026746,-0.0203 0.053553,-0.0406 0.080404,-0.0608 0.00572,-0.004 0.011463,-0.008 0.0172,-0.013 0.025992,-0.0195 0.052026,-0.0389 0.078117,-0.0584 0.00295,-0.002 0.0059,-0.004 0.00886,-0.006 0.029761,-0.0221 0.059584,-0.0441 0.08947,-0.066 0.00347,-0.002 0.00692,-0.005 0.010385,-0.007 0.025335,-0.0186 0.050727,-0.037 0.076152,-0.0554 0.00709,-0.005 0.014178,-0.0103 0.021272,-0.0154 0.024111,-0.0175 0.048269,-0.0348 0.072457,-0.052 0.00523,-0.004 0.01045,-0.007 0.015686,-0.0112 0.029293,-0.0209 0.05864,-0.0417 0.088045,-0.0624 0.0044,-0.003 0.0089,-0.006 0.01328,-0.009 0.02497,-0.0176 0.04998,-0.035 0.07503,-0.0524 0.0074,-0.005 0.01489,-0.0103 0.02234,-0.0155 0.0233,-0.0162 0.04664,-0.0322 0.07001,-0.0482 0.0067,-0.005 0.01338,-0.009 0.02008,-0.0138 0.02947,-0.0201 0.05899,-0.0402 0.08856,-0.0602 0.0032,-0.002 0.0064,-0.004 0.0096,-0.006 0.02594,-0.0175 0.05192,-0.0349 0.07794,-0.0522 0.0084,-0.005 0.01672,-0.0111 0.02509,-0.0167 0.02287,-0.0152 0.04577,-0.0303 0.0687,-0.0454 0.0071,-0.005 0.0143,-0.009 0.02146,-0.0141 0.02951,-0.0193 0.05907,-0.0385 0.08868,-0.0576 0.0036,-0.002 0.0073,-0.005 0.01094,-0.007 0.02588,-0.0168 0.0518,-0.0332 0.07777,-0.0498 0.01782,-0.0113 0.03566,-0.0227 0.05352,-0.034 0.0018,-0.001 0.0034,-0.002 0.0052,-0.003 0.02124,-0.0134 0.04251,-0.0268 0.0638,-0.04 0.0068,-0.004 0.0135,-0.008 0.02025,-0.0127 0.02131,-0.0133 0.04263,-0.0265 0.064,-0.0396 0,-2e-5 0,-4e-5 2.02e-4,-7e-5 2.84e-4,-1.7e-4 5.86e-4,-3.6e-4 8.88e-4,-5.4e-4 0.02179,-0.0134 0.04361,-0.0268 0.06544,-0.04 0.0056,-0.003 0.01127,-0.007 0.01692,-0.0103 0.0015,-9.2e-4 0.003,-0.002 0.0045,-0.003 1.658149,-1.34111 3.504707,-2.26074 5.352928,-2.15972 1.493525,0.0817 3.133774,0.76953 4.727896,1.72493 2.872385,1.19634 5.00383,2.92417 7.22018,4.45738 -0.143128,-3.44069 -0.915117,-6.03268 -2.492543,-8.53102 -3.404954,-4.74914 -13.938413,-4.53355 -17.8240272,0.11779 z"
         id="path3879"
         inkscape:connector-curvature="0"
         sodipodi:nodetypes="cccccccccccccccccccccccccccccccccccccccccccccccscccsccccccccccccccscccc" />
      <path
         inkscape:connector-curvature="0"
         style="fill:#ffd42a;fill-opacity:1;stroke:none;stroke-width:0.07791261;stroke-linecap:butt;stroke-linejoin:miter;stroke-miterlimit:4;stroke-dasharray:none;stroke-opacity:1"
         d="m 14.103962,223.41153 c -7.4460598,-0.0102 -12.2804089,8.87377 -10.2469516,17.6054 0,0 0.3998161,-7.62652 5.8639324,-8.44363 3.0530442,-0.45657 4.7710022,-1.61479 5.7326142,-2.69845 0.0988,0.12115 0.187663,0.21239 0.268137,0.27865 -0.240929,1.40262 -0.556503,2.75753 -0.834186,3.64719 0.911217,-0.88028 2.217071,-2.26643 3.416871,-3.73735 0.961611,1.08364 2.679571,2.24187 5.732614,2.69843 5.464118,0.81712 6.097155,8.34368 6.097155,8.34368 2.033456,-8.73163 -3.034114,-17.51566 -10.480174,-17.50544 -0.760131,0.004 -1.656414,0.17636 -2.425501,0.36863 -0.872517,-0.25176 -2.117917,-0.55106 -3.124511,-0.55711 z"
         id="path3881" />
      <g
         id="g3887"
         transform="matrix(0.02086758,0,0,0.01908561,13.505848,226.28268)"
         style="stroke:none">
        <path
           style="opacity:1;fill:#f1c27d;fill-opacity:1;stroke:none;stroke-width:0.13236907;stroke-linejoin:round;stroke-miterlimit:4;stroke-dasharray:none;stroke-opacity:1;paint-order:stroke fill markers;filter:url(#filter1870)"
           d="m 248.03634,812.77838 c -18.66148,-42.59291 -59.50192,-87.57003 -102.21155,-87.69977 -43.01481,-0.13067 -88.16494,56.50809 -103.356892,87.69977 -20.64565,42.38903 48.467754,42.01203 105.233902,42.01203 56.76616,0 119.62971,2.02717 100.33454,-42.01203 z"
           id="path3883"
           inkscape:connector-curvature="0"
           sodipodi:nodetypes="sascs" />
        <path
           sodipodi:nodetypes="cccccccscsccccscccc"
           inkscape:connector-curvature="0"
           id="path3885"
           d="m 142.02089,721.6495 c -6.82822,0.0183 -13.60666,1.07369 -33.44608,10.11861 -19.839391,9.04494 -50.101368,44.2019 -61.902728,65.54917 -9.153413,16.55739 -0.666729,28.42858 16.521223,36.46358 3.856386,-7.99334 11.943257,-13.0783 20.818201,-13.09044 12.784928,6e-5 23.148944,10.36436 29.762874,18.23485 2.03727,2.4243 4.78199,4.17651 9.76827,6.33652 4.98629,2.15989 11.7886,2.33956 18.47824,2.33956 0.97652,0 1.95629,-0.0117 2.93603,-0.0164 0.97951,0.0117 1.95909,0.0164 2.93539,0.0164 6.68974,0 13.49196,-0.17967 18.47824,-2.33956 4.98631,-2.16001 7.73101,-3.91222 9.76827,-6.33652 6.61393,-7.87049 16.97792,-18.23475 29.76291,-18.23485 8.87494,0.0121 16.96179,5.0971 20.81816,13.09044 17.18796,-8.035 25.67468,-19.90619 16.52126,-36.46358 -11.80139,-21.34727 -42.06333,-56.50427 -61.90276,-65.54919 -19.83942,-9.04493 -26.61778,-10.10032 -33.44608,-10.11859 -0.97745,-0.004 -1.9561,0.0217 -2.93539,0.0708 -0.97952,-0.0493 -1.95836,-0.0734 -2.93603,-0.0708 z"
           style="opacity:1;fill:#ffdaa7;fill-opacity:1;stroke:none;stroke-width:0.1216767;stroke-linejoin:round;stroke-miterlimit:4;stroke-dasharray:none;stroke-opacity:1;paint-order:stroke fill markers" />
      </g>
      <circle
         style="opacity:0.88999999;fill:#fed1ab;fill-opacity:1;stroke:none;stroke-width:8.31443119;stroke-linejoin:round;stroke-miterlimit:4;stroke-dasharray:none;stroke-opacity:1;paint-order:stroke fill markers;filter:url(#filter2560)"
         id="circle3889"
         cx="-348.91934"
         cy="761.67444"
         r="157.09636"
         transform="matrix(0.01674261,0,0,0.01571447,15.849314,229.80605)" />
      <circle
         transform="matrix(0.01674261,0,0,0.01571447,28.904434,229.80605)"
         r="157.09636"
         cy="761.67444"
         cx="-348.91934"
         id="circle3891"
         style="opacity:0.88999999;fill:#fed1ab;fill-opacity:1;stroke:none;stroke-width:8.31443119;stroke-linejoin:round;stroke-miterlimit:4;stroke-dasharray:none;stroke-opacity:1;paint-order:stroke fill markers;filter:url(#filter2556)" />
      <path
         style="opacity:1;fill:#ffcc00;fill-opacity:1;stroke:none;stroke-width:0.07075965;stroke-linejoin:round;stroke-miterlimit:4;stroke-dasharray:none;stroke-opacity:1;paint-order:stroke fill markers"
         d="m 14.103958,223.41153 c -3.066129,-0.004 -5.6893666,1.49976 -7.572636,3.88013 0,0 2.716188,-2.62508 5.006746,-3.27254 1.323835,-0.37419 3.73126,-0.0588 5.694095,0.22489 2.037304,-0.54965 4.165896,-0.2644 5.570721,0.25024 2.882892,1.05613 4.383882,2.79741 4.383882,2.79741 -1.918952,-2.27234 -4.532818,-3.69578 -7.532794,-3.69166 -0.760129,0.004 -1.656413,0.17637 -2.4255,0.36865 -0.872517,-0.25177 -2.117917,-0.55107 -3.124514,-0.55712 z"
         id="path3901"
         inkscape:connector-curvature="0"
         sodipodi:nodetypes="ccscscccc" />
      <g
         transform="matrix(0.01900349,0,0,0.01900356,72.518205,227.42676)"
         id="g4045">
        <path
           style="opacity:1;fill:#f1c27d;fill-opacity:1;stroke:none;stroke-width:5.8393693;stroke-linecap:round;stroke-linejoin:round;stroke-miterlimit:4;stroke-dasharray:none;stroke-opacity:1;paint-order:markers stroke fill"
           d="m -2993.8908,627.33233 c 0,-28.8348 -9.4215,-43.07689 15.5501,-57.49429 24.9717,-14.4174 55.738,-14.4174 80.7097,0 24.9717,14.41741 19.6842,27.00585 19.6842,55.84065 -68.8019,-41.87987 -53.1615,-37.51221 -115.944,1.65364 z"
           id="path3913"
           inkscape:connector-curvature="0"
           sodipodi:nodetypes="csscc" />
        <path
           inkscape:connector-curvature="0"
           id="path3905"
           d="m -2617.5492,341.34776 c -77.4521,0.0314 -149.3678,41.37921 -203.1987,109.04486 -23.111,29.05062 -39.7336,58.67841 -49.1462,87.31534 -19.1149,94.78004 33.832,174.19419 171.0626,186.90091 18.2094,2.3331 36.4045,3.72763 54.3084,3.96855 l 174.4863,-334.56092 c -16.5224,-13.4663 -36.0199,-25.05298 -58.3829,-34.34945 -30.048,-12.49127 -59.9809,-18.33115 -89.1295,-18.31929 z"
           style="opacity:0.3;fill:#ffffff;fill-opacity:1;stroke:none;stroke-width:1.71374011;stroke-linecap:round;stroke-linejoin:round;stroke-miterlimit:4;stroke-dasharray:none;stroke-opacity:1;paint-order:stroke fill markers" />
        <path
           sodipodi:nodetypes="ccccccccc"
           inkscape:connector-curvature="0"
           id="path3907"
           d="m -2411.1557,564.96907 c -2.9692,16.30996 1.4256,34.17516 -5.6079,51.09457 -38.3525,92.25789 -127.533,121.17983 -225.1175,119.99371 -18.6503,-0.22664 -37.6034,-1.53886 -56.5719,-3.7343 -124.734,-14.43668 -177.8797,-74.65262 -174.2495,-148.6541 -16.7108,84.36615 33.783,155.96645 171.345,171.88787 18.9684,2.19543 37.9222,3.50766 56.5725,3.73432 97.5845,1.18611 177.9946,-28.90514 216.347,-121.16301 10.4147,-25.05277 15.7063,-49.61745 17.2823,-73.15906 z"
           style="opacity:1;fill:#f1c27d;fill-opacity:1;stroke:none;stroke-width:14.11488342;stroke-linecap:round;stroke-linejoin:round;stroke-miterlimit:4;stroke-dasharray:none;stroke-opacity:1;paint-order:markers stroke fill" />
        <path
           sodipodi:nodetypes="cccsc"
           inkscape:connector-curvature="0"
           id="path3909"
           d="m -2468.4268,394.20054 c -57.4211,105.9261 -117.6903,222.00198 -176.8324,333.95142 68.1784,-2.66566 120.3525,-10.57621 160.8556,-34.03886 26.0972,-18.49456 47.3573,-44.02243 61.6032,-78.29112 33.8483,-81.42322 8.5833,-168.96446 -45.6264,-221.62144 z"
           style="opacity:0.5;fill:#f2f2f2;fill-opacity:1;stroke:none;stroke-width:1.93205464;stroke-linecap:round;stroke-linejoin:round;stroke-miterlimit:4;stroke-dasharray:none;stroke-opacity:1;paint-order:stroke fill markers" />
        <path
           inkscape:connector-curvature="0"
           id="path3911"
           d="m -3458.8818,520.66948 c -7.1565,36.91731 -2.4859,77.8064 15.088,120.08098 38.3525,92.25787 127.5324,121.17982 225.1169,119.99371 18.6503,-0.22666 37.6041,-1.53889 56.5725,-3.73432 118.0973,-13.66856 172.0193,-68.37532 174.3426,-136.96469 -12.7738,57.47812 -67.0206,101.64567 -171.438,113.73092 -18.9685,2.19544 -37.9222,3.50766 -56.5725,3.7343 -97.5846,1.18612 -186.7644,-27.73582 -225.1169,-119.99371 -13.9634,-33.58939 -19.781,-66.30419 -17.9926,-96.84719 z"
           style="opacity:1;fill:#f1c27d;fill-opacity:1;stroke:none;stroke-width:14.11492062;stroke-linecap:round;stroke-linejoin:round;stroke-miterlimit:4;stroke-dasharray:none;stroke-opacity:1;paint-order:normal" />
        <path
           inkscape:connector-curvature="0"
           id="path3915"
           d="m -2617.5491,341.34765 c -77.4521,0.0315 -149.3678,41.37915 -203.1987,109.0448 -98.852,124.25743 -79.0398,259.08515 116.2581,281.6889 18.9685,2.19545 37.9221,3.50786 56.5724,3.73452 97.5846,1.18611 186.7647,-27.73586 225.1172,-119.99373 33.8497,-81.42647 19.8355,-157.71681 -34.3795,-210.37399 -18.9517,-18.4071 -42.7765,-33.9488 -71.2402,-45.78142 -30.0481,-12.49127 -59.9807,-18.33094 -89.1293,-18.31908 z"
           style="opacity:1;fill:none;fill-opacity:1;stroke:#1a1a1a;stroke-width:14.11488342;stroke-linecap:round;stroke-linejoin:round;stroke-miterlimit:4;stroke-dasharray:none;stroke-opacity:1;paint-order:markers stroke fill" />
        <path
           sodipodi:nodetypes="cccccsccc"
           inkscape:connector-curvature="0"
           id="path3917"
           d="m -3252.1766,342.80079 c -29.1486,-0.0118 -59.0815,5.82802 -89.1295,18.31929 -10.4929,4.36199 -20.3533,9.22889 -29.5736,14.55671 -20.0909,16.24941 -38.8534,35.80407 -56.045,58.0806 -12.0845,15.65887 -22.4623,31.45042 -31.0958,47.17285 -12.2578,40.9999 -9.1036,87.7576 11.0945,136.34477 34.4331,82.82971 53.6618,75.61308 122.9052,101.94722 l 179.7687,-343.90851 c -48.7496,-46.11123 -45.3062,-32.48753 -107.9245,-32.51293 z"
           style="opacity:0.5;fill:#f2f2f2;fill-opacity:1;stroke:none;stroke-width:1.7342695;stroke-linecap:round;stroke-linejoin:round;stroke-miterlimit:4;stroke-dasharray:none;stroke-opacity:1;paint-order:stroke fill markers" />
        <path
           sodipodi:nodetypes="ccccsc"
           inkscape:connector-curvature="0"
           id="path3919"
           d="m -3142.2743,372.95837 -182.6404,347.75521 c 9.8619,0.55764 93.0178,16.67775 103.1062,16.55513 18.6503,-0.22665 37.604,-1.53888 56.5725,-3.73435 195.2979,-22.60371 215.1101,-157.43129 116.2581,-281.68871 -10.2747,-12.91536 -81.7912,-67.99384 -93.2964,-78.88728 z"
           style="opacity:0.3;fill:#ffffff;fill-opacity:1;stroke:none;stroke-width:2.77008843;stroke-linecap:round;stroke-linejoin:round;stroke-miterlimit:4;stroke-dasharray:none;stroke-opacity:1;paint-order:stroke fill markers" />
        <path
           style="opacity:1;fill:none;fill-opacity:1;stroke:#1a1a1a;stroke-width:14.11492062;stroke-linecap:round;stroke-linejoin:round;stroke-miterlimit:4;stroke-dasharray:none;stroke-opacity:1;paint-order:normal"
           d="m -3252.1768,342.80068 c 77.4521,0.0315 149.3678,41.37915 203.1987,109.0448 98.852,124.25743 79.0398,259.08515 -116.2581,281.6889 -18.9685,2.19545 -37.9221,3.50786 -56.5724,3.73452 -97.5846,1.18611 -186.7647,-27.73586 -225.1172,-119.99373 -33.8497,-81.42647 -19.8355,-157.71681 34.3795,-210.37399 18.9517,-18.4071 42.7765,-33.9488 71.2402,-45.78142 30.0481,-12.49127 59.9807,-18.33094 89.1293,-18.31908 z"
           id="path3921"
           inkscape:connector-curvature="0" />
        <path
           sodipodi:nodetypes="csscc"
           inkscape:connector-curvature="0"
           id="path3923"
           d="m -2993.1647,607.00284 c 0,-28.83479 -9.4216,-43.07689 15.5501,-57.49428 24.9717,-14.4174 55.738,-14.4174 80.7096,0 24.9717,14.4174 19.6843,27.00585 19.6843,55.84064 -62.4698,-32.22395 -47.0855,-39.31773 -115.944,1.65364 z"
           style="opacity:1;fill:#1a1a1a;fill-opacity:1;stroke:#1a1a1a;stroke-width:5.8393693;stroke-linecap:round;stroke-linejoin:round;stroke-miterlimit:4;stroke-dasharray:none;stroke-opacity:1;paint-order:markers stroke fill" />
        <path
           inkscape:connector-curvature="0"
           id="path3925"
           d="m -3386.6798,586.60615 -107.6366,-110.08293 26.9091,-73.38859 70.9424,95.40517 z"
           style="fill:none;stroke:none;stroke-width:0.27676576px;stroke-linecap:butt;stroke-linejoin:miter;stroke-opacity:1" />
      </g>
      <path
         sodipodi:nodetypes="ccccccc"
         inkscape:connector-curvature="0"
         id="rect4072"
         d="m 35.887472,212.04666 c 1.489871,1.28256 2.782571,2.29862 4.066394,4.5651 1.62918,1.07543 3.484712,2.71904 4.328022,4.24637 l -5.547461,5.73069 c -0.860352,-1.30186 -3.336711,-2.88585 -4.646333,-3.91498 -1.10049,-1.59459 -2.698011,-4.0526 -3.880025,-4.82865 z"
         style="opacity:1;fill:#002255;fill-opacity:1;stroke:#000000;stroke-width:0.28513744;stroke-linecap:round;stroke-linejoin:round;stroke-miterlimit:4;stroke-dasharray:none;stroke-opacity:1;paint-order:markers stroke fill" />
      <path
         sodipodi:nodetypes="cccccccc"
         inkscape:connector-curvature="0"
         id="path4254"
         d="m 37.551069,214.42847 c -0.588939,-0.60562 -1.204526,-1.14395 -1.772442,-1.61422 l -4.890544,5.02087 c 1.347215,1.32581 2.541644,3.05723 3.430857,4.61197 1.517444,1.11522 3.263969,2.08362 4.482892,3.56663 l 4.874411,-5.03754 c -1.173869,-1.47807 -2.452685,-2.89875 -4.167517,-3.90436 -0.511185,-0.9995 -1.200448,-1.86469 -1.957657,-2.64335 z"
         style="opacity:1;fill:#4d4d4d;fill-opacity:1;stroke:#000000;stroke-width:0.28227568;stroke-linecap:round;stroke-linejoin:round;stroke-miterlimit:4;stroke-dasharray:none;stroke-opacity:1;paint-order:markers stroke fill" />
      <path
         inkscape:connector-curvature="0"
         id="path4338"
         d="m 37.361229,214.62467 c -0.588925,-0.60565 -1.203989,-1.14451 -1.771287,-1.61542 l -4.648573,4.77211 c 0.384093,0.37823 0.755965,0.78925 1.112102,1.21949 1.028366,0.97726 1.811006,2.08382 2.487101,3.21124 0.779828,0.62171 1.55433,1.23616 2.268908,1.88545 0.747034,0.55115 1.456694,1.14731 2.044992,1.86177 l 4.633086,-4.78814 c -1.175277,-1.47661 -2.45462,-2.89674 -4.165375,-3.90656 -0.513694,-0.99693 -1.203763,-1.86127 -1.960954,-2.63994 z"
         style="opacity:1;fill:#666666;fill-opacity:1;stroke:#000000;stroke-width:0.2797544;stroke-linecap:round;stroke-linejoin:round;stroke-miterlimit:4;stroke-dasharray:none;stroke-opacity:1;paint-order:markers stroke fill" />
      <path
         id="path4268"
         d="m 37.551069,214.42847 c -0.588939,-0.60562 -1.204526,-1.14395 -1.772442,-1.61422 l -4.869518,4.9993 c 1.704071,1.18743 2.836212,2.70362 3.764832,4.26071 1.543402,1.22687 3.066247,2.42523 4.141959,3.92491 l 4.860343,-5.02299 c -1.173869,-1.47807 -2.452685,-2.89875 -4.167517,-3.90436 -0.511185,-0.9995 -1.200448,-1.86469 -1.957657,-2.64335 z"
         style="opacity:1;fill:#808080;fill-opacity:1;stroke:none;stroke-width:0.28130451;stroke-linecap:round;stroke-linejoin:round;stroke-miterlimit:4;stroke-dasharray:none;stroke-opacity:1;paint-order:markers stroke fill"
         inkscape:connector-curvature="0" />
      <path
         style="opacity:1;fill:#ffffff;fill-opacity:1;stroke:#000000;stroke-width:0.27573153;stroke-linecap:round;stroke-linejoin:round;stroke-miterlimit:4;stroke-dasharray:none;stroke-opacity:1;paint-order:markers stroke fill"
         d="m 36.023085,212.53332 -4.966029,5.13223 c 1.668437,1.26455 2.863709,2.68176 3.791515,4.22238 1.497236,1.27541 2.986824,2.50695 4.11066,3.94425 l 4.966031,-5.13222 c -1.180563,-1.47269 -2.450958,-2.88006 -4.149362,-3.90425 -0.928331,-1.75827 -2.46003,-3.18061 -3.752815,-4.26239 z"
         id="path4250"
         inkscape:connector-curvature="0"
         sodipodi:nodetypes="ccccccc" />
      <g
         transform="matrix(0.01459789,0.01508643,-0.00767343,0.00793023,154.39111,296.82965)"
         id="g4248"
         style="stroke:#000000">
        <path
           style="fill:none;stroke:#000000;stroke-width:6.5999999;stroke-linecap:butt;stroke-linejoin:miter;stroke-miterlimit:4;stroke-dasharray:none;stroke-opacity:1"
           d="m -6811.7683,2764.1321 h 200.0911"
           id="path4083"
           inkscape:connector-curvature="0" />
        <path
           inkscape:connector-curvature="0"
           id="path4085"
           d="m -6811.7683,2806.2273 h 200.0911"
           style="fill:none;stroke:#000000;stroke-width:6.5999999;stroke-linecap:butt;stroke-linejoin:miter;stroke-miterlimit:4;stroke-dasharray:none;stroke-opacity:1" />
        <path
           style="fill:none;stroke:#000000;stroke-width:6.5999999;stroke-linecap:butt;stroke-linejoin:miter;stroke-miterlimit:4;stroke-dasharray:none;stroke-opacity:1"
           d="m -6811.7683,2932.5119 h 200.0911"
           id="path4087"
           inkscape:connector-curvature="0" />
        <path
           inkscape:connector-curvature="0"
           id="path4217"
           d="m -6811.7683,2974.607 h 200.0911"
           style="fill:none;stroke:#000000;stroke-width:6.5999999;stroke-linecap:butt;stroke-linejoin:miter;stroke-miterlimit:4;stroke-dasharray:none;stroke-opacity:1" />
        <path
           style="fill:none;stroke:#000000;stroke-width:6.5999999;stroke-linecap:butt;stroke-linejoin:miter;stroke-miterlimit:4;stroke-dasharray:none;stroke-opacity:1"
           d="m -6811.7683,2848.3224 h 200.0911"
           id="path4219"
           inkscape:connector-curvature="0" />
        <path
           inkscape:connector-curvature="0"
           id="path4221"
           d="m -6811.7683,2890.4172 h 200.0911"
           style="fill:none;stroke:#000000;stroke-width:6.5999999;stroke-linecap:butt;stroke-linejoin:miter;stroke-miterlimit:4;stroke-dasharray:none;stroke-opacity:1" />
        <path
           style="fill:none;stroke:#000000;stroke-width:6.5999999;stroke-linecap:butt;stroke-linejoin:miter;stroke-miterlimit:4;stroke-dasharray:none;stroke-opacity:1"
           d="m -6813.4219,2723.6909 h 200.0911"
           id="path4225"
           inkscape:connector-curvature="0" />
      </g>
      <g
         transform="matrix(0.00695423,0.00718695,-0.00695423,0.00718695,101.62381,242.14065)"
         id="g4239"
         style="stroke:#000000">
        <path
           style="fill:none;stroke:#000000;stroke-width:6.5999999;stroke-linecap:butt;stroke-linejoin:miter;stroke-miterlimit:4;stroke-dasharray:none;stroke-opacity:1"
           d="m -6484.3632,2929.0042 h 200.0911"
           id="path4211"
           inkscape:connector-curvature="0" />
        <path
           inkscape:connector-curvature="0"
           id="path4213"
           d="m -6484.3632,2785.1796 h 200.0911"
           style="fill:none;stroke:#000000;stroke-width:6.5999999;stroke-linecap:butt;stroke-linejoin:miter;stroke-miterlimit:4;stroke-dasharray:none;stroke-opacity:1" />
        <path
           style="fill:none;stroke:#000000;stroke-width:6.5999999;stroke-linecap:butt;stroke-linejoin:miter;stroke-miterlimit:4;stroke-dasharray:none;stroke-opacity:1"
           d="m -6484.3632,2737.2382 h 200.0911"
           id="path4215"
           inkscape:connector-curvature="0" />
        <path
           inkscape:connector-curvature="0"
           id="path4227"
           d="m -6484.3632,2976.9456 h 200.0911"
           style="fill:none;stroke:#000000;stroke-width:6.5999999;stroke-linecap:butt;stroke-linejoin:miter;stroke-miterlimit:4;stroke-dasharray:none;stroke-opacity:1" />
        <path
           style="fill:none;stroke:#000000;stroke-width:6.5999999;stroke-linecap:butt;stroke-linejoin:miter;stroke-miterlimit:4;stroke-dasharray:none;stroke-opacity:1"
           d="m -6484.3632,2881.0628 h 200.0911"
           id="path4229"
           inkscape:connector-curvature="0" />
        <path
           inkscape:connector-curvature="0"
           id="path4231"
           d="m -6484.3632,2833.1211 h 200.0911"
           style="fill:none;stroke:#000000;stroke-width:6.5999999;stroke-linecap:butt;stroke-linejoin:miter;stroke-miterlimit:4;stroke-dasharray:none;stroke-opacity:1" />
      </g>
      <rect
         transform="matrix(0.69537538,0.71864671,-0.69537538,0.71864671,0,0)"
         y="122.75017"
         x="174.49966"
         height="1.7707748"
         width="1.7707748"
         id="rect4252"
         style="opacity:1;fill:#0084a1;fill-opacity:1;stroke:#000000;stroke-width:0.10873052;stroke-linecap:round;stroke-linejoin:round;stroke-miterlimit:4;stroke-dasharray:none;stroke-opacity:1;paint-order:markers stroke fill" />
      <path
         id="path4261"
         d="m 39.759751,216.76553 -4.928297,5.09322 c 0.0057,0.0102 0.01144,0.0194 0.01712,0.0292 0.0083,0.006 0.01658,0.0131 0.02488,0.0195 l 4.930015,-5.095 c -0.0092,-0.005 -0.01835,-0.0112 -0.02758,-0.0168 -0.0053,-0.0102 -0.01078,-0.0201 -0.01615,-0.0302 z"
         style="opacity:1;fill:#000000;fill-opacity:1;stroke:#000000;stroke-width:0.03183793;stroke-linecap:round;stroke-linejoin:round;stroke-miterlimit:4;stroke-dasharray:none;stroke-opacity:1;paint-order:markers stroke fill"
         inkscape:connector-curvature="0" />
      <path
         inkscape:connector-curvature="0"
         id="path4263"
         d="m 34.819016,221.8716 v 0 l -0.521699,0.53916 c 0.0073,0.0121 0.01447,0.0242 0.02166,0.0363 0.0062,0.005 0.01252,0.009 0.01876,0.0141 l 0.525729,-0.54332 c -0.0077,-0.007 -0.0153,-0.0149 -0.02296,-0.0224 -0.0072,-0.008 -0.01429,-0.016 -0.02147,-0.0239 z"
         style="opacity:1;fill:#808080;fill-opacity:1;stroke:#000000;stroke-width:0.01063047;stroke-linecap:round;stroke-linejoin:round;stroke-miterlimit:4;stroke-dasharray:none;stroke-opacity:1;paint-order:markers stroke fill" />
      <g
         id="g4317"
         transform="matrix(0.01471852,0.0152111,-0.00695143,0.00718406,154.42594,296.75)"
         style="stroke:#000000">
        <path
           inkscape:connector-curvature="0"
           id="path4305"
           d="m -6484.3632,2929.0042 h 200.0911"
           style="fill:none;stroke:#000000;stroke-width:6.5999999;stroke-linecap:butt;stroke-linejoin:miter;stroke-miterlimit:4;stroke-dasharray:none;stroke-opacity:1" />
        <path
           style="fill:none;stroke:#000000;stroke-width:6.5999999;stroke-linecap:butt;stroke-linejoin:miter;stroke-miterlimit:4;stroke-dasharray:none;stroke-opacity:1"
           d="m -6484.3632,2785.1796 h 200.0911"
           id="path4307"
           inkscape:connector-curvature="0" />
        <path
           inkscape:connector-curvature="0"
           id="path4309"
           d="m -6484.3632,2737.2382 h 200.0911"
           style="fill:none;stroke:#000000;stroke-width:6.5999999;stroke-linecap:butt;stroke-linejoin:miter;stroke-miterlimit:4;stroke-dasharray:none;stroke-opacity:1" />
        <path
           style="fill:none;stroke:#000000;stroke-width:6.5999999;stroke-linecap:butt;stroke-linejoin:miter;stroke-miterlimit:4;stroke-dasharray:none;stroke-opacity:1"
           d="m -6484.3632,2976.9456 h 200.0911"
           id="path4311"
           inkscape:connector-curvature="0" />
        <path
           inkscape:connector-curvature="0"
           id="path4313"
           d="m -6484.3632,2881.0628 h 200.0911"
           style="fill:none;stroke:#000000;stroke-width:6.5999999;stroke-linecap:butt;stroke-linejoin:miter;stroke-miterlimit:4;stroke-dasharray:none;stroke-opacity:1" />
        <path
           style="fill:none;stroke:#000000;stroke-width:6.5999999;stroke-linecap:butt;stroke-linejoin:miter;stroke-miterlimit:4;stroke-dasharray:none;stroke-opacity:1"
           d="m -6484.3632,2833.1211 h 200.0911"
           id="path4315"
           inkscape:connector-curvature="0" />
      </g>
      <g
         id="g4333"
         transform="matrix(0.01459789,0.01508643,-0.00767343,0.00793023,158.39132,300.96373)"
         style="stroke:#000000">
        <path
           inkscape:connector-curvature="0"
           id="path4319"
           d="m -6811.7683,2764.1321 h 200.0911"
           style="fill:none;stroke:#000000;stroke-width:6.5999999;stroke-linecap:butt;stroke-linejoin:miter;stroke-miterlimit:4;stroke-dasharray:none;stroke-opacity:1" />
        <path
           style="fill:none;stroke:#000000;stroke-width:6.5999999;stroke-linecap:butt;stroke-linejoin:miter;stroke-miterlimit:4;stroke-dasharray:none;stroke-opacity:1"
           d="m -6811.7683,2806.2273 h 200.0911"
           id="path4321"
           inkscape:connector-curvature="0" />
        <path
           inkscape:connector-curvature="0"
           id="path4323"
           d="m -6811.7683,2932.5119 h 200.0911"
           style="fill:none;stroke:#000000;stroke-width:6.5999999;stroke-linecap:butt;stroke-linejoin:miter;stroke-miterlimit:4;stroke-dasharray:none;stroke-opacity:1" />
        <path
           style="fill:none;stroke:#000000;stroke-width:6.5999999;stroke-linecap:butt;stroke-linejoin:miter;stroke-miterlimit:4;stroke-dasharray:none;stroke-opacity:1"
           d="m -6811.7683,2974.607 h 200.0911"
           id="path4325"
           inkscape:connector-curvature="0" />
        <path
           inkscape:connector-curvature="0"
           id="path4327"
           d="m -6811.7683,2848.3224 h 200.0911"
           style="fill:none;stroke:#000000;stroke-width:6.5999999;stroke-linecap:butt;stroke-linejoin:miter;stroke-miterlimit:4;stroke-dasharray:none;stroke-opacity:1" />
        <path
           style="fill:none;stroke:#000000;stroke-width:6.5999999;stroke-linecap:butt;stroke-linejoin:miter;stroke-miterlimit:4;stroke-dasharray:none;stroke-opacity:1"
           d="m -6811.7683,2890.4172 h 200.0911"
           id="path4329"
           inkscape:connector-curvature="0" />
        <path
           inkscape:connector-curvature="0"
           id="path4331"
           d="m -6813.4219,2723.6909 h 200.0911"
           style="fill:none;stroke:#000000;stroke-width:6.5999999;stroke-linecap:butt;stroke-linejoin:miter;stroke-miterlimit:4;stroke-dasharray:none;stroke-opacity:1" />
      </g>
      <g
         transform="translate(0.37417731,-0.74835498)"
         id="g12640">
        <path
           inkscape:connector-curvature="0"
           style="opacity:1;fill:#000000;fill-opacity:1;stroke:none;stroke-width:0.33009866;stroke-linecap:round;stroke-linejoin:round;stroke-miterlimit:4;stroke-dasharray:none;stroke-opacity:1;paint-order:markers stroke fill"
           d="m -4.8036744,219.03186 v 0.62044 a 1.9827328,2.0490836 0 0 0 -0.4617734,0.19152 l -0.3841425,-0.397 -0.8082086,0.83526 0.392068,0.40519 a 1.9827328,2.0490836 0 0 0 -0.1440889,0.35822 h -0.623934 v 1.18123 h 0.6239856 a 1.9827328,2.0490836 0 0 0 0.137001,0.34847 l -0.385023,0.3979 0.8082086,0.83527 0.3735365,-0.38604 a 1.9827328,2.0490836 0 0 0 0.4723707,0.19671 v 0.62133 h 1.1429855 v -0.67199 a 1.9827328,2.0490836 0 0 0 0.264848,-0.12185 l 0.3501252,0.36184 0.8082215,-0.83527 -0.342612,-0.35408 a 1.9827328,2.0490836 0 0 0 0.1616494,-0.39229 h 0.6245526 v -1.18123 h -0.6232296 a 1.9827328,2.0490836 0 0 0 -0.1663704,-0.40581 l 0.3460187,-0.3576 -0.8082216,-0.83526 -0.3593222,0.37135 a 1.9827328,2.0490836 0 0 0 -0.2556596,-0.11427 v -0.67204 z"
           id="circle4770" />
        <ellipse
           cy="221.63611"
           cx="-4.3136692"
           id="circle4780"
           style="opacity:1;fill:#000000;fill-opacity:1;stroke:#000000;stroke-width:0.33009863;stroke-linecap:round;stroke-linejoin:round;stroke-miterlimit:4;stroke-dasharray:none;stroke-opacity:1;paint-order:markers stroke fill"
           rx="1.0613441"
           ry="1.0968634" />
        <ellipse
           style="opacity:1;fill:#000000;fill-opacity:1;stroke:#000000;stroke-width:0.33009863;stroke-linecap:round;stroke-linejoin:round;stroke-miterlimit:4;stroke-dasharray:none;stroke-opacity:1;paint-order:markers stroke fill"
           id="circle4782"
           cx="-4.3136692"
           cy="221.63611"
           rx="0.58315605"
           ry="0.6026721" />
        <path
           style="opacity:1;fill:#808080;fill-opacity:1;stroke:none;stroke-width:0.33411533;stroke-linecap:round;stroke-linejoin:round;stroke-miterlimit:4;stroke-dasharray:none;stroke-opacity:1;paint-order:markers stroke fill"
           d="m -6.4511288,216.04737 v 0.63564 a 1.9827309,2.0992561 0 0 0 -1.4928685,2.03239 1.9827309,2.0992561 0 0 0 0.2220415,0.96391 l -0.3832876,0.40581 0.8082209,0.85571 0.3707392,-0.39254 a 1.9827309,2.0992561 0 0 0 0.4751545,0.19857 v 0.63655 h 1.1429887 v -0.68844 a 1.9827309,2.0992561 0 0 0 1.3295995,-1.97957 1.9827309,2.0992561 0 0 0 -0.252712,-1.02052 l 0.3463096,-0.36666 -0.8082079,-0.85572 -0.358569,0.37963 a 1.9827309,2.0992561 0 0 0 -0.2564202,-0.11627 v -0.68849 z"
           id="circle4948"
           inkscape:connector-curvature="0" />
        <rect
           ry="0"
           y="3.44136"
           x="218.06102"
           height="5.0398421"
           width="1.1812376"
           id="rect4952"
           style="opacity:1;fill:#808080;fill-opacity:1;stroke:#000000;stroke-width:0.33009863;stroke-linecap:round;stroke-linejoin:round;stroke-miterlimit:4;stroke-dasharray:none;stroke-opacity:1;paint-order:markers stroke fill"
           transform="rotate(90)" />
        <rect
           transform="matrix(0.69537538,-0.71864671,0.69537538,0.71864671,0,0)"
           ry="0"
           y="145.35727"
           x="-157.01329"
           height="4.9068279"
           width="1.1622694"
           id="rect4954"
           style="opacity:1;fill:#808080;fill-opacity:1;stroke:#000000;stroke-width:0.33018813;stroke-linecap:round;stroke-linejoin:round;stroke-miterlimit:4;stroke-dasharray:none;stroke-opacity:1;paint-order:markers stroke fill" />
        <path
           inkscape:connector-curvature="0"
           style="opacity:1;fill:#666666;fill-opacity:1;stroke:#000000;stroke-width:0.33009866;stroke-linecap:round;stroke-linejoin:round;stroke-miterlimit:4;stroke-dasharray:none;stroke-opacity:1;paint-order:markers stroke fill"
           d="m -4.6944619,218.59942 v 0.62045 a 1.9827329,2.0490838 0 0 0 -0.4635346,0.18968 l -0.3823726,-0.39516 -0.8082087,0.83526 0.3895077,0.40255 a 1.9827329,2.0490838 0 0 0 -0.1434058,0.36086 h -0.6220654 v 1.18123 h 0.6231136 a 1.9827329,2.0490838 0 0 0 0.1361333,0.35026 l -0.3832747,0.3961 0.8082086,0.83527 0.3707443,-0.38316 a 1.9827329,2.0490838 0 0 0 0.4751543,0.19383 v 0.62133 h 1.1429855 v -0.67199 a 1.9827329,2.0490838 0 0 0 0.2677561,-0.11886 l 0.3472257,0.35885 0.8082216,-0.83527 -0.3389051,-0.35024 a 1.9827329,2.0490838 0 0 0 0.1604424,-0.39612 h 0.6220354 v -1.18123 h -0.6230835 a 1.9827329,2.0490838 0 0 0 -0.1668042,-0.40551 l 0.3463236,-0.3579 -0.8082215,-0.83526 -0.3585749,0.37057 a 1.9827329,2.0490838 0 0 0 -0.2564156,-0.1135 v -0.67204 z"
           id="circle4715" />
        <ellipse
           style="opacity:1;fill:#808080;fill-opacity:1;stroke:#000000;stroke-width:0.33009863;stroke-linecap:round;stroke-linejoin:round;stroke-miterlimit:4;stroke-dasharray:none;stroke-opacity:1;paint-order:markers stroke fill"
           id="circle4958"
           cx="-5.9612703"
           cy="218.65163"
           rx="1.0613441"
           ry="1.0968634" />
        <ellipse
           cy="218.65163"
           cx="-5.9612703"
           id="circle4960"
           style="opacity:1;fill:#808080;fill-opacity:1;stroke:#000000;stroke-width:0.33009863;stroke-linecap:round;stroke-linejoin:round;stroke-miterlimit:4;stroke-dasharray:none;stroke-opacity:1;paint-order:markers stroke fill"
           rx="0.58315611"
           ry="0.60267216" />
        <path
           inkscape:connector-curvature="0"
           style="opacity:1;fill:#e6e6e6;fill-opacity:1;stroke:#000000;stroke-width:0.33009866;stroke-linecap:round;stroke-linejoin:round;stroke-miterlimit:4;stroke-dasharray:none;stroke-opacity:1;paint-order:markers stroke fill"
           d="m -6.6712495,215.89185 v 0.62044 a 1.9827329,2.0490837 0 0 0 -0.463526,0.18969 l -0.3823683,-0.39517 -0.8082216,0.83526 0.3895121,0.40255 a 1.9827329,2.0490837 0 0 0 -0.1434102,0.36086 h -0.6220611 v 1.18124 h 0.6231093 a 1.9827329,2.0490837 0 0 0 0.1381651,0.34815 l -0.3853065,0.39821 0.8082129,0.83526 0.3735665,-0.38607 a 1.9827329,2.0490837 0 0 0 0.4723278,0.19676 v 0.62132 h 1.1429898 v -0.67199 a 1.9827329,2.0490837 0 0 0 0.2677648,-0.11886 l 0.3472256,0.35884 0.8082087,-0.83525 -0.338905,-0.35025 a 1.9827329,2.0490837 0 0 0 0.1604424,-0.39612 h 0.6220482 v -1.18124 h -0.6230964 a 1.9827329,2.0490837 0 0 0 -0.1675044,-0.40478 l 0.3470238,-0.35863 -0.8082173,-0.83526 -0.3590344,0.37104 a 1.9827329,2.0490837 0 0 0 -0.255956,-0.11395 v -0.67205 z"
           id="rect4921" />
        <ellipse
           cy="221.20367"
           cx="-4.2044597"
           id="circle4725"
           style="opacity:1;fill:#4d4d4d;fill-opacity:1;stroke:#000000;stroke-width:0.33009863;stroke-linecap:round;stroke-linejoin:round;stroke-miterlimit:4;stroke-dasharray:none;stroke-opacity:1;paint-order:markers stroke fill"
           rx="1.0613441"
           ry="1.0968634" />
        <ellipse
           style="opacity:1;fill:#1a1a1a;fill-opacity:1;stroke:#000000;stroke-width:0.33009863;stroke-linecap:round;stroke-linejoin:round;stroke-miterlimit:4;stroke-dasharray:none;stroke-opacity:1;paint-order:markers stroke fill"
           id="circle4727"
           cx="-4.2044597"
           cy="221.20367"
           rx="0.58315611"
           ry="0.60267216" />
        <path
           inkscape:connector-curvature="0"
           style="opacity:1;fill:#333333;fill-opacity:1;stroke:none;stroke-width:0.33009866;stroke-linecap:round;stroke-linejoin:round;stroke-miterlimit:4;stroke-dasharray:none;stroke-opacity:1;paint-order:markers stroke fill"
           d="m -2.9581231,216.95546 v 0.62043 a 1.9827328,2.0490837 0 0 0 -0.4635346,0.1897 l -0.3823727,-0.39517 -0.8082086,0.83526 0.3895163,0.40255 a 1.9827328,2.0490837 0 0 0 -0.1423405,0.36086 h -0.6231393 v 1.18123 h 0.6228343 a 1.9827328,2.0490837 0 0 0 0.1382682,0.34832 l -0.385139,0.39805 0.8082086,0.83526 0.3735108,-0.38602 a 1.9827328,2.0490837 0 0 0 0.4723965,0.1967 v 0.62132 h 1.1429855 v -0.67198 A 1.9827328,2.0490837 0 0 0 -1.54739,221.3731 l 0.3472342,0.35885 0.80821297,-0.83526 -0.33889641,-0.35024 a 1.9827328,2.0490837 0 0 0 0.16008155,-0.39613 h 0.62240474 v -1.18123 H -0.57112712 A 1.9827328,2.0490837 0 0 0 -0.738769,218.56411 l 0.34683476,-0.35843 -0.80822156,-0.83527 -0.3589871,0.371 a 1.9827328,2.0490837 0 0 0 -0.2559947,-0.11393 v -0.67202 z"
           id="circle4754" />
        <ellipse
           cy="219.55969"
           cx="-2.468118"
           id="circle4764"
           style="opacity:1;fill:#333333;fill-opacity:1;stroke:#000000;stroke-width:0.33009863;stroke-linecap:round;stroke-linejoin:round;stroke-miterlimit:4;stroke-dasharray:none;stroke-opacity:1;paint-order:markers stroke fill"
           rx="1.0613441"
           ry="1.0968634" />
        <ellipse
           style="opacity:1;fill:#333333;fill-opacity:1;stroke:#000000;stroke-width:0.33009863;stroke-linecap:round;stroke-linejoin:round;stroke-miterlimit:4;stroke-dasharray:none;stroke-opacity:1;paint-order:markers stroke fill"
           id="circle4766"
           cx="-2.468118"
           cy="219.55969"
           rx="0.58315605"
           ry="0.6026721" />
        <path
           inkscape:connector-curvature="0"
           style="opacity:1;fill:#cccccc;fill-opacity:1;stroke:#000000;stroke-width:0.33009866;stroke-linecap:round;stroke-linejoin:round;stroke-miterlimit:4;stroke-dasharray:none;stroke-opacity:1;paint-order:markers stroke fill"
           d="m -2.8276687,216.58579 v 0.62044 a 1.9827329,2.0490837 0 0 0 -0.4635432,0.18968 l -0.382364,-0.39516 -0.8082172,0.83527 0.389512,0.40255 a 1.9827329,2.0490837 0 0 0 -0.1423448,0.36085 h -0.6231393 v 1.18124 h 0.6224692 a 1.9827329,2.0490837 0 0 0 0.1367863,0.35025 l -0.3832748,0.3961 0.8082086,0.83527 0.3707444,-0.38315 a 1.9827329,2.0490837 0 0 0 0.4751628,0.19384 v 0.62132 h 1.1429855 v -0.67199 a 1.9827329,2.0490837 0 0 0 0.2677563,-0.11886 l 0.3472256,0.35884 0.80821294,-0.83526 -0.33891359,-0.35025 a 1.9827329,2.0490837 0 0 0 0.16008154,-0.39611 h 0.62240906 v -1.18124 h -0.62347438 a 1.9827329,2.0490837 0 0 0 -0.16641332,-0.40551 l 0.34631928,-0.35791 -0.80822153,-0.83525 -0.3585661,0.37057 a 1.9827329,2.0490837 0 0 0 -0.2564158,-0.11349 v -0.67204 z"
           id="rect4698" />
        <ellipse
           style="opacity:1;fill:#999999;fill-opacity:1;stroke:#000000;stroke-width:0.33009863;stroke-linecap:round;stroke-linejoin:round;stroke-miterlimit:4;stroke-dasharray:none;stroke-opacity:1;paint-order:markers stroke fill"
           id="path4680"
           cx="-2.3376791"
           cy="219.19002"
           rx="1.0613441"
           ry="1.0968634" />
        <ellipse
           cy="219.19002"
           cx="-2.3376791"
           id="circle4704"
           style="opacity:1;fill:#808080;fill-opacity:1;stroke:#000000;stroke-width:0.33009863;stroke-linecap:round;stroke-linejoin:round;stroke-miterlimit:4;stroke-dasharray:none;stroke-opacity:1;paint-order:markers stroke fill"
           rx="0.58315611"
           ry="0.60267216" />
        <ellipse
           cy="218.49609"
           cx="-6.1812425"
           id="circle4925"
           style="opacity:1;fill:#cccccc;fill-opacity:1;stroke:#000000;stroke-width:0.33009863;stroke-linecap:round;stroke-linejoin:round;stroke-miterlimit:4;stroke-dasharray:none;stroke-opacity:1;paint-order:markers stroke fill"
           rx="1.0613441"
           ry="1.0968634" />
        <ellipse
           style="opacity:1;fill:#999999;fill-opacity:1;stroke:#000000;stroke-width:0.33009863;stroke-linecap:round;stroke-linejoin:round;stroke-miterlimit:4;stroke-dasharray:none;stroke-opacity:1;paint-order:markers stroke fill"
           id="circle4927"
           cx="-6.1812425"
           cy="218.49609"
           rx="0.58315611"
           ry="0.60267216" />
      </g>
      <path
         sodipodi:nodetypes="ccscscccsccscsccscccccccccsccscsccscccsc"
         inkscape:connector-curvature="0"
         id="path5158"
         d="m 19.387872,205.11592 c -1.092372,0.001 -2.102509,0.47997 -2.655528,1.25883 -0.151291,-0.36662 -0.43738,-0.68498 -0.818255,-0.91058 -0.380884,-0.22559 -0.837513,-0.34714 -1.306052,-0.34763 -0.596096,0 -1.167777,0.19577 -1.589275,0.54426 -0.421505,0.34849 -0.658299,0.82114 -0.658299,1.31397 9.21e-4,0.0709 0.0068,0.14172 0.01746,0.21207 -0.0344,-0.003 -0.06885,-0.003 -0.103204,-0.002 -0.245668,0.0133 -0.474191,0.14037 -0.635309,0.35315 -0.161125,0.21278 -0.241633,0.49387 -0.223831,0.78144 0.01181,0.18461 0.0637,0.36386 0.150733,0.52077 -0.338255,0.0635 -0.642247,0.28005 -0.853356,0.60794 -0.211108,0.32788 -0.31439,0.74387 -0.289936,1.16776 0.02666,0.45499 0.198347,0.88296 0.477296,1.18976 0.278949,0.3068 0.642309,0.4673 1.010145,0.4462 0.146862,-0.009 0.290998,-0.0471 0.427034,-0.11246 -0.03483,0.34771 0.112597,0.70083 0.409944,0.9819 0.29734,0.28107 0.720324,0.46714 1.176156,0.51738 0.382974,0.042 0.76498,-0.0146 1.08555,-0.16085 0.335259,0.51443 1.023479,0.83983 1.776805,0.8401 0.657347,-9e-5 1.27202,-0.2483 1.64152,-0.66288 0.124158,0.34581 0.506784,0.58292 0.941136,0.58321 0.320902,-1.4e-4 0.621517,-0.13043 0.805284,-0.34901 l 1.17024,1.56404 -0.0015,-1.7287 c 0.08405,0.0233 0.172547,0.0354 0.261736,0.0356 0.209583,0 0.410571,-0.065 0.558765,-0.18085 0.148201,-0.1158 0.231451,-0.27286 0.231451,-0.43662 -3.1e-4,-0.23176 -0.166716,-0.44386 -0.430868,-0.54925 0.228478,-0.0117 0.443319,-0.10164 0.600503,-0.25135 0.157176,-0.14971 0.244792,-0.34787 0.244885,-0.55386 0,-0.21399 -0.09444,-0.41921 -0.26254,-0.57052 -0.168095,-0.15131 -0.396084,-0.23632 -0.633815,-0.23632 -0.06463,3.4e-4 -0.129044,0.007 -0.0129,-0.0106 0.116143,-0.0176 0.384902,-0.15829 0.57906,-0.37101 0.194151,-0.21273 0.300948,-0.4835 0.30115,-0.76354 -2.33e-4,-0.4254 -0.245521,-0.81746 -0.64131,-1.02509 0.217714,-0.35527 0.331743,-0.74777 0.332928,-1.14603 0,-0.67619 -0.324898,-1.32468 -0.903216,-1.80282 -0.578317,-0.47814 -1.362679,-0.74675 -2.180547,-0.74675 z"
         style="fill:#a32857;fill-opacity:1;stroke:#000000;stroke-width:0.29621467;stroke-linecap:butt;stroke-linejoin:miter;stroke-miterlimit:4;stroke-dasharray:none;stroke-opacity:1" />
      <path
         inkscape:connector-curvature="0"
         id="path5216"
         d="m 19.062571,206.42144 c -0.69477,0 -1.40166,0.27671 -1.878352,0.80798 -0.141666,0.15645 -0.227409,0.35626 -0.369989,0.51179 -0.01341,-0.0495 -0.0035,-0.10294 -0.02011,-0.15243 -0.0861,-0.45353 -0.426392,-0.8248 -0.831636,-1.00143 -0.638197,-0.28568 -1.429242,-0.20224 -1.978358,0.24712 -0.20596,0.16719 -0.362718,0.40355 -0.415226,0.67085 -0.04683,0.21065 -0.02616,0.43099 0.03366,0.63646 0.0073,0.034 0.02287,0.0817 0.02496,0.10859 -0.136083,-0.12027 -0.337087,-0.17448 -0.50546,-0.0966 -0.251003,0.10316 -0.397532,0.40128 -0.353727,0.67297 0.02244,0.21447 0.126512,0.41908 0.286228,0.55826 -0.08218,0.0816 -0.203071,0.079 -0.30887,0.0821 -0.378552,0.0634 -0.677456,0.40238 -0.754581,0.78293 -0.129748,0.5119 0.04497,1.1052 0.459108,1.42612 0.292964,0.21012 0.709653,0.17586 0.989911,-0.0413 0.103615,-0.0578 0.200763,-0.13431 0.317767,-0.16096 -0.04243,0.0365 -0.07932,0.0802 -0.108416,0.12996 -0.144152,0.22134 -0.176767,0.53104 -0.03535,0.76246 0.170061,0.30407 0.490879,0.48276 0.813385,0.55999 0.374216,0.0886 0.771763,0.0279 1.120867,-0.1299 0.108292,0.0302 0.138042,0.15784 0.210536,0.23219 0.315119,0.35363 0.796233,0.50467 1.252165,0.48804 0.463978,-0.0101 0.933671,-0.21394 1.227332,-0.59279 0.09143,-0.10646 0.178269,-0.21712 0.275837,-0.31786 -0.05562,0.18084 -0.08274,0.39391 0.01803,0.56395 0.143153,0.24441 0.457667,0.34144 0.715887,0.25883 0.189977,-0.0556 0.351799,-0.19327 0.457241,-0.36347 0.06717,-0.0179 0.11633,0.0492 0.139908,0.10493 0.198673,0.29189 0.430961,0.55808 0.619668,0.85744 0.0094,-0.37295 0.0025,-0.74604 0.0046,-1.11905 0.214911,0.15958 0.52584,0.2039 0.756238,0.0536 0.09514,-0.0692 0.124367,-0.22568 0.04167,-0.31688 -0.07887,-0.11031 -0.219603,-0.13349 -0.33189,-0.1872 -0.05274,-0.0658 -0.01179,-0.16147 0.02358,-0.22581 0.06687,-0.10719 0.197512,-0.15893 0.317395,-0.14027 0.226929,-0.0241 0.425347,-0.25991 0.380404,-0.49879 -0.04867,-0.24092 -0.301374,-0.39279 -0.529944,-0.36337 -0.109547,10e-4 -0.243841,-0.0632 -0.256091,-0.18889 -0.01586,-0.14572 0.114324,-0.27974 0.252947,-0.27907 0.361579,-0.0962 0.607092,-0.53066 0.490321,-0.90137 -0.08094,-0.26584 -0.320392,-0.44707 -0.570706,-0.52387 -0.01594,-0.009 -0.06534,-0.006 -0.03233,-0.0286 0.434413,-0.48491 0.510639,-1.28045 0.152607,-1.83309 -0.336452,-0.53562 -0.910317,-0.88015 -1.510633,-0.99657 -0.194337,-0.0395 -0.392545,-0.0587 -0.590614,-0.057 z"
         style="fill:#ee6d8a;fill-opacity:1;stroke:none;stroke-width:0.24275121;stroke-linecap:butt;stroke-linejoin:miter;stroke-miterlimit:4;stroke-dasharray:none;stroke-opacity:1" />
      <path
         sodipodi:nodetypes="cc"
         inkscape:connector-curvature="0"
         id="path5198"
         d="m 16.732344,206.37475 c -0.1689,0.20525 -0.598435,1.39885 -0.181568,1.82766"
         style="fill:none;stroke:#000000;stroke-width:0.29621467;stroke-linecap:round;stroke-linejoin:miter;stroke-miterlimit:4;stroke-dasharray:none;stroke-opacity:1" />
      <path
         sodipodi:nodetypes="cc"
         inkscape:connector-curvature="0"
         id="path5200"
         d="m 16.732344,206.37475 c -0.133381,0.23286 -1.048181,1.4083 -1.870191,1.24648"
         style="fill:none;stroke:#000000;stroke-width:0.29621467;stroke-linecap:round;stroke-linejoin:miter;stroke-miterlimit:4;stroke-dasharray:none;stroke-opacity:1" />
      <path
         sodipodi:nodetypes="cc"
         inkscape:connector-curvature="0"
         id="path5202"
         d="m 15.009146,213.47817 c -0.151198,-1.6634 0.643897,-2.19739 2.239746,-1.93725"
         style="fill:none;stroke:#000000;stroke-width:0.29621467;stroke-linecap:round;stroke-linejoin:miter;stroke-miterlimit:4;stroke-dasharray:none;stroke-opacity:1" />
      <path
         sodipodi:nodetypes="cc"
         inkscape:connector-curvature="0"
         id="path5204"
         d="m 13.575653,211.52505 c 1.665401,-0.40294 1.463429,0.97141 1.454625,1.09809"
         style="fill:none;stroke:#000000;stroke-width:0.29621467;stroke-linecap:round;stroke-linejoin:miter;stroke-miterlimit:4;stroke-dasharray:none;stroke-opacity:1" />
      <path
         sodipodi:nodetypes="cc"
         inkscape:connector-curvature="0"
         id="path5206"
         d="m 21.931717,210.97012 c -0.280358,0.0237 -2.218428,0.38308 -1.945395,-1.66531"
         style="fill:none;stroke:#000000;stroke-width:0.29621467;stroke-linecap:round;stroke-linejoin:miter;stroke-miterlimit:4;stroke-dasharray:none;stroke-opacity:1" />
      <path
         sodipodi:nodetypes="cc"
         inkscape:connector-curvature="0"
         id="path5208"
         d="m 18.427471,213.65539 c 0.03414,-0.14113 0.878019,-1.59787 1.661103,-1.03057"
         style="fill:none;stroke:#000000;stroke-width:0.29621467;stroke-linecap:round;stroke-linejoin:miter;stroke-miterlimit:4;stroke-dasharray:none;stroke-opacity:1" />
      <path
         sodipodi:nodetypes="cc"
         inkscape:connector-curvature="0"
         id="path5212"
         d="m 11.519001,208.77913 c 0,0 0.374356,0.66297 1.103476,0.34607"
         style="fill:none;stroke:#000000;stroke-width:0.29621467;stroke-linecap:round;stroke-linejoin:miter;stroke-miterlimit:4;stroke-dasharray:none;stroke-opacity:1" />
      <path
         inkscape:connector-curvature="0"
         id="path5214"
         d="m 22.138707,208.81152 c 0,0 -0.303093,0.46737 -0.57292,0.45741"
         style="fill:none;stroke:#000000;stroke-width:0.29621467;stroke-linecap:butt;stroke-linejoin:round;stroke-miterlimit:4;stroke-dasharray:none;stroke-opacity:1" />
      <g
         transform="matrix(1.031557,0,0,0.99815705,0.08782534,0.4698168)"
         id="g12548">
        <path
           style="opacity:1;fill:#ffffff;fill-opacity:1;stroke:none;stroke-width:0.05124756;stroke-linejoin:round;stroke-miterlimit:4;stroke-dasharray:none;stroke-opacity:1;paint-order:stroke fill markers"
           d="m 14.998345,245.83146 c -0.333831,0 -0.65399,0.11285 -0.890046,0.26605 -0.369414,0.24489 -0.803614,0.0288 -1.501707,-0.0998 1.048057,0.87745 2.298987,1.57588 3.310478,1.57588 1.011492,0 2.356806,-0.64051 3.369511,-1.57772 -0.698094,0.12861 -1.066629,0.34648 -1.436047,0.10159 -0.236051,-0.1532 -0.556211,-0.26605 -0.890045,-0.26605 -0.374665,1.8e-4 -0.792125,0.24372 -1.043419,0.24372 -0.251293,0 -0.544057,-0.24361 -0.918725,-0.24372 z"
           id="path3893"
           inkscape:connector-curvature="0"
           sodipodi:nodetypes="cccccccccc" />
        <path
           sodipodi:nodetypes="ccccccscc"
           inkscape:connector-curvature="0"
           id="path3897"
           d="m 15.003347,245.59564 c -0.333831,0 -0.653987,0.11285 -0.890041,0.26605 -0.367642,0.24372 -0.814349,0.26264 -1.506714,0.13604 1.333141,0.59112 5.59229,0.59861 6.684995,-0.002 -0.698095,0.12861 -1.066634,0.11066 -1.43605,-0.13423 -0.236054,-0.1532 -0.556209,-0.26606 -0.890041,-0.26606 -0.374667,1.2e-4 -0.7269,0.24372 -0.978193,0.24372 -0.251293,0 -0.609289,-0.2436 -0.983956,-0.24372 z"
           style="opacity:1;fill:url(#linearGradient3933);fill-opacity:1;stroke:none;stroke-width:0.1433038;stroke-linejoin:round;stroke-miterlimit:4;stroke-dasharray:none;stroke-opacity:1;paint-order:stroke fill markers" />
        <path
           sodipodi:nodetypes="ccccccc"
           inkscape:connector-curvature="0"
           id="path11975"
           d="m 19.286581,245.99671 c -0.100213,0.0713 -0.200203,0.143 -0.301534,0.21268 -1.077997,0.91844 -4.75445,0.9492 -6.090983,-0.0701 -0.104738,-0.0349 -0.202953,-0.08 -0.287472,-0.1415 1.018439,0.90916 2.356925,1.84481 3.33738,1.79905 1.010005,0.0471 2.329902,-0.85337 3.342609,-1.80084 z"
           style="opacity:1;fill:#f1c27d;fill-opacity:1;stroke:none;stroke-width:0.05152716;stroke-linejoin:round;stroke-miterlimit:4;stroke-dasharray:none;stroke-opacity:1;paint-order:stroke fill markers" />
        <path
           style="opacity:1;fill:#ffaaaa;fill-opacity:1;stroke:none;stroke-width:0.05152716;stroke-linejoin:round;stroke-miterlimit:4;stroke-dasharray:none;stroke-opacity:1;paint-order:stroke fill markers"
           d="m 19.286581,245.99671 c -0.100213,0.0713 -0.200203,0.143 -0.301534,0.21268 -1.077997,0.91844 -4.75445,0.9492 -6.090983,-0.0701 -0.104738,-0.0349 -0.202953,-0.08 -0.287472,-0.1415 1.018439,0.90916 2.356925,1.72788 3.33738,1.68212 1.010005,0.0471 2.329902,-0.73644 3.342609,-1.68391 z"
           id="path9691"
           inkscape:connector-curvature="0"
           sodipodi:nodetypes="ccccccc" />
      </g>
    </g>
  </g>
</svg>
