<?xml version="1.0" encoding="utf-8"?>
<!-- Generator: Adobe Illustrator 23.0.3, SVG Export Plug-In . SVG Version: 6.00 Build 0)  -->
<svg version="1.1" id="Warstwa_1" xmlns="http://www.w3.org/2000/svg" xmlns:xlink="http://www.w3.org/1999/xlink" x="0px" y="0px"
	 width="394px" height="296.3px" viewBox="0 0 394 296.3" style="enable-background:new 0 0 394 296.3;" xml:space="preserve">
<style type="text/css">
	.st0{fill:#77DC99;}
	.st1{fill:#EEEEEF;}
</style>
<path class="st0" d="M255,0c88.7,10.8,140,77.4,131.1,127.4c-6.9,38.6-51.2,76.3-89.6,73.4c-38.5-2.9-61.9-45.3-74.9-37.4
	c-10.2,6.2,6.2,31.5-2.9,62.6c-10.6,36.3-50.8,66.6-94.3,69.8c-6.8,0.5-51.2,3.8-77.8-25.2c-32.1-35.1-11.9-86.9-41.8-104.4
	c-12.8-7.5-28.2-4.9-38.9-1.8C-34,109.7-34,54.8-34,0C62.3,0,158.6,0,255,0z"/>
<path class="st1" d="M267.9,220.5"/>
</svg>
