<?xml version="1.0" encoding="UTF-8" standalone="no"?>
<!-- Created with Inkscape (http://www.inkscape.org/) -->

<svg
   xmlns:dc="http://purl.org/dc/elements/1.1/"
   xmlns:cc="http://creativecommons.org/ns#"
   xmlns:rdf="http://www.w3.org/1999/02/22-rdf-syntax-ns#"
   xmlns:svg="http://www.w3.org/2000/svg"
   xmlns="http://www.w3.org/2000/svg"
   xmlns:xlink="http://www.w3.org/1999/xlink"
   xmlns:sodipodi="http://sodipodi.sourceforge.net/DTD/sodipodi-0.dtd"
   xmlns:inkscape="http://www.inkscape.org/namespaces/inkscape"
   width="57.009201mm"
   height="59.200203mm"
   viewBox="0 0 57.009201 59.200203"
   version="1.1"
   id="svg1903"
   inkscape:version="0.92.4 (5da689c313, 2019-01-14)"
   sodipodi:docname="passion_mu.svg">
  <defs
     id="defs1897">
    <linearGradient
       inkscape:collect="always"
       id="linearGradient2286">
      <stop
         style="stop-color:#a32857;stop-opacity:1"
         offset="0"
         id="stop2282" />
      <stop
         style="stop-color:#ee6d8a;stop-opacity:0.87222224"
         offset="1"
         id="stop2284" />
    </linearGradient>
    <filter
       inkscape:collect="always"
       style="color-interpolation-filters:sRGB"
       id="filter1565"
       x="-0.020684304"
       width="1.0413686"
       y="-0.028581642"
       height="1.0571634">
      <feGaussianBlur
         inkscape:collect="always"
         stdDeviation="0.18827025"
         id="feGaussianBlur1567" />
    </filter>
    <filter
       inkscape:collect="always"
       style="color-interpolation-filters:sRGB"
       id="filter1926-2"
       x="-0.037462775"
       width="1.0749255"
       y="-0.065928675"
       height="1.1318573">
      <feGaussianBlur
         inkscape:collect="always"
         stdDeviation="5.738566"
         id="feGaussianBlur1928-0" />
    </filter>
    <linearGradient
       inkscape:collect="always"
       xlink:href="#linearGradient1417"
       id="linearGradient1643"
       gradientUnits="userSpaceOnUse"
       gradientTransform="translate(-1729.619,-42.333333)"
       x1="-300.40637"
       y1="365.6933"
       x2="-138.85858"
       y2="365.6933" />
    <linearGradient
       inkscape:collect="always"
       id="linearGradient1417">
      <stop
         style="stop-color:#0b280b;stop-opacity:1;"
         offset="0"
         id="stop1413" />
      <stop
         style="stop-color:#0b280b;stop-opacity:0;"
         offset="1"
         id="stop1415" />
    </linearGradient>
    <filter
       inkscape:collect="always"
       style="color-interpolation-filters:sRGB"
       id="filter1717-7"
       x="-0.03594967"
       width="1.0718993"
       y="-0.036050472"
       height="1.0721009">
      <feGaussianBlur
         inkscape:collect="always"
         stdDeviation="2.4263546"
         id="feGaussianBlur1719-1" />
    </filter>
    <filter
       inkscape:collect="always"
       style="color-interpolation-filters:sRGB"
       id="filter1653-0"
       x="-0.073200002"
       width="1.1464"
       y="-0.073200002"
       height="1.1464">
      <feGaussianBlur
         inkscape:collect="always"
         stdDeviation="3.5276518"
         id="feGaussianBlur1655-7" />
    </filter>
    <filter
       inkscape:collect="always"
       style="color-interpolation-filters:sRGB"
       id="filter1677-9"
       x="-0.048911065"
       width="1.0978221"
       y="-0.13637902"
       height="1.272758">
      <feGaussianBlur
         inkscape:collect="always"
         stdDeviation="3.675746"
         id="feGaussianBlur1679-9" />
    </filter>
    <filter
       inkscape:collect="always"
       style="color-interpolation-filters:sRGB"
       id="filter1705-3"
       x="-0.032389998"
       width="1.06478"
       y="-0.092653185"
       height="1.1853064">
      <feGaussianBlur
         inkscape:collect="always"
         stdDeviation="2.3829172"
         id="feGaussianBlur1707-7" />
    </filter>
    <linearGradient
       inkscape:collect="always"
       xlink:href="#linearGradient2641"
       id="linearGradient1639"
       gradientUnits="userSpaceOnUse"
       gradientTransform="matrix(0.00368774,0,0,0.00266801,14.72223,236.12741)"
       x1="321.875"
       y1="3903.7698"
       x2="325"
       y2="3385.0198" />
    <linearGradient
       inkscape:collect="always"
       id="linearGradient2641">
      <stop
         style="stop-color:#ff8080;stop-opacity:1"
         offset="0"
         id="stop2637" />
      <stop
         style="stop-color:#e9afaf;stop-opacity:1"
         offset="1"
         id="stop2639" />
    </linearGradient>
    <filter
       inkscape:collect="always"
       style="color-interpolation-filters:sRGB"
       id="filter2556-7"
       x="-0.32851306"
       width="1.6570261"
       y="-0.32851306"
       height="1.6570261">
      <feGaussianBlur
         inkscape:collect="always"
         stdDeviation="43.006836"
         id="feGaussianBlur2558-6" />
    </filter>
    <filter
       inkscape:collect="always"
       style="color-interpolation-filters:sRGB"
       id="filter2560-5"
       x="-0.32851306"
       width="1.6570261"
       y="-0.32851306"
       height="1.6570261">
      <feGaussianBlur
         inkscape:collect="always"
         stdDeviation="43.006836"
         id="feGaussianBlur2562-7" />
    </filter>
    <filter
       inkscape:collect="always"
       style="color-interpolation-filters:sRGB"
       id="filter1870-4-2"
       x="-0.019313339"
       width="1.0386267"
       y="-0.03169005"
       height="1.0633801">
      <feGaussianBlur
         inkscape:collect="always"
         stdDeviation="1.7129321"
         id="feGaussianBlur1872-1" />
    </filter>
    <linearGradient
       inkscape:collect="always"
       xlink:href="#linearGradient1417"
       id="linearGradient2676"
       gradientUnits="userSpaceOnUse"
       gradientTransform="translate(-1729.619,-42.333333)"
       x1="-300.40637"
       y1="365.6933"
       x2="-138.85858"
       y2="365.6933" />
    <linearGradient
       inkscape:collect="always"
       xlink:href="#linearGradient2286"
       id="linearGradient2288"
       x1="249.54413"
       y1="26.061783"
       x2="249.68587"
       y2="12.076664"
       gradientUnits="userSpaceOnUse" />
    <radialGradient
       inkscape:collect="always"
       xlink:href="#linearGradient2286"
       id="radialGradient2304"
       cx="250.91431"
       cy="23.450993"
       fx="250.91431"
       fy="23.450993"
       r="1.9391037"
       gradientTransform="matrix(-0.1949231,-6.5299213,2.2866356,-0.06825631,246.19942,1665.7351)"
       gradientUnits="userSpaceOnUse" />
  </defs>
  <sodipodi:namedview
     id="base"
     pagecolor="#ffffff"
     bordercolor="#666666"
     borderopacity="1.0"
     inkscape:pageopacity="0.0"
     inkscape:pageshadow="2"
     inkscape:zoom="1.4"
     inkscape:cx="66.749513"
     inkscape:cy="89.915105"
     inkscape:document-units="mm"
     inkscape:current-layer="layer1"
     showgrid="false"
     inkscape:window-width="1366"
     inkscape:window-height="705"
     inkscape:window-x="-8"
     inkscape:window-y="-8"
     inkscape:window-maximized="1"
     inkscape:snap-global="false" />
  <metadata
     id="metadata1900">
    <rdf:RDF>
      <cc:Work
         rdf:about="">
        <dc:format>image/svg+xml</dc:format>
        <dc:type
           rdf:resource="http://purl.org/dc/dcmitype/StillImage" />
        <dc:title></dc:title>
      </cc:Work>
    </rdf:RDF>
  </metadata>
  <g
     inkscape:label="Layer 1"
     inkscape:groupmode="layer"
     id="layer1"
     transform="translate(-221.71564,-14.155851)">
    <g
       id="g2380">
      <path
         sodipodi:nodetypes="cccccccccc"
         inkscape:connector-curvature="0"
         id="path1645"
         d="m 260.71049,50.903073 c 2.24896,-0.0661 0.87137,-5.801069 0.87137,-5.801069 -6.62554,-21.37806 -32.34115,-3.832949 -23.40412,10.4628 l -2.3302,8.046019 1.8799,3.066751 2.48216,0.691639 -0.014,-12.652618 c -1.10327,-6.116672 5.55317,-9.32666 9.8448,-13.039032 5.84996,4.127492 7.66494,17.086202 13.10219,15.025262 z"
         style="display:inline;opacity:1;fill:#ffd42a;stroke:none;stroke-width:0.26458332px;stroke-linecap:butt;stroke-linejoin:miter;stroke-opacity:1" />
      <circle
         r="19.578007"
         cy="51.116772"
         cx="249.53253"
         id="ellipse1523"
         style="display:inline;opacity:1;fill:#d5d717;fill-opacity:1;stroke:#000000;stroke-width:0.84398568;stroke-linejoin:round;stroke-miterlimit:4;stroke-dasharray:none;stroke-opacity:1;paint-order:stroke fill markers" />
      <ellipse
         ry="2.6969903"
         rx="1.667484"
         cy="49.432293"
         cx="258.80902"
         id="ellipse1525"
         style="display:inline;opacity:1;fill:#fcdaab;fill-opacity:1;stroke:none;stroke-width:0.89072251;stroke-linecap:round;stroke-linejoin:round;stroke-miterlimit:4;stroke-dasharray:none;stroke-dashoffset:0;stroke-opacity:1;paint-order:stroke fill markers" />
      <path
         sodipodi:nodetypes="ccccc"
         inkscape:connector-curvature="0"
         id="path1781"
         d="m 241.32194,69.399533 c 8.89245,-3.241738 11.77228,-11.60535 17.58635,-17.469408 l -5.42559,4.25627 -12.34786,9.541521 z"
         style="display:inline;opacity:1;fill:#ffd42a;fill-opacity:1;stroke:none;stroke-width:0.26458332px;stroke-linecap:butt;stroke-linejoin:miter;stroke-opacity:1" />
      <path
         sodipodi:nodetypes="ccccc"
         inkscape:connector-curvature="0"
         style="display:inline;opacity:1;fill:#184a45;fill-opacity:1;stroke:none;stroke-width:0.01091111;stroke-linejoin:round;stroke-miterlimit:4;stroke-dasharray:none;stroke-opacity:1;paint-order:stroke fill markers"
         d="m 250.2254,66.131985 c -3.9037,0.01101 -8.007,0.4484 -11.1813,1.5231 3.1002,2.0046 6.998,3.168499 10.6341,3.0191 3.7049,-0.01 7.3303,-1.0746 10.4486,-3.074501 -2.9698,-0.8827 -6.3987,-1.4645 -9.9014,-1.467699 z"
         id="path1527" />
      <path
         sodipodi:nodetypes="scccccccccccsss"
         inkscape:connector-curvature="0"
         style="display:inline;opacity:1;fill:#ffcc00;fill-opacity:1;stroke:none;stroke-width:0.27041465px;stroke-linecap:butt;stroke-linejoin:miter;stroke-opacity:1"
         d="m 248.50369,44.206403 c -5.15707,0 -9.61388,0.579051 -9.6139,5.27912 0,2.347751 0.21032,6.090732 1.79391,8.896662 -0.72607,0.894009 -1.36376,1.177248 -2.13424,2.153079 -2.34026,2.963971 -1.67102,5.941179 0.63647,9.25177 -0.23341,-2.250419 0.44402,-3.516529 1.41108,-4.491069 -0.35185,1.097169 -0.24803,2.167228 0.224,3.169229 0.1145,1.807361 0.79755,3.569542 1.99623,4.89086 -0.32048,-1.176401 -0.52297,-2.170319 -0.62934,-3.030288 0.48648,0.475408 1.05939,0.923858 1.70873,1.33831 -0.93204,-1.33155 -1.49055,-2.374792 -1.78035,-3.230182 0.18074,-2.677639 1.71913,-3.713221 3.42913,-5.950749 0.71777,0.371499 1.47659,0.582668 2.26851,0.582668 5.15708,0 10.02736,-5.649478 10.02736,-10.34955 0,-4.700079 -4.18047,-8.50986 -9.33759,-8.50986 z"
         id="path1794" />
      <path
         sodipodi:nodetypes="scccccccccccsss"
         inkscape:connector-curvature="0"
         id="path1775"
         d="m 248.70181,45.9262 c -5.24661,0 -9.78077,0.544886 -9.7808,4.967655 0,2.209237 0.95623,5.399953 2.56731,8.040336 -0.73867,0.841266 -2.12969,1.439225 -2.91354,2.35748 -2.38088,2.7891 -1.70003,5.590659 0.64751,8.705929 -0.23746,-2.117648 0.45173,-3.309062 1.43558,-4.226099 -0.35796,1.032433 -0.25233,2.039366 0.22788,2.982245 0.1165,1.700734 0.8114,3.358949 2.03089,4.602306 -0.32604,-1.106988 -0.53205,-2.042274 -0.64026,-2.851508 0.49493,0.447369 1.07778,0.86936 1.73839,1.259356 -0.94821,-1.25299 -1.51643,-2.234684 -1.81126,-3.039607 0.18389,-2.519656 1.74898,-3.494143 3.48867,-5.59966 0.73022,0.349578 1.50267,0.575222 2.30788,0.548288 4.94146,-0.165288 9.98026,-5.435949 10.20143,-9.73894 0.22701,-4.416951 -4.25305,-8.007781 -9.49968,-8.007781 z"
         style="display:inline;opacity:1;fill:#ffda29;fill-opacity:1;stroke:none;stroke-width:0.26458332px;stroke-linecap:butt;stroke-linejoin:miter;stroke-opacity:1" />
      <path
         sodipodi:nodetypes="cccccccc"
         inkscape:connector-curvature="0"
         id="path1529"
         d="m 246.1634,61.535884 0.01,4.776901 c -1.3642,0.125799 -2.7743,0.251899 -4.0388,0.5182 1.0651,2.990598 6.019,3.3093 7.5853,3.275899 1.4909,-0.095 5.1945,0.163599 7.488,-3.236 -1.381,-0.285901 -2.823,-0.5021 -4.2969,-0.6247 l 0.053,-4.7103 z"
         style="display:inline;opacity:1;fill:#ffdaa7;fill-opacity:1;stroke:none;stroke-width:0.0137769;stroke-linejoin:round;stroke-miterlimit:4;stroke-dasharray:none;stroke-opacity:1;paint-order:stroke fill markers" />
      <path
         sodipodi:nodetypes="ccccc"
         id="path1531"
         d="m 246.1634,61.536085 v 1.865199 c 2.5902,1.047699 4.9746,0.7875 6.762,-0.2423 l 0.03,-1.622899 z"
         style="display:inline;opacity:1;fill:#f1c27d;fill-opacity:1;stroke:none;stroke-width:0.21400841;stroke-linejoin:round;stroke-miterlimit:4;stroke-dasharray:none;stroke-opacity:1;paint-order:stroke fill markers"
         inkscape:connector-curvature="0" />
      <ellipse
         style="display:inline;opacity:1;fill:#fcdaab;fill-opacity:1;stroke:none;stroke-width:0.89072251;stroke-linecap:round;stroke-linejoin:round;stroke-miterlimit:4;stroke-dasharray:none;stroke-dashoffset:0;stroke-opacity:1;paint-order:stroke fill markers"
         id="ellipse1533"
         cx="239.41437"
         cy="49.432293"
         rx="1.667484"
         ry="2.6969903" />
      <path
         style="display:inline;opacity:1;fill:#ffdbac;fill-opacity:1;stroke:none;stroke-width:0.1791501;stroke-linejoin:round;stroke-miterlimit:4;stroke-dasharray:none;stroke-opacity:1;paint-order:stroke fill markers"
         d="m 259.088,48.392683 c 0,3.115101 -0.14205,8.078653 -2.25155,10.281351 -2.1792,2.274901 -4.16625,4.36385 -7.35635,4.36385 -3.1899,0 -5.34763,-2.18621 -7.60313,-4.389009 -2.2557,-2.202601 -2.36527,-7.26749 -2.36527,-10.382591 0,-3.115001 -0.7103,-5.733101 1.5453,-7.9359 2.2557,-2.2026 5.3151,-3.4401 8.505,-3.4401 3.1899,0 5.4461,1.40286 7.7017,3.60546 2.2556,2.202801 1.8243,4.781941 1.8243,7.896939 z"
         id="path1535"
         inkscape:connector-curvature="0"
         sodipodi:nodetypes="scscsssss" />
      <g
         id="g1541"
         transform="matrix(0.02086767,0,0,0.01907823,246.34361,38.754381)"
         style="display:inline;stroke:none">
        <path
           style="opacity:1;fill:#f1c27d;fill-opacity:1;stroke:none;stroke-width:0.13236907;stroke-linejoin:round;stroke-miterlimit:4;stroke-dasharray:none;stroke-opacity:1;paint-order:stroke fill markers;filter:url(#filter1870-4-2)"
           d="m 248.03634,812.77838 c -18.66148,-42.59291 -59.50192,-87.57003 -102.21155,-87.69977 -43.01481,-0.13067 -88.16494,56.50809 -103.356892,87.69977 -20.64565,42.38903 48.467754,42.01203 105.233902,42.01203 56.76616,0 119.62971,2.02717 100.33454,-42.01203 z"
           id="path1537"
           inkscape:connector-curvature="0"
           sodipodi:nodetypes="sascs" />
        <path
           sodipodi:nodetypes="cccccccscsccccscccc"
           inkscape:connector-curvature="0"
           id="path1539"
           d="m 142.02089,721.6495 c -6.82822,0.0183 -13.60666,1.07369 -33.44608,10.11861 -19.839391,9.04494 -50.101368,44.2019 -61.902728,65.54917 -9.153413,16.55739 -0.666729,28.42858 16.521223,36.46358 3.856386,-7.99334 11.943257,-13.0783 20.818201,-13.09044 12.784928,6e-5 23.148944,10.36436 29.762874,18.23485 2.03727,2.4243 4.78199,4.17651 9.76827,6.33652 4.98629,2.15989 11.7886,2.33956 18.47824,2.33956 0.97652,0 1.95629,-0.0117 2.93603,-0.0164 0.97951,0.0117 1.95909,0.0164 2.93539,0.0164 6.68974,0 13.49196,-0.17967 18.47824,-2.33956 4.98631,-2.16001 7.73101,-3.91222 9.76827,-6.33652 6.61393,-7.87049 16.97792,-18.23475 29.76291,-18.23485 8.87494,0.0121 16.96179,5.0971 20.81816,13.09044 17.18796,-8.035 25.67468,-19.90619 16.52126,-36.46358 -11.80139,-21.34727 -42.06333,-56.50427 -61.90276,-65.54919 -19.83942,-9.04493 -26.61778,-10.10032 -33.44608,-10.11859 -0.97745,-0.004 -1.9561,0.0217 -2.93539,0.0708 -0.97952,-0.0493 -1.95836,-0.0734 -2.93603,-0.0708 z"
           style="opacity:1;fill:#ffdaa7;fill-opacity:1;stroke:none;stroke-width:0.1216767;stroke-linejoin:round;stroke-miterlimit:4;stroke-dasharray:none;stroke-opacity:1;paint-order:stroke fill markers" />
      </g>
      <circle
         style="display:inline;opacity:1;fill:#fed1ab;fill-opacity:1;stroke:none;stroke-width:8.31443119;stroke-linejoin:round;stroke-miterlimit:4;stroke-dasharray:none;stroke-opacity:1;paint-order:stroke fill markers;filter:url(#filter2560-5)"
         id="circle1543"
         cx="-348.91934"
         cy="761.67444"
         r="157.09636"
         transform="matrix(0.01674268,0,0,0.01570839,248.68699,42.276281)" />
      <circle
         transform="matrix(0.01674268,0,0,0.01570839,261.7423,42.276281)"
         r="157.09636"
         cy="761.67444"
         cx="-348.91934"
         id="circle1545"
         style="display:inline;opacity:1;fill:#fed1ab;fill-opacity:1;stroke:none;stroke-width:8.31443119;stroke-linejoin:round;stroke-miterlimit:4;stroke-dasharray:none;stroke-opacity:1;paint-order:stroke fill markers;filter:url(#filter2556-7)" />
      <g
         transform="matrix(1.0315612,0,0,0.99777053,232.9255,-186.97112)"
         id="g1555"
         style="display:inline">
        <path
           style="opacity:1;fill:#ffffff;fill-opacity:1;stroke:none;stroke-width:0.05124756;stroke-linejoin:round;stroke-miterlimit:4;stroke-dasharray:none;stroke-opacity:1;paint-order:stroke fill markers"
           d="m 14.998345,245.83146 c -0.333831,0 -0.65399,0.11285 -0.890046,0.26605 -0.369414,0.24489 -0.803614,0.0288 -1.501707,-0.0998 1.048057,0.87745 2.298987,1.57588 3.310478,1.57588 1.011492,0 2.356806,-0.64051 3.369511,-1.57772 -0.698094,0.12861 -1.066629,0.34648 -1.436047,0.10159 -0.236051,-0.1532 -0.556211,-0.26605 -0.890045,-0.26605 -0.374665,1.8e-4 -0.792125,0.24372 -1.043419,0.24372 -0.251293,0 -0.544057,-0.24361 -0.918725,-0.24372 z"
           id="path1547"
           inkscape:connector-curvature="0"
           sodipodi:nodetypes="cccccccccc" />
        <path
           sodipodi:nodetypes="ccccccscc"
           inkscape:connector-curvature="0"
           id="path1549"
           d="m 15.003347,245.59564 c -0.333831,0 -0.653987,0.11285 -0.890041,0.26605 -0.367642,0.24372 -0.814349,0.26264 -1.506714,0.13604 1.333141,0.59112 5.59229,0.59861 6.684995,-0.002 -0.698095,0.12861 -1.066634,0.11066 -1.43605,-0.13423 -0.236054,-0.1532 -0.556209,-0.26606 -0.890041,-0.26606 -0.374667,1.2e-4 -0.7269,0.24372 -0.978193,0.24372 -0.251293,0 -0.609289,-0.2436 -0.983956,-0.24372 z"
           style="opacity:1;fill:url(#linearGradient1639);fill-opacity:1;stroke:none;stroke-width:0.1433038;stroke-linejoin:round;stroke-miterlimit:4;stroke-dasharray:none;stroke-opacity:1;paint-order:stroke fill markers" />
        <path
           sodipodi:nodetypes="ccccccc"
           inkscape:connector-curvature="0"
           id="path1551"
           d="m 19.286581,245.99671 c -0.100213,0.0713 -0.200203,0.143 -0.301534,0.21268 -1.077997,0.91844 -4.75445,0.9492 -6.090983,-0.0701 -0.104738,-0.0349 -0.202953,-0.08 -0.287472,-0.1415 1.018439,0.90916 2.356925,1.84481 3.33738,1.79905 1.010005,0.0471 2.329902,-0.85337 3.342609,-1.80084 z"
           style="opacity:1;fill:#f1c27d;fill-opacity:1;stroke:none;stroke-width:0.05152716;stroke-linejoin:round;stroke-miterlimit:4;stroke-dasharray:none;stroke-opacity:1;paint-order:stroke fill markers" />
        <path
           style="opacity:1;fill:#ffaaaa;fill-opacity:1;stroke:none;stroke-width:0.05152716;stroke-linejoin:round;stroke-miterlimit:4;stroke-dasharray:none;stroke-opacity:1;paint-order:stroke fill markers"
           d="m 19.286581,245.99671 c -0.100213,0.0713 -0.200203,0.143 -0.301534,0.21268 -1.077997,0.91844 -4.75445,0.9492 -6.090983,-0.0701 -0.104738,-0.0349 -0.202953,-0.08 -0.287472,-0.1415 1.018439,0.90916 2.356925,1.72788 3.33738,1.68212 1.010005,0.0471 2.329902,-0.73644 3.342609,-1.68391 z"
           id="path1553"
           inkscape:connector-curvature="0"
           sodipodi:nodetypes="ccccccc" />
      </g>
      <g
         id="g1595"
         transform="matrix(0.01419136,0,0,0.01418587,272.50862,44.85419)"
         style="display:inline;stroke:none">
        <path
           style="opacity:1;fill:#f1c27d;fill-opacity:1;stroke:none;stroke-width:5.38320255;stroke-linejoin:round;stroke-miterlimit:4;stroke-dasharray:none;stroke-opacity:1;paint-order:stroke fill markers"
           d="m -1793.6664,113.30361 c 19.6172,20.28949 26.4584,86.93452 26.4584,86.93452 -102.012,-33.72928 -225.0997,-69.30054 -318.1756,-68.32419 -67.0561,0.70341 -117.7048,30.89128 -137.5852,44.84461 -19.9535,-39.90685 319.3388,-177.18714836 429.3024,-63.45494 z"
           id="path1557"
           inkscape:connector-curvature="0"
           sodipodi:nodetypes="scscs" />
        <path
           style="opacity:1;fill:#f1c27d;fill-opacity:1;stroke:none;stroke-width:5.10419369;stroke-linejoin:round;stroke-miterlimit:4;stroke-dasharray:none;stroke-opacity:1;paint-order:stroke fill markers"
           d="m -1746.1198,324.79348 c 47.5266,51.16542 -86.0903,121.15265 -196.9506,121.15265 -110.8604,0 -200.7304,-56.61105 -200.7304,-126.44432 0,-69.83326 90.4894,-138.14637 200.7304,-126.44431 102.4915,10.87945 167.5664,100.10212 196.9506,131.73598 z"
           id="path1559"
           inkscape:connector-curvature="0"
           sodipodi:nodetypes="sssss" />
        <path
           style="fill:#000000;stroke:none;stroke-width:0.1182288px;stroke-linecap:butt;stroke-linejoin:miter;stroke-opacity:1"
           d="m -2073.2184,200.2317 c -59.8819,88.05079 -0.1578,119.24136 6.9121,117.70257 l 23.4267,-16.25011 c -21.2368,-21.01225 -32.7121,-30.33476 -30.3388,-101.45246 z"
           id="path1561"
           inkscape:connector-curvature="0"
           sodipodi:nodetypes="cccc" />
        <path
           style="fill:#000000;stroke:none;stroke-width:0.1182288px;stroke-linecap:butt;stroke-linejoin:miter;stroke-opacity:1"
           d="m -2184.6521,269.20111 c 45.5762,95.04846 107.0766,66.9418 109.6555,60.68333 l -1.4763,-26.98719 c -30.7851,4.43434 -45.594,7.96883 -108.1792,-33.69614 z"
           id="path1563"
           inkscape:connector-curvature="0"
           sodipodi:nodetypes="cccc" />
        <path
           sodipodi:nodetypes="cccc"
           inkscape:connector-curvature="0"
           id="path1565"
           d="m -2143.4038,220.65399 c -4.0868,103.84672 64.5585,103.33875 69.8462,98.74848 l 11.4716,-24.8676 c -29.792,-8.41162 -44.7878,-11.19754 -81.3178,-73.88088 z"
           style="fill:#000000;stroke:none;stroke-width:0.1182288px;stroke-linecap:butt;stroke-linejoin:miter;stroke-opacity:1" />
        <path
           sodipodi:nodetypes="cccc"
           inkscape:connector-curvature="0"
           id="path1567"
           d="m -2032.7558,199.77792 c -85.3335,63.69448 -39.0543,112.6645 -31.8693,113.5166 l 27.4467,-7.71735 c -13.219,-26.79135 -21.0246,-39.34776 4.4226,-105.79925 z"
           style="fill:#000000;stroke:none;stroke-width:0.1182288px;stroke-linecap:butt;stroke-linejoin:miter;stroke-opacity:1" />
        <path
           sodipodi:nodetypes="cccc"
           inkscape:connector-curvature="0"
           id="path1569"
           d="m -2108.6899,378.61114 c 21.9765,-104.19129 89.2412,-77.17565 93.0315,-71.01255 l 4.5206,28.15035 c -29.8657,-0.74764 -41.8913,6.18255 -97.5521,42.8622 z"
           style="fill:#000000;stroke:none;stroke-width:0.1182288px;stroke-linecap:butt;stroke-linejoin:miter;stroke-opacity:1" />
        <path
           style="fill:#000000;stroke:none;stroke-width:0.1182288px;stroke-linecap:butt;stroke-linejoin:miter;stroke-opacity:1"
           d="m -2125.2289,372.14787 c 15.1969,-105.39376 84.0669,-82.78177 88.2476,-76.87651 l 6.3304,27.79934 c -29.8515,1.18407 -41.4041,8.87696 -94.578,49.07717 z"
           id="path1571"
           inkscape:connector-curvature="0"
           sodipodi:nodetypes="cccc" />
        <path
           style="opacity:1;fill:#000000;fill-opacity:1;stroke:none;stroke-width:5.35382175;stroke-linejoin:round;stroke-miterlimit:4;stroke-dasharray:none;stroke-opacity:1;paint-order:stroke fill markers;filter:url(#filter1926-2)"
           d="m -1751.8633,349.3367 c -35.4733,50.74989 -101.5784,75.21678 -202.6741,75.21678 -101.0957,0 -180.615,-68.26577 -162.329,-120.67099 19.2409,-55.14172 97.6494,-104.43186 196.3706,-83.18044 101.3116,21.80904 141.3444,88.20554 168.6325,128.63465 z"
           id="path1573"
           inkscape:connector-curvature="0"
           sodipodi:nodetypes="csssc" />
        <path
           sodipodi:nodetypes="sscsccs"
           style="opacity:0.98999999;fill:#ffffff;fill-opacity:1;stroke:none;stroke-width:5.19402456;stroke-linejoin:round;stroke-miterlimit:4;stroke-dasharray:none;stroke-opacity:1;paint-order:stroke fill markers"
           d="m -1950.9919,226.79732 c -74.992,0.12277 -131.6014,40.23167 -147.4558,84.24498 -14.287,39.66189 31.9968,88.836 101.4303,107.52608 11.7412,1.91267 23.9708,2.95055 36.5395,2.95055 99.6513,0 165.215,-22.44756 199.8051,-71.14633 -25.5877,-36.72244 -62.7471,-97.90791 -152.0926,-120.25665 -13.1694,-2.28333 -25.945,-3.33874 -38.2265,-3.31863 z"
           id="path1575"
           inkscape:connector-curvature="0" />
        <circle
           cy="323.94971"
           cx="-1950.3213"
           id="circle1577"
           style="opacity:1;fill:#80b78a;fill-opacity:1;stroke:none;stroke-width:0.0750456;stroke-linejoin:round;stroke-miterlimit:4;stroke-dasharray:none;stroke-opacity:1;paint-order:stroke fill markers"
           r="95.581955" />
        <path
           sodipodi:type="star"
           style="opacity:1;fill:url(#linearGradient2676);fill-opacity:1;stroke:none;stroke-width:0.14517134;stroke-linejoin:round;stroke-miterlimit:4;stroke-dasharray:none;stroke-opacity:1;paint-order:stroke fill markers;filter:url(#filter1717-7)"
           id="path1579"
           sodipodi:sides="21"
           sodipodi:cx="-1949.2515"
           sodipodi:cy="322.47253"
           sodipodi:r1="47.919106"
           sodipodi:r2="81.218826"
           sodipodi:arg1="0.52359878"
           sodipodi:arg2="0.67319843"
           inkscape:flatsided="false"
           inkscape:rounded="0"
           inkscape:randomized="0"
           d="m -1907.7523,346.43209 22.0003,26.67955 -30.9062,-15.51192 13.1589,31.97896 -24.9608,-23.93252 3.1483,34.43688 -16.7977,-30.22662 -7.142,33.83494 -7.1419,-33.83494 -16.7977,30.22662 3.1483,-34.43688 -24.9609,23.93252 13.159,-31.97896 -30.9062,15.51192 22.0003,-26.67955 -34.1053,5.71301 28.8868,-19.00956 -34.2741,-4.59352 33.2066,-9.65049 -31.3974,-14.49189 34.5759,0.56608 -25.7309,-23.1026 32.8729,10.73234 -17.7782,-29.66054 28.249,19.94499 -8.2457,-33.58301 21.1151,27.38544 2.0194,-34.52148 12.105,32.39257 12.1051,-32.39257 2.0193,34.52148 21.1152,-27.38544 -8.2458,33.58301 28.2491,-19.94499 -17.7782,29.66054 32.8729,-10.73234 -25.7309,23.1026 34.5758,-0.56607 -31.3974,14.49189 33.2067,9.65049 -34.2741,4.59351 28.8868,19.00956 z"
           inkscape:transform-center-x="5.218182"
           inkscape:transform-center-y="2.6234569" />
        <circle
           r="57.830357"
           cy="322.3244"
           cx="-1949.9791"
           id="circle1581"
           style="opacity:0.58600003;fill:#ffd42a;fill-opacity:1;stroke:none;stroke-width:0.26499999;stroke-linejoin:round;stroke-miterlimit:4;stroke-dasharray:none;stroke-opacity:1;paint-order:stroke fill markers;filter:url(#filter1653-0)" />
        <circle
           cy="323.94971"
           cx="-1950.3213"
           id="circle1583"
           style="opacity:0.98999999;fill:#000000;fill-opacity:1;stroke:none;stroke-width:0.03868802;stroke-linejoin:round;stroke-miterlimit:4;stroke-dasharray:none;stroke-opacity:1;paint-order:stroke fill markers"
           r="49.27507" />
        <path
           style="opacity:0.36300001;fill:#000000;fill-opacity:1;stroke:none;stroke-width:7.98358202;stroke-linejoin:round;stroke-miterlimit:4;stroke-dasharray:none;stroke-opacity:1;paint-order:stroke fill markers;filter:url(#filter1677-9)"
           d="m -1950.3212,228.36764 c -40.5068,0.0512 -76.5826,25.62958 -90.0357,63.83709 50.6141,-35.81908 95.3966,-28.24952 180.3639,0.84874 -13.1999,-38.64385 -49.4922,-64.63347 -90.3282,-64.68583 z"
           id="path1585"
           inkscape:connector-curvature="0"
           sodipodi:nodetypes="cccc" />
        <circle
           style="opacity:0.98999999;fill:#ffffff;fill-opacity:1;stroke:none;stroke-width:0.0907073;stroke-linejoin:round;stroke-miterlimit:4;stroke-dasharray:none;stroke-opacity:1;paint-order:stroke fill markers"
           id="circle1587"
           cx="-1994.7261"
           cy="282.77756"
           r="23.802254" />
        <path
           style="opacity:0.30199998;fill:#ffffff;fill-opacity:1;stroke:none;stroke-width:7.98358202;stroke-linejoin:round;stroke-miterlimit:4;stroke-dasharray:none;stroke-opacity:1;paint-order:stroke fill markers;filter:url(#filter1705-3)"
           d="m -1861.7499,357.8068 c -46.5791,45.02884 -113.5437,50.00633 -176.5669,3.21492 14.9039,35.41846 49.5691,58.46801 87.9956,58.5099 33.2451,-0.0487 64.0769,-17.36848 81.4146,-45.73475 2.8336,-5.03684 5.2401,-10.37901 7.1567,-15.99007 z"
           id="path1589"
           inkscape:connector-curvature="0"
           sodipodi:nodetypes="ccccc" />
        <circle
           r="9.3395777"
           cy="319.08032"
           cx="-1973.7572"
           id="circle1591"
           style="opacity:0.98999999;fill:#ffffff;fill-opacity:1;stroke:none;stroke-width:0.03559192;stroke-linejoin:round;stroke-miterlimit:4;stroke-dasharray:none;stroke-opacity:1;paint-order:stroke fill markers" />
        <path
           style="opacity:1;fill:#ffbd00;fill-opacity:1;stroke:none;stroke-width:5.38320255;stroke-linejoin:round;stroke-miterlimit:4;stroke-dasharray:none;stroke-opacity:1;paint-order:stroke fill markers"
           d="m -1782.6179,111.1432 c 22.6076,16.89345 13.898,73.97588 13.898,73.97588 -115.5878,-45.34748 -237.2601,-74.29309 -316.8063,-71.86807 -62.9276,1.91838 -122.9982,57.42046 -143.9874,58.59097 1.7366,-78.524294 302.7935,-168.3786031 446.8957,-60.69878 z"
           id="path1593"
           inkscape:connector-curvature="0"
           sodipodi:nodetypes="scscs" />
      </g>
      <g
         style="display:inline;stroke:none"
         transform="matrix(-0.01419136,0,0,0.01418587,226.22935,44.85419)"
         id="g1635">
        <path
           sodipodi:nodetypes="scscs"
           inkscape:connector-curvature="0"
           id="path1597"
           d="m -1793.6664,113.30361 c 19.6172,20.28949 26.4584,86.93452 26.4584,86.93452 -102.012,-33.72928 -225.0997,-69.30054 -318.1756,-68.32419 -67.0561,0.70341 -117.7048,30.89128 -137.5852,44.84461 -19.9535,-39.90685 319.3388,-177.18714836 429.3024,-63.45494 z"
           style="opacity:1;fill:#f1c27d;fill-opacity:1;stroke:none;stroke-width:5.38320255;stroke-linejoin:round;stroke-miterlimit:4;stroke-dasharray:none;stroke-opacity:1;paint-order:stroke fill markers" />
        <path
           sodipodi:nodetypes="sssss"
           inkscape:connector-curvature="0"
           id="path1599"
           d="m -1746.1198,324.79348 c 47.5266,51.16542 -86.0903,121.15265 -196.9506,121.15265 -110.8604,0 -200.7304,-56.61105 -200.7304,-126.44432 0,-69.83326 90.4894,-138.14637 200.7304,-126.44431 102.4915,10.87945 167.5664,100.10212 196.9506,131.73598 z"
           style="opacity:1;fill:#f1c27d;fill-opacity:1;stroke:none;stroke-width:5.10419369;stroke-linejoin:round;stroke-miterlimit:4;stroke-dasharray:none;stroke-opacity:1;paint-order:stroke fill markers" />
        <path
           sodipodi:nodetypes="cccc"
           inkscape:connector-curvature="0"
           id="path1601"
           d="m -2073.2184,200.2317 c -59.8819,88.05079 -0.1578,119.24136 6.9121,117.70257 l 23.4267,-16.25011 c -21.2368,-21.01225 -32.7121,-30.33476 -30.3388,-101.45246 z"
           style="fill:#000000;stroke:none;stroke-width:0.1182288px;stroke-linecap:butt;stroke-linejoin:miter;stroke-opacity:1" />
        <path
           sodipodi:nodetypes="cccc"
           inkscape:connector-curvature="0"
           id="path1603"
           d="m -2184.6521,269.20111 c 45.5762,95.04846 107.0766,66.9418 109.6555,60.68333 l -1.4763,-26.98719 c -30.7851,4.43434 -45.594,7.96883 -108.1792,-33.69614 z"
           style="fill:#000000;stroke:none;stroke-width:0.1182288px;stroke-linecap:butt;stroke-linejoin:miter;stroke-opacity:1" />
        <path
           style="fill:#000000;stroke:none;stroke-width:0.1182288px;stroke-linecap:butt;stroke-linejoin:miter;stroke-opacity:1"
           d="m -2143.4038,220.65399 c -4.0868,103.84672 64.5585,103.33875 69.8462,98.74848 l 11.4716,-24.8676 c -29.792,-8.41162 -44.7878,-11.19754 -81.3178,-73.88088 z"
           id="path1605"
           inkscape:connector-curvature="0"
           sodipodi:nodetypes="cccc" />
        <path
           style="fill:#000000;stroke:none;stroke-width:0.1182288px;stroke-linecap:butt;stroke-linejoin:miter;stroke-opacity:1"
           d="m -2032.7558,199.77792 c -85.3335,63.69448 -39.0543,112.6645 -31.8693,113.5166 l 27.4467,-7.71735 c -13.219,-26.79135 -21.0246,-39.34776 4.4226,-105.79925 z"
           id="path1607"
           inkscape:connector-curvature="0"
           sodipodi:nodetypes="cccc" />
        <path
           style="fill:#000000;stroke:none;stroke-width:0.1182288px;stroke-linecap:butt;stroke-linejoin:miter;stroke-opacity:1"
           d="m -2108.6899,378.61114 c 21.9765,-104.19129 89.2412,-77.17565 93.0315,-71.01255 l 4.5206,28.15035 c -29.8657,-0.74764 -41.8913,6.18255 -97.5521,42.8622 z"
           id="path1609"
           inkscape:connector-curvature="0"
           sodipodi:nodetypes="cccc" />
        <path
           sodipodi:nodetypes="cccc"
           inkscape:connector-curvature="0"
           id="path1611"
           d="m -2125.2289,372.14787 c 15.1969,-105.39376 84.0669,-82.78177 88.2476,-76.87651 l 6.3304,27.79934 c -29.8515,1.18407 -41.4041,8.87696 -94.578,49.07717 z"
           style="fill:#000000;stroke:none;stroke-width:0.1182288px;stroke-linecap:butt;stroke-linejoin:miter;stroke-opacity:1" />
        <path
           sodipodi:nodetypes="csssc"
           inkscape:connector-curvature="0"
           id="path1613"
           d="m -1751.8633,349.3367 c -35.4733,50.74989 -101.5784,75.21678 -202.6741,75.21678 -101.0957,0 -180.615,-68.26577 -162.329,-120.67099 19.2409,-55.14172 97.6494,-104.43186 196.3706,-83.18044 101.3116,21.80904 141.3444,88.20554 168.6325,128.63465 z"
           style="opacity:1;fill:#000000;fill-opacity:1;stroke:none;stroke-width:5.35382175;stroke-linejoin:round;stroke-miterlimit:4;stroke-dasharray:none;stroke-opacity:1;paint-order:stroke fill markers;filter:url(#filter1926-2)" />
        <path
           inkscape:connector-curvature="0"
           id="path1615"
           d="m -1950.9919,226.79732 c -74.992,0.12277 -131.6014,40.23167 -147.4558,84.24498 -14.287,39.66189 31.9968,88.836 101.4303,107.52608 11.7412,1.91267 23.9708,2.95055 36.5395,2.95055 99.6513,0 165.215,-22.44756 199.8051,-71.14633 -25.5877,-36.72244 -62.7471,-97.90791 -152.0926,-120.25665 -13.1694,-2.28333 -25.945,-3.33874 -38.2265,-3.31863 z"
           style="opacity:0.98999999;fill:#ffffff;fill-opacity:1;stroke:none;stroke-width:5.19402456;stroke-linejoin:round;stroke-miterlimit:4;stroke-dasharray:none;stroke-opacity:1;paint-order:stroke fill markers"
           sodipodi:nodetypes="sscsccs" />
        <circle
           r="95.581955"
           style="opacity:1;fill:#80b78a;fill-opacity:1;stroke:none;stroke-width:0.0750456;stroke-linejoin:round;stroke-miterlimit:4;stroke-dasharray:none;stroke-opacity:1;paint-order:stroke fill markers"
           id="circle1617"
           cx="-1950.3213"
           cy="323.94971" />
        <path
           inkscape:transform-center-y="2.6234569"
           inkscape:transform-center-x="5.218182"
           d="m -1907.7523,346.43209 22.0003,26.67955 -30.9062,-15.51192 13.1589,31.97896 -24.9608,-23.93252 3.1483,34.43688 -16.7977,-30.22662 -7.142,33.83494 -7.1419,-33.83494 -16.7977,30.22662 3.1483,-34.43688 -24.9609,23.93252 13.159,-31.97896 -30.9062,15.51192 22.0003,-26.67955 -34.1053,5.71301 28.8868,-19.00956 -34.2741,-4.59352 33.2066,-9.65049 -31.3974,-14.49189 34.5759,0.56608 -25.7309,-23.1026 32.8729,10.73234 -17.7782,-29.66054 28.249,19.94499 -8.2457,-33.58301 21.1151,27.38544 2.0194,-34.52148 12.105,32.39257 12.1051,-32.39257 2.0193,34.52148 21.1152,-27.38544 -8.2458,33.58301 28.2491,-19.94499 -17.7782,29.66054 32.8729,-10.73234 -25.7309,23.1026 34.5758,-0.56607 -31.3974,14.49189 33.2067,9.65049 -34.2741,4.59351 28.8868,19.00956 z"
           inkscape:randomized="0"
           inkscape:rounded="0"
           inkscape:flatsided="false"
           sodipodi:arg2="0.67319843"
           sodipodi:arg1="0.52359878"
           sodipodi:r2="81.218826"
           sodipodi:r1="47.919106"
           sodipodi:cy="322.47253"
           sodipodi:cx="-1949.2515"
           sodipodi:sides="21"
           id="path1619"
           style="opacity:1;fill:url(#linearGradient1643);fill-opacity:1;stroke:none;stroke-width:0.14517134;stroke-linejoin:round;stroke-miterlimit:4;stroke-dasharray:none;stroke-opacity:1;paint-order:stroke fill markers;filter:url(#filter1717-7)"
           sodipodi:type="star" />
        <circle
           style="opacity:0.58600003;fill:#ffd42a;fill-opacity:1;stroke:none;stroke-width:0.26499999;stroke-linejoin:round;stroke-miterlimit:4;stroke-dasharray:none;stroke-opacity:1;paint-order:stroke fill markers;filter:url(#filter1653-0)"
           id="circle1621"
           cx="-1949.9791"
           cy="322.3244"
           r="57.830357" />
        <circle
           r="49.27507"
           style="opacity:0.98999999;fill:#000000;fill-opacity:1;stroke:none;stroke-width:0.03868802;stroke-linejoin:round;stroke-miterlimit:4;stroke-dasharray:none;stroke-opacity:1;paint-order:stroke fill markers"
           id="circle1623"
           cx="-1950.3213"
           cy="323.94971" />
        <path
           sodipodi:nodetypes="cccc"
           inkscape:connector-curvature="0"
           id="path1625"
           d="m -1950.3212,228.36764 c -40.5068,0.0512 -76.5826,25.62958 -90.0357,63.83709 50.6141,-35.81908 95.3966,-28.24952 180.3639,0.84874 -13.1999,-38.64385 -49.4922,-64.63347 -90.3282,-64.68583 z"
           style="opacity:0.36300001;fill:#000000;fill-opacity:1;stroke:none;stroke-width:7.98358202;stroke-linejoin:round;stroke-miterlimit:4;stroke-dasharray:none;stroke-opacity:1;paint-order:stroke fill markers;filter:url(#filter1677-9)" />
        <circle
           r="23.802254"
           cy="282.77756"
           cx="-1994.7261"
           id="circle1627"
           style="opacity:0.98999999;fill:#ffffff;fill-opacity:1;stroke:none;stroke-width:0.0907073;stroke-linejoin:round;stroke-miterlimit:4;stroke-dasharray:none;stroke-opacity:1;paint-order:stroke fill markers" />
        <path
           sodipodi:nodetypes="ccccc"
           inkscape:connector-curvature="0"
           id="path1629"
           d="m -1861.7499,357.8068 c -46.5791,45.02884 -113.5437,50.00633 -176.5669,3.21492 14.9039,35.41846 49.5691,58.46801 87.9956,58.5099 33.2451,-0.0487 64.0769,-17.36848 81.4146,-45.73475 2.8336,-5.03684 5.2401,-10.37901 7.1567,-15.99007 z"
           style="opacity:0.30199998;fill:#ffffff;fill-opacity:1;stroke:none;stroke-width:7.98358202;stroke-linejoin:round;stroke-miterlimit:4;stroke-dasharray:none;stroke-opacity:1;paint-order:stroke fill markers;filter:url(#filter1705-3)" />
        <circle
           style="opacity:0.98999999;fill:#ffffff;fill-opacity:1;stroke:none;stroke-width:0.03559192;stroke-linejoin:round;stroke-miterlimit:4;stroke-dasharray:none;stroke-opacity:1;paint-order:stroke fill markers"
           id="circle1631"
           cx="-1973.7572"
           cy="319.08032"
           r="9.3395777" />
        <path
           sodipodi:nodetypes="scscs"
           inkscape:connector-curvature="0"
           id="path1633"
           d="m -1782.6179,111.1432 c 22.6076,16.89345 13.898,73.97588 13.898,73.97588 -115.5878,-45.34748 -237.2601,-74.29309 -316.8063,-71.86807 -62.9276,1.91838 -122.9982,57.42046 -143.9874,58.59097 1.7366,-78.524294 302.7935,-168.3786031 446.8957,-60.69878 z"
           style="opacity:1;fill:#ffbd00;fill-opacity:1;stroke:none;stroke-width:5.38320255;stroke-linejoin:round;stroke-miterlimit:4;stroke-dasharray:none;stroke-opacity:1;paint-order:stroke fill markers" />
      </g>
      <path
         sodipodi:nodetypes="cccccccccccccccccc"
         inkscape:connector-curvature="0"
         id="path1653"
         d="m 251.14664,35.96867 c -0.86876,-0.01648 -1.63748,-0.05407 -2.18437,0.214974 v -0.03876 c -6.22755,-1.223539 -11.98415,5.34134 -11.65268,12.004606 0.75716,1.303933 -1.93582,1.932628 -1.53987,2.08312 4.90106,-0.442264 10.23498,-4.405929 13.49332,-9.116454 0.0794,0.02127 0.15907,0.04227 0.24443,0.05633 0.14031,0.514501 4.06939,6.688445 7.39023,6.969086 0.84479,0.07139 1.44309,0.406648 1.86759,0.866097 -0.42225,2.123017 -0.91374,5.32755 -0.20722,6.126239 1.07577,1.216081 2.99342,1.660454 1.4733,3.297473 2.36199,-0.865288 -0.0702,-2.969987 -0.91209,-4.045746 -0.5165,-0.659977 -0.37214,-3.259614 -0.18397,-5.17488 1.04926,1.372418 0.81545,3.561025 0.81545,3.561025 1.04828,-1.05646 1.96043,-2.248657 1.96424,-4.349605 0,0 -2.76365,-9.524195 -6.31831,-11.020906 -1.85417,-0.872543 -3.0494,-1.409819 -4.24952,-1.432597 z"
         style="display:inline;opacity:1;fill:#ffd42a;stroke:none;stroke-width:0.26458332px;stroke-linecap:butt;stroke-linejoin:miter;stroke-opacity:1" />
      <path
         inkscape:connector-curvature="0"
         style="display:inline;opacity:1;fill:#ffcc00;stroke:none;stroke-width:0.26552805px;stroke-linecap:butt;stroke-linejoin:miter;stroke-opacity:1"
         d="m 250.50231,36.538514 c -0.61053,-0.005 -1.14732,0.0247 -1.55894,0.22716 v -0.0389 c -6.24979,-1.22791 -12.02678,5.36024 -11.69412,12.04729 0.75986,1.308589 -1.94282,1.939491 -1.54545,2.090521 1.46351,-0.13207 2.96517,-0.57834 4.43928,-1.262812 -0.75195,2.1634 -2.57199,3.060743 -2.53808,4.474041 0.22496,1.462111 0.2531,2.446279 0.2531,2.446279 0.099,-1.199398 0.22594,-2.172869 0.66486,-2.730989 1.85437,-2.358131 3.19802,-2.907401 2.82744,-4.80545 3.03276,-1.690849 5.8651,-4.33555 7.8948,-7.269861 0.0797,0.0213 0.15962,0.0424 0.24529,0.0566 0.14081,0.516329 4.08395,6.712318 7.41665,6.99397 0.8478,0.0716 1.44824,0.40809 1.87426,0.86919 -0.42376,2.130589 -0.91701,5.34656 -0.20797,6.14811 1.07961,1.22042 3.00408,1.66638 1.47854,3.30925 2.37043,-0.868389 -0.0705,-2.980601 -0.91533,-4.060201 -0.51833,-0.662329 -0.37347,-3.27125 -0.18462,-5.193361 1.05301,1.377331 0.81836,3.573741 0.81836,3.573741 1.05202,-1.06022 1.9674,-2.25669 1.97123,-4.365131 0,0 -2.45215,-9.736739 -6.0195,-11.238789 -1.86079,-0.87566 -3.38166,-1.23632 -4.58607,-1.25918 h -5.3e-4 c -0.21797,-0.004 -0.42973,-0.01 -0.63323,-0.0114 z"
         id="path1792" />
      <path
         sodipodi:nodetypes="ccccccccccccccccccccccccc"
         inkscape:connector-curvature="0"
         id="path1783"
         d="m 250.51566,35.957301 c -0.60836,-0.0049 -1.14324,0.02455 -1.55339,0.226343 v -0.03876 c -6.22755,-1.223539 -11.98399,5.34117 -11.65252,12.004434 0.75716,1.303933 -1.9359,1.932586 -1.53995,2.083078 1.4583,-0.131596 2.95463,-0.576281 4.42349,-1.258321 -0.74928,2.155703 -2.56284,3.04986 -2.52905,4.458126 0.22416,1.456909 0.2522,2.437577 0.2522,2.437577 0.0987,-1.195128 0.22514,-2.165141 0.66249,-2.721279 1.84777,-2.349739 3.18664,-2.897053 2.81739,-4.78834 3.02197,-1.684842 5.84422,-4.320135 7.8667,-7.244003 0.0794,0.02127 0.15907,0.04227 0.24442,0.05633 0.14031,0.514501 4.06942,6.688445 7.39026,6.969086 0.84479,0.07139 1.44309,0.406648 1.86759,0.866097 -0.42225,2.123017 -0.91374,5.32755 -0.20722,6.126239 1.07577,1.216081 2.99339,1.660454 1.47328,3.297473 2.36199,-0.865288 -0.0702,-2.969987 -0.91207,-4.045746 -0.5165,-0.659977 -0.37214,-3.259614 -0.18397,-5.17488 1.04926,1.372418 0.81545,3.561025 0.81545,3.561025 1.04828,-1.05646 1.9604,-2.248659 1.96421,-4.349605 0,0 -2.55016,-9.132826 -6.10481,-10.629537 -1.85417,-0.872543 -3.26289,-1.801188 -4.46302,-1.823966 v 0 c -0.21719,-0.0041 -0.4282,-0.0097 -0.63098,-0.01138 z"
         style="display:inline;opacity:1;fill:#ffda29;stroke:none;stroke-width:0.26458332px;stroke-linecap:butt;stroke-linejoin:miter;stroke-opacity:1;fill-opacity:1" />
      <path
         sodipodi:nodetypes="cscc"
         inkscape:connector-curvature="0"
         id="rect1454"
         d="m 249.65127,14.435984 c 2.58039,2.47617 1.76815,3.89593 0.93303,5.48571 -0.93881,1.78713 -2.46906,3.42613 -1.12266,5.95115 -3.15459,-3.59304 -6.09128,-5.93393 0.18963,-11.43686 z"
         style="display:inline;opacity:1;fill:url(#linearGradient2288);fill-opacity:1;stroke:#000000;stroke-width:0.2;stroke-linecap:round;stroke-linejoin:round;stroke-miterlimit:4;stroke-dasharray:none;stroke-dashoffset:0;stroke-opacity:1;paint-order:markers fill stroke" />
      <path
         sodipodi:nodetypes="ccc"
         inkscape:connector-curvature="0"
         id="rect1457"
         d="m 252.53393,17.561044 c 1.61038,1.85768 0.69455,5.62017 -1.93836,8.3118 -2.16534,-2.79453 2.43951,-6.0604 1.93836,-8.3118 z"
         style="display:inline;opacity:1;fill:url(#radialGradient2304);fill-opacity:1;stroke:#000000;stroke-width:0.2;stroke-linecap:round;stroke-linejoin:round;stroke-miterlimit:4;stroke-dasharray:none;stroke-dashoffset:0;stroke-opacity:1;paint-order:markers fill stroke" />
      <path
         sodipodi:nodetypes="cccccc"
         inkscape:connector-curvature="0"
         id="rect1473"
         d="m 221.81878,23.670754 4.75176,10.63978 7.61007,-3.39869 -3.19496,-7.15389 -4.93063,-1.97913 z"
         style="display:inline;opacity:1;fill:#0084a1;fill-opacity:1;stroke:#000000;stroke-width:0.206;stroke-linecap:round;stroke-linejoin:round;stroke-miterlimit:4;stroke-dasharray:none;stroke-dashoffset:0;stroke-opacity:1;paint-order:stroke fill markers" />
      <path
         sodipodi:nodetypes="cccccc"
         inkscape:connector-curvature="0"
         transform="matrix(0.23799341,0,0,0.23799341,-52.457672,-159.94805)"
         id="path1480"
         d="m 1170.0287,764.14536 -0.2149,0.0957 6.6155,15.71335 15.2295,-6.58789 -0.4911,-1.08175 z"
         style="display:inline;opacity:1;fill:#007088;fill-opacity:1;stroke:none;stroke-width:0.96603823;stroke-linecap:round;stroke-linejoin:round;stroke-miterlimit:4;stroke-dasharray:none;stroke-dashoffset:0;stroke-opacity:1;paint-order:stroke fill markers;filter:url(#filter1565)" />
      <path
         inkscape:connector-curvature="0"
         id="path1477"
         d="m 230.9857,23.757934 -4.93068,-1.97911 1.55684,3.48587 z"
         style="display:inline;opacity:1;fill:#0084a1;fill-opacity:0.95555556;stroke:#000000;stroke-width:0.20628344;stroke-linecap:round;stroke-linejoin:round;stroke-miterlimit:4;stroke-dasharray:none;stroke-dashoffset:0;stroke-opacity:1;paint-order:stroke fill markers" />
      <rect
         transform="rotate(41.762319)"
         ry="0"
         y="-165.81418"
         x="221.53094"
         height="8.9769516"
         width="2.1254838"
         id="rect1583"
         style="display:inline;opacity:1;fill:#ffda29;fill-opacity:1;stroke:#000000;stroke-width:0.32973504;stroke-linecap:round;stroke-linejoin:miter;stroke-miterlimit:4;stroke-dasharray:none;stroke-dashoffset:0;stroke-opacity:1;paint-order:stroke fill markers" />
      <path
         sodipodi:nodetypes="cccc"
         inkscape:connector-curvature="0"
         id="path1586"
         d="m 269.64408,30.717554 -1.07638,2.74752 2.57557,-1.40886 z"
         style="display:inline;fill:#ffffff;stroke:#000000;stroke-width:0.32973504;stroke-linecap:butt;stroke-linejoin:miter;stroke-miterlimit:4;stroke-dasharray:none;stroke-opacity:1" />
      <path
         inkscape:connector-curvature="0"
         id="path1590"
         d="m 270.33446,31.450554 6.16385,-6.90302"
         style="display:inline;fill:none;stroke:#000000;stroke-width:0.32973504;stroke-linecap:butt;stroke-linejoin:miter;stroke-miterlimit:4;stroke-dasharray:none;stroke-opacity:1" />
      <path
         inkscape:connector-curvature="0"
         id="path1594"
         d="m 268.94347,32.469374 -0.38639,0.9862 0.92455,-0.50566 z"
         style="display:inline;fill:#000000;stroke:#000000;stroke-width:0.32973504;stroke-linecap:butt;stroke-linejoin:miter;stroke-miterlimit:4;stroke-dasharray:none;stroke-opacity:1" />
      <rect
         transform="rotate(41.762319)"
         ry="0"
         y="-167.71284"
         x="221.47052"
         height="1.5126755"
         width="2.2463348"
         id="rect1599"
         style="display:inline;opacity:1;fill:#ffd5d5;fill-opacity:1;stroke:#000000;stroke-width:0.20887202;stroke-linecap:round;stroke-linejoin:miter;stroke-miterlimit:4;stroke-dasharray:none;stroke-dashoffset:0;stroke-opacity:1;paint-order:markers fill stroke" />
    </g>
  </g>
</svg>
