<?xml version="1.0" encoding="utf-8"?>
<!-- Generator: Adobe Illustrator 23.0.3, SVG Export Plug-In . SVG Version: 6.00 Build 0)  -->
<svg version="1.1" id="Warstwa_1" xmlns="http://www.w3.org/2000/svg" xmlns:xlink="http://www.w3.org/1999/xlink" x="0px" y="0px"
	 width="344.3px" height="251.3px" viewBox="0 0 344.3 251.3" style="enable-background:new 0 0 344.3 251.3;" xml:space="preserve"
	>
<style type="text/css">
	.st0{fill:#E72B5B;}
	.st1{fill:#FFFFFF;}
</style>
<path class="st0" d="M8.2,167V17.2C8.2,8,15.6,0.6,24.7,0.6h225.5c9.1,0,16.6,7.4,16.6,16.6V167c0,9.1-7.4,16.6-16.6,16.6H24.7
	C15.6,183.6,8.2,176.2,8.2,167z"/>
<path class="st1" d="M23.8,162.3V21.9c0-1.6,1.3-3,3-3h221.3c1.6,0,3,1.3,3,3v140.5c0,1.6-1.3,3-3,3H26.8
	C25.2,165.3,23.8,164,23.8,162.3z"/>
<path class="st0" d="M65.2,245.3H9c-4.6,0-8.3-3.7-8.3-8.3V121.9c0-4.6,3.7-8.3,8.3-8.3h56.1c4.6,0,8.3,3.7,8.3,8.3V237
	C73.5,241.6,69.8,245.3,65.2,245.3z"/>
<rect x="8" y="126.8" class="st1" width="58.2" height="105.4"/>
<rect x="132.9" y="183.6" class="st0" width="19.4" height="36.6"/>
<ellipse class="st0" cx="142.6" cy="223.8" rx="38.8" ry="11"/>
<path class="st0" d="M136.9,236.4V118.4c0-7.9,6.4-14.2,14.2-14.2h178.4c7.9,0,14.2,6.4,14.2,14.2v117.9c0,7.9-6.4,14.2-14.2,14.2
	H151.1C143.2,250.6,136.9,244.2,136.9,236.4z"/>
<path class="st1" d="M155,234.7V120.1c0-0.7,0.6-1.2,1.2-1.2h168.1c0.7,0,1.2,0.6,1.2,1.2v114.6c0,0.7-0.6,1.2-1.2,1.2H156.2
	C155.6,236,155,235.4,155,234.7z"/>
</svg>
