<?xml version="1.0" encoding="utf-8"?>
<!-- Generator: Adobe Illustrator 23.0.3, SVG Export Plug-In . SVG Version: 6.00 Build 0)  -->
<svg version="1.1" id="Warstwa_1" xmlns="http://www.w3.org/2000/svg" xmlns:xlink="http://www.w3.org/1999/xlink" x="0px" y="0px"
	 width="223px" height="256.4px" viewBox="0 0 223 256.4" style="enable-background:new 0 0 223 256.4;" xml:space="preserve">
<style type="text/css">
	.st0{fill:#E72B5B;}
	.st1{fill:#FDFDFD;stroke:#E72B5B;stroke-miterlimit:10;}
	.st2{fill:none;}
	.st3{fill:#FFFFFF;}
	.st4{font-family:'Arial-BoldMT';}
	.st5{font-size:38.5257px;}
</style>
<path class="st0" d="M193.5,256H29.9c-0.8,0-1.5-0.7-1.5-1.5V7.5C28.4,6.7,29,6,29.9,6h163.6c0.8,0,1.5,0.7,1.5,1.5v246.9
	C195,255.3,194.3,256,193.5,256z"/>
<path class="st1" d="M152.3,40.9v-8.2c0-4.8-3.4-8.7-7.7-8.7H53.4c-4.2,0-7.7,3.9-7.7,8.7v196.7c0,4.8,3.4,8.7,7.7,8.7H170
	c4.2,0,7.7-3.9,7.7-8.7V58.2c0-4.8-3.4-8.7-7.7-8.7h-10C155.8,49.6,152.3,45.7,152.3,40.9z"/>
<path class="st0" d="M219.7,215.1H3.7c-1.1,0-2-0.9-2-2v-65.8c0-1.1,0.9-2,2-2h216c1.1,0,2,0.9,2,2v65.8
	C221.7,214.2,220.8,215.1,219.7,215.1z"/>
<rect x="9" y="159.3" class="st2" width="205.3" height="41.9"/>
<text transform="matrix(1.5699 0 0 1 47.8158 192.3362)" class="st3 st4 st5">SEO</text>
</svg>
