<?xml version="1.0" encoding="utf-8"?>
<!-- Generator: Adobe Illustrator 23.0.3, SVG Export Plug-In . SVG Version: 6.00 Build 0)  -->
<svg version="1.1" id="Warstwa_1" xmlns="http://www.w3.org/2000/svg" xmlns:xlink="http://www.w3.org/1999/xlink" x="0px" y="0px"
	 width="137.8px" height="136.1px" viewBox="0 0 137.8 136.1" style="enable-background:new 0 0 137.8 136.1;" xml:space="preserve"
	>
<style type="text/css">
	.st0{fill:#4C4554;}
	.st1{fill:#FFFFFF;}
	.st2{fill:#9E9E9E;}
	.st3{fill:#737373;}
	.st4{fill:#84C493;}
</style>
<polygon class="st0" points="25.7,125.8 40.6,135.7 103.1,10 88.3,0 "/>
<polygon class="st0" points="103.5,126.1 88.6,136.1 26,10.3 40.9,0.3 "/>
<rect x="57.4" y="4.9" transform="matrix(-1.836970e-16 1 -1 -1.836970e-16 134.8685 7.563686e-02)" class="st0" width="19.9" height="125.1"/>
<ellipse class="st0" cx="64.8" cy="68.2" rx="48.2" ry="55.9"/>
<g>
	<path class="st0" d="M16.1,95L0.8,107.9L10.9,124l15.2-12.9C22,106.5,18.6,101.1,16.1,95z"/>
</g>
<ellipse class="st1" cx="64.8" cy="68.2" rx="34.9" ry="40.5"/>
<g>
	<path class="st1" d="M98.1,68.2c0-19.2-14.9-34.7-33.4-34.7c-18.4,0-33.4,15.5-33.4,34.7c0,13.6,7.5,25.4,18.5,31.1V66.1h9.9V54.3
		h9.9v-8.6h9.9v53.5C90.6,93.6,98.1,81.8,98.1,68.2z"/>
	<path class="st2" d="M59.8,66.1h-9.9v33.2c3.1,1.6,6.4,2.7,9.9,3.3V66.1z"/>
	<path class="st3" d="M64.8,102.9c1.7,0,3.3-0.1,5-0.4V54.3h-9.9v11.8v36.4C61.4,102.8,63.1,102.9,64.8,102.9z"/>
	<path class="st4" d="M69.7,45.7v8.6v48.2c3.5-0.5,6.9-1.7,9.9-3.3V45.7H69.7z"/>
</g>
<path class="st0" d="M136.9,5.7l-29.6,2.8l5.9,9.1l-7.8,8.3c3.8,4.2,7.1,9.2,9.6,14.8l7.8-8.3l5.5,8.5L136.9,5.7z"/>
</svg>
