<?xml version="1.0" encoding="utf-8"?>
<!-- Generator: Adobe Illustrator 23.0.3, SVG Export Plug-In . SVG Version: 6.00 Build 0)  -->
<svg version="1.1" id="Warstwa_1" xmlns="http://www.w3.org/2000/svg" xmlns:xlink="http://www.w3.org/1999/xlink" x="0px" y="0px"
	 width="223px" height="256.4px" viewBox="0 0 223 256.4" style="enable-background:new 0 0 223 256.4;" xml:space="preserve">
<style type="text/css">
	.st0{fill:#E72B5B;}
	.st1{fill:#FFFFFF;}
	.st2{fill:none;}
	.st3{font-family:'Arial-BoldMT';}
	.st4{font-size:160px;}
</style>
<path class="st0" d="M1.5,217.8V38.7c0-19.6,15.9-35.5,35.5-35.5H186c19.6,0,35.5,15.9,35.5,35.5v179.1c0,19.6-15.9,35.5-35.5,35.5
	H36.9C17.4,253.2,1.5,237.3,1.5,217.8z"/>
<path class="st1" d="M14.8,219.3V37.2c0-12.1,9.8-21.8,21.8-21.8h149.7c12.1,0,21.8,9.8,21.8,21.8v182.1c0,12.1-9.8,21.8-21.8,21.8
	H36.6C24.6,241.1,14.8,231.3,14.8,219.3z"/>
<rect x="9.7" y="61.1" class="st2" width="203.6" height="134.3"/>
<text transform="matrix(1.1288 0 0 1 26.25 175.6237)" class="st0 st3 st4">W</text>
</svg>
