<?xml version="1.0" encoding="utf-8"?>
<!-- Generator: Adobe Illustrator 23.0.3, SVG Export Plug-In . SVG Version: 6.00 Build 0)  -->
<svg version="1.1" id="Warstwa_1" xmlns="http://www.w3.org/2000/svg" xmlns:xlink="http://www.w3.org/1999/xlink" x="0px" y="0px"
	 width="141.7px" height="141.7px" viewBox="0 0 141.7 141.7" style="enable-background:new 0 0 141.7 141.7;" xml:space="preserve"
	>
<style type="text/css">
	.st0{fill:none;stroke:#3589BC;stroke-width:5;stroke-miterlimit:10;}
	.st1{fill:#3589BC;}
	.st2{fill:#4391A7;}
	.st3{fill:#FFFFFF;}
</style>
<g>
	<circle class="st0" cx="71" cy="71" r="68"/>
	<path class="st1" d="M55.4,126.2c5,1.4,10.2,2.2,15.6,2.2c7.7,0,15-1.5,21.7-4.3L71.9,78L55.4,126.2z"/>
	<path class="st1" d="M13.7,71c0,23.9,14.7,44.4,35.5,53L16.9,52.2C14.8,58.1,13.7,64.4,13.7,71z"/>
	<path class="st1" d="M35.4,44c0,1.7-1.7,3.1-3.8,3.1h-2.7l27.7,61.6L69,71.5L58,47h-6c-2.1,0-3.8-1.4-3.8-3.1
		c0-1.7,1.7-3.1,3.8-3.1h23.6c2.1,0,3.8,1.4,3.8,3.1c0,1.7-1.7,3.1-3.8,3.1h-3.3l28,62.2l12-38.2c0.5-1.8,0.6-2.3,0.8-4.7
		c0.3-3.1-0.6-8.4-3.7-13.4c-4.6-7.5-6-8.1-6.7-11.5c-1.2-5.6,3.2-10.3,8.3-11.3c-10.3-10.1-24.4-16.3-40-16.3
		c-20.6,0-38.7,10.9-48.8,27.2h9.3C33.7,40.9,35.4,42.3,35.4,44z"/>
	<path class="st1" d="M128.3,71c0-7.7-1.5-15-4.3-21.7c-2.2,7.9-3.8,11-6.4,21L101,119.9C117.4,109.8,128.3,91.7,128.3,71z"/>
	<path class="st2" d="M111,30c5.6,5.4,10,12,13,19.3c0-0.2,0.1-0.3,0.1-0.4"/>
	<path class="st3" d="M124,49.3c-3-7.3-7.5-13.9-13-19.3c-5.1,1-9.6,5.7-8.3,11.3c0.8,3.4,2.2,4.1,6.7,11.5c3.1,5,3.9,10.3,3.7,13.4
		c-0.2,2.4-0.3,2.9-0.8,4.7l-12,38.2L72.3,47h3.3c2.1,0,3.8-1.4,3.8-3.1c0-1.7-1.7-3.1-3.8-3.1H52c-2.1,0-3.8,1.4-3.8,3.1
		c0,1.7,1.7,3.1,3.8,3.1h6l11,24.5l-12.5,37.1L28.9,47h2.7c2.1,0,3.8-1.4,3.8-3.1c0-1.7-1.7-3.1-3.8-3.1h-9.3
		c-2.2,3.5-4,7.3-5.3,11.2L49.3,124c2,0.8,4.1,1.5,6.2,2.1L71.9,78l20.7,46c2.9-1.2,5.7-2.6,8.3-4.2l16.7-49.6
		C120.2,60.3,121.9,57.1,124,49.3z"/>
</g>
</svg>
