<?xml version="1.0" encoding="UTF-8" standalone="no"?>
<!-- Created with Inkscape (http://www.inkscape.org/) -->

<svg
   xmlns:dc="http://purl.org/dc/elements/1.1/"
   xmlns:cc="http://creativecommons.org/ns#"
   xmlns:rdf="http://www.w3.org/1999/02/22-rdf-syntax-ns#"
   xmlns:svg="http://www.w3.org/2000/svg"
   xmlns="http://www.w3.org/2000/svg"
   xmlns:sodipodi="http://sodipodi.sourceforge.net/DTD/sodipodi-0.dtd"
   xmlns:inkscape="http://www.inkscape.org/namespaces/inkscape"
   width="144.3869mm"
   height="144.38705mm"
   viewBox="0 0 144.3869 144.38705"
   version="1.1"
   id="svg1398"
   sodipodi:docname="github.svg"
   inkscape:version="0.92.4 (5da689c313, 2019-01-14)">
  <defs
     id="defs1392" />
  <sodipodi:namedview
     id="base"
     pagecolor="#ffffff"
     bordercolor="#666666"
     borderopacity="1.0"
     inkscape:pageopacity="0.0"
     inkscape:pageshadow="2"
     inkscape:zoom="0.24748737"
     inkscape:cx="239.23477"
     inkscape:cy="552.42996"
     inkscape:document-units="mm"
     inkscape:current-layer="layer1"
     showgrid="false"
     inkscape:window-width="1366"
     inkscape:window-height="705"
     inkscape:window-x="-8"
     inkscape:window-y="-8"
     inkscape:window-maximized="1" />
  <metadata
     id="metadata1395">
    <rdf:RDF>
      <cc:Work
         rdf:about="">
        <dc:format>image/svg+xml</dc:format>
        <dc:type
           rdf:resource="http://purl.org/dc/dcmitype/StillImage" />
        <dc:title></dc:title>
      </cc:Work>
    </rdf:RDF>
  </metadata>
  <g
     inkscape:label="Layer 1"
     inkscape:groupmode="layer"
     id="layer1"
     transform="translate(234.34523,-99.696426)">
    <circle
       style="opacity:1;fill:#4d4d4d;fill-opacity:1;stroke:none;stroke-width:0.057;stroke-linecap:round;stroke-linejoin:round;stroke-miterlimit:4;stroke-dasharray:none;stroke-dashoffset:0;stroke-opacity:1;paint-order:markers fill stroke"
       id="path1943"
       cx="-162.15178"
       cy="171.88988"
       r="72.193451" />
    <path
       style="opacity:1;fill:#ffffff;fill-opacity:1;stroke:none;stroke-width:0.21236232;stroke-linecap:round;stroke-linejoin:round;stroke-miterlimit:4;stroke-dasharray:none;stroke-dashoffset:0;stroke-opacity:1;paint-order:markers fill stroke"
       d="m 114.91211,115.73047 c 0,0 6.2922,36.52531 28.24805,65.35547 -15.31854,17.64718 -22.21875,55.91426 -22.21875,97.39844 0,41.48417 46.62149,85.72702 107.58398,92.98046 0,0 -11.69357,10.16189 -17.16992,42.0625 -50.62314,65.13445 -80.3089,-24.45422 -123.431642,-21.51953 -2.321537,0.33147 -14.09394,7.47171 -12.101562,11.33008 1.87302,3.62721 17.246532,4.10564 23.501953,8.26172 9.346351,6.20954 23.642581,21.98684 29.310551,28.01953 41.52476,37.8892 52.71359,21.62177 82.7207,9.80859 l -0.97266,88.73633 a 272.85714,272.85714 0 0 0 62.47461,7.55078 272.85714,272.85714 0 0 0 78.58594,-11.80273 c -2.70487,-52.54706 4.92172,-142.15797 -16.18164,-161.93164 -0.0828,-0.10961 -0.1598,-0.2189 -0.24219,-0.32813 61.7404,-6.66644 109.17188,-51.21616 109.17188,-91.74804 0,-40.53188 -9.46439,-76.78224 -22.09375,-93.39844 20.81057,-27.41809 30.11523,-70.77539 30.11523,-70.77539 0,0 -46.53449,22.60156 -72.63867,36.38867 -18.43816,-9.05008 -63.64795,-17.68951 -96.32227,-18.26562 -31.34902,-0.5528 -76.69486,7.70563 -92.97461,14.25586 -20.58731,-11.22433 -75.36523,-32.37891 -75.36523,-32.37891 z"
       transform="matrix(0.26458333,0,0,0.26458333,-234.34523,99.696426)"
       id="rect1945"
       inkscape:connector-curvature="0" />
  </g>
</svg>
