<?xml version="1.0" encoding="UTF-8" standalone="no"?>
<!-- Generator: Adobe Illustrator 23.0.3, SVG Export Plug-In . SVG Version: 6.00 Build 0)  -->

<svg
   xmlns:dc="http://purl.org/dc/elements/1.1/"
   xmlns:cc="http://creativecommons.org/ns#"
   xmlns:rdf="http://www.w3.org/1999/02/22-rdf-syntax-ns#"
   xmlns:svg="http://www.w3.org/2000/svg"
   xmlns="http://www.w3.org/2000/svg"
   xmlns:sodipodi="http://sodipodi.sourceforge.net/DTD/sodipodi-0.dtd"
   xmlns:inkscape="http://www.inkscape.org/namespaces/inkscape"
   version="1.1"
   id="Warstwa_1"
   x="0px"
   y="0px"
   width="141.4px"
   height="141.5px"
   viewBox="0 0 141.4 141.5"
   style="enable-background:new 0 0 141.4 141.5;"
   xml:space="preserve"
   sodipodi:docname="rwd_svg.svg"
   inkscape:version="0.92.4 (5da689c313, 2019-01-14)"><metadata
   id="metadata69"><rdf:RDF><cc:Work
       rdf:about=""><dc:format>image/svg+xml</dc:format><dc:type
         rdf:resource="http://purl.org/dc/dcmitype/StillImage" /><dc:title></dc:title></cc:Work></rdf:RDF></metadata><defs
   id="defs67" /><sodipodi:namedview
   pagecolor="#ffffff"
   bordercolor="#666666"
   borderopacity="1"
   objecttolerance="10"
   gridtolerance="10"
   guidetolerance="10"
   inkscape:pageopacity="0"
   inkscape:pageshadow="2"
   inkscape:window-width="1366"
   inkscape:window-height="705"
   id="namedview65"
   showgrid="false"
   inkscape:zoom="4.7173767"
   inkscape:cx="73.109213"
   inkscape:cy="38.980991"
   inkscape:window-x="-8"
   inkscape:window-y="-8"
   inkscape:window-maximized="1"
   inkscape:current-layer="Warstwa_1" />
<style
   type="text/css"
   id="style2">
	.st0{fill:#FFFFFF;stroke:#4C4554;stroke-width:5;stroke-miterlimit:10;}
	.st1{fill:#4C4554;}
	.st2{fill:#9E9E9E;}
	.st3{fill:#737373;}
	.st4{fill:#4391A7;}
	.st5{fill:#84C493;}
	.st6{fill:#FFFFFF;stroke:#4C4554;stroke-width:3;stroke-miterlimit:10;}
	.st7{fill:#FFFFFF;stroke:#4C4554;stroke-width:4;stroke-miterlimit:10;}
</style>
<g
   id="g62">
	<path
   class="st0"
   d="M124.3,100.7H27.9c-5,0-9.1-4.1-9.1-9.1V12.2c0-5,4.1-9.1,9.1-9.1h96.4c5,0,9.1,4.1,9.1,9.1v79.4   C133.4,96.7,129.3,100.7,124.3,100.7z"
   id="path4"
   style="fill:#ffffff;fill-opacity:0.94117647;stroke:#4a4843;stroke-opacity:1" />
	<path
   class="st1"
   d="M84.7,119.3h-7.8c-1.9,0-3.5-1.6-3.5-3.5v-13.7h14.8v13.7C88.2,117.8,86.6,119.3,84.7,119.3z"
   id="path6"
   style="fill:#4a4843;fill-opacity:1" />
	
		<rect
   x="58.6"
   y="16.7"
   transform="matrix(-1 -1.224647e-16 1.224647e-16 -1 182.4758 44.598)"
   class="st2"
   width="65.2"
   height="11.2"
   id="rect8"
   style="fill:#4d4d4d;fill-opacity:1" />
	<path
   class="st1"
   d="M92.9,128.5H68.7c-2,0-3.6-1.6-3.6-3.6v0c0-2,1.6-3.6,3.6-3.6h24.2c2,0,3.6,1.6,3.6,3.6v0   C96.5,126.9,94.9,128.5,92.9,128.5z"
   id="path10"
   style="fill:#4a4843;fill-opacity:1" />
	
		<rect
   x="27.8"
   y="34.3"
   transform="matrix(-1 -1.224647e-16 1.224647e-16 -1 120.7589 79.8521)"
   class="st2"
   width="65.2"
   height="11.2"
   id="rect12"
   style="fill:#4d4d4d;fill-opacity:1" />
	<rect
   x="67.3"
   y="53.1"
   class="st3"
   width="57.1"
   height="11.2"
   id="rect14"
   style="fill:#333333;fill-opacity:1" />
	
		<rect
   x="100.3"
   y="34.3"
   transform="matrix(-1 -1.224647e-16 1.224647e-16 -1 224.1816 79.8521)"
   class="st2"
   width="23.5"
   height="11.2"
   id="rect16"
   style="fill:#4d4d4d;fill-opacity:1" />
	
		<rect
   x="27.6"
   y="16.7"
   transform="matrix(-1 -1.224647e-16 1.224647e-16 -1 78.7215 44.598)"
   class="st3"
   width="23.5"
   height="11.2"
   id="rect18"
   style="fill:#333333;fill-opacity:1" />
	<rect
   x="27.8"
   y="72"
   class="st4"
   width="28.3"
   height="11.2"
   id="rect20" />
	<rect
   x="61.9"
   y="72"
   class="st5"
   width="28.3"
   height="11.2"
   id="rect22"
   style="fill:#184a45;fill-opacity:1" />
	<rect
   x="96.1"
   y="72"
   class="st5"
   width="28.3"
   height="11.2"
   id="rect24"
   style="fill:#184a45;fill-opacity:1" />
	<rect
   x="27.8"
   y="53.5"
   class="st2"
   width="31.7"
   height="11.2"
   id="rect26" />
	<path
   class="st6"
   d="M131,137h-17.8c-4.5,0-8.1-3.6-8.1-8.1V75.5c0-4.5,3.6-8.1,8.1-8.1H131c4.5,0,8.1,3.6,8.1,8.1v53.4   C139.1,133.4,135.4,137,131,137z"
   id="path28"
   style="fill:#ffffff;fill-opacity:0.94117647;stroke:#4a4843;stroke-opacity:1" />
	
		<rect
   x="109"
   y="74.2"
   transform="matrix(-1 -1.224647e-16 1.224647e-16 -1 244.0656 155.0377)"
   class="st3"
   width="26"
   height="6.6"
   id="rect30"
   style="fill:#333333;fill-opacity:1" />
	
		<rect
   x="109"
   y="84.1"
   transform="matrix(-1 -1.224647e-16 1.224647e-16 -1 244.0656 174.8401)"
   class="st2"
   width="26"
   height="6.6"
   id="rect32"
   style="fill:#4d4d4d;fill-opacity:1" />
	
		<rect
   x="109"
   y="94"
   transform="matrix(-1 -1.224647e-16 1.224647e-16 -1 244.0656 194.6425)"
   class="st2"
   width="26"
   height="6.6"
   id="rect34"
   style="fill:#4d4d4d;fill-opacity:1" />
	
		<rect
   x="109"
   y="113.8"
   transform="matrix(-1 -1.224647e-16 1.224647e-16 -1 244.0656 234.2472)"
   class="st5"
   width="26"
   height="6.6"
   id="rect36"
   style="fill:#184a45;fill-opacity:1" />
	
		<rect
   x="109"
   y="123.7"
   transform="matrix(-1 -1.224647e-16 1.224647e-16 -1 244.0656 254.0496)"
   class="st5"
   width="26"
   height="6.6"
   id="rect38"
   style="fill:#184a45;fill-opacity:1" />
	
		<rect
   x="109"
   y="103.9"
   transform="matrix(-1 -1.224647e-16 1.224647e-16 -1 244.0656 214.4448)"
   class="st3"
   width="26"
   height="6.6"
   id="rect40"
   style="fill:#333333;fill-opacity:1" />
	<path
   class="st7"
   d="M51.5,139.2H13.4c-5.8,0-10.4-4.7-10.4-10.4V57.2c0-5.8,4.7-10.4,10.4-10.4h38.1c5.8,0,10.4,4.7,10.4,10.4   v71.6C61.9,134.6,57.3,139.2,51.5,139.2z"
   id="path42"
   style="fill:#ffffff;fill-opacity:0.94117647;stroke:#4a4843;stroke-opacity:1" />
	
		<rect
   x="10"
   y="53.8"
   transform="matrix(-1 -1.224647e-16 1.224647e-16 -1 42.4752 116.6135)"
   class="st3"
   width="22.5"
   height="9.1"
   id="rect44"
   style="fill:#333333;fill-opacity:1" />
	
		<rect
   x="10"
   y="67.3"
   transform="matrix(-1 -1.224647e-16 1.224647e-16 -1 64.9493 143.6291)"
   class="st2"
   width="44.9"
   height="9.1"
   id="rect46"
   style="fill:#4d4d4d;fill-opacity:1" />
	
		<rect
   x="10"
   y="80.8"
   transform="matrix(-1 -1.224647e-16 1.224647e-16 -1 38.1695 170.6447)"
   class="st2"
   width="18.2"
   height="9.1"
   id="rect48"
   style="fill:#4d4d4d;fill-opacity:1" />
	
		<rect
   x="36.8"
   y="80.8"
   transform="matrix(-1 -1.224647e-16 1.224647e-16 -1 91.7292 170.6447)"
   class="st2"
   width="18.2"
   height="9.1"
   id="rect50"
   style="fill:#4d4d4d;fill-opacity:1" />
	
		<rect
   x="10"
   y="107.8"
   transform="matrix(-1 -1.224647e-16 1.224647e-16 -1 64.9493 224.6759)"
   class="st3"
   width="44.9"
   height="9.1"
   id="rect52"
   style="fill:#333333;fill-opacity:1" />
	
		<rect
   x="10"
   y="121.3"
   transform="matrix(-1 -1.224647e-16 1.224647e-16 -1 32.0769 251.6915)"
   class="st5"
   width="12.1"
   height="9.1"
   id="rect54"
   style="fill:#184a45;fill-opacity:1" />
	
		<rect
   x="26.4"
   y="121.3"
   transform="matrix(-1 -1.224647e-16 1.224647e-16 -1 64.9493 251.6915)"
   class="st5"
   width="12.1"
   height="9.1"
   id="rect56"
   style="fill:#184a45;fill-opacity:1" />
	
		<rect
   x="42.9"
   y="121.3"
   transform="matrix(-1 -1.224647e-16 1.224647e-16 -1 97.8217 251.6915)"
   class="st5"
   width="12.1"
   height="9.1"
   id="rect58"
   style="fill:#184a45;fill-opacity:1" />
	
		<rect
   x="10"
   y="94.3"
   transform="matrix(-1 -1.224647e-16 1.224647e-16 -1 64.9493 197.6603)"
   class="st2"
   width="44.9"
   height="9.1"
   id="rect60"
   style="fill:#4d4d4d;fill-opacity:1" />
</g>
</svg>